<?xml version="1.0" encoding="UTF-8" standalone="no"?>
<!-- Created with Inkscape (http://www.inkscape.org/) -->
<svg
   xmlns:dc="http://purl.org/dc/elements/1.1/"
   xmlns:cc="http://creativecommons.org/ns#"
   xmlns:rdf="http://www.w3.org/1999/02/22-rdf-syntax-ns#"
   xmlns:svg="http://www.w3.org/2000/svg"
   xmlns="http://www.w3.org/2000/svg"
   xmlns:sodipodi="http://sodipodi.sourceforge.net/DTD/sodipodi-0.dtd"
   xmlns:inkscape="http://www.inkscape.org/namespaces/inkscape"
   width="208.55939"
   height="200.8575"
   id="svg2466"
   sodipodi:version="0.32"
   inkscape:version="0.46"
   version="1.0"
   sodipodi:docname="Université d'Angers.svg"
   inkscape:output_extension="org.inkscape.output.svg.inkscape">
  <defs
     id="defs2468">
    <clipPath
       clipPathUnits="userSpaceOnUse"
       id="clipPath2418">
      <path
         d="M 0,1190.551 L 841.89,1190.551 L 841.89,0 L 0,0 L 0,1190.551 z"
         id="path2420" />
    </clipPath>
    <inkscape:perspective
       sodipodi:type="inkscape:persp3d"
       inkscape:vp_x="0 : 526.18109 : 1"
       inkscape:vp_y="0 : 1000 : 0"
       inkscape:vp_z="744.09448 : 526.18109 : 1"
       inkscape:persp3d-origin="372.04724 : 350.78739 : 1"
       id="perspective2474" />
  </defs>
  <sodipodi:namedview
     id="base"
     pagecolor="#ffffff"
     bordercolor="#666666"
     borderopacity="1.0"
     inkscape:pageopacity="0.0"
     inkscape:pageshadow="2"
     inkscape:zoom="2.5241776"
     inkscape:cx="104.2797"
     inkscape:cy="100.42875"
     inkscape:document-units="px"
     inkscape:current-layer="layer1"
     showgrid="false"
     inkscape:window-width="1024"
     inkscape:window-height="712"
     inkscape:window-x="-4"
     inkscape:window-y="-4" />
  <metadata
     id="metadata2471">
    <rdf:RDF>
      <cc:Work
         rdf:about="">
        <dc:format>image/svg+xml</dc:format>
        <dc:type
           rdf:resource="http://purl.org/dc/dcmitype/StillImage" />
      </cc:Work>
    </rdf:RDF>
  </metadata>
  <g
     inkscape:label="Calque 1"
     inkscape:groupmode="layer"
     id="layer1"
     transform="translate(341.42255,59.49514)">
    <g
       transform="matrix(1.25,0,0,-1.25,-738.1888,835.77111)"
       id="g2414">
      <g
         id="g2416"
         clip-path="url(#clipPath2418)">
        <path
           d="M 393.203,683.377 L 400.592,683.377 L 400.592,662.848 L 410.856,662.848 L 410.856,683.377 L 421.121,683.377 L 421.121,662.848 L 421.121,652.584 L 410.856,652.584 L 400.592,652.584 L 390.329,652.584 L 390.329,662.848 L 390.329,680.662 L 393.203,683.377 z"
           style="fill:#ffffff;fill-opacity:1;fill-rule:nonzero;stroke:none"
           id="path2422" />
        <path
           d="M 471.746,637.275 C 470.613,637.146 469.314,637.061 467.854,637.061 C 461.271,637.061 459.342,640.463 459.342,645.346 L 459.113,645.346 C 455.596,640.238 450.715,637.061 442.998,637.061 C 435.167,637.061 429.379,642.508 429.379,649.885 C 429.379,666.342 450.715,666.342 459.342,667.137 L 459.342,671.448 C 459.342,679.393 459.228,687.791 449.694,687.791 C 442.658,687.791 441.749,684.84 441.749,681.209 C 441.749,676.555 438.345,675.307 436.416,675.307 C 433.352,675.307 430.968,677.35 430.968,680.414 C 430.968,687.791 441.977,691.537 449.808,691.537 C 465.357,691.537 468.193,684.045 468.193,673.49 L 468.193,645.346 C 468.193,641.371 469.556,640.01 473.074,640.01 C 473.434,640.01 473.793,640.045 474.152,640.09 L 471.746,637.275 z"
           style="fill:#ffffff;fill-opacity:1;fill-rule:nonzero;stroke:none"
           id="path2424" />
        <path
           d="M 330.667,576.871 C 328.78,576.822 322.824,576.523 322.824,571.858 C 322.824,569.922 323.865,568.332 325.95,568.332 C 328.78,568.332 330.667,570.368 330.667,573.99 L 330.667,576.871 z M 339.85,566.397 C 338.161,565.852 336.723,565.502 334.637,565.502 C 331.659,565.502 331.063,567.24 330.716,568.88 C 329.724,567.787 327.589,565.502 323.916,565.502 C 320.491,565.502 317.413,567.936 317.413,571.164 C 317.413,578.111 327.589,578.558 330.667,578.707 L 330.667,581.188 C 330.667,583.871 330.667,587.642 327.242,587.642 C 322.327,587.642 325.702,581.688 321.186,581.688 C 319.795,581.688 318.356,582.479 318.356,584.217 C 318.356,587.792 323.37,589.33 327.44,589.33 C 333.694,589.33 335.679,586.85 335.679,581.188 L 335.679,571.313 C 335.679,568.283 336.275,567.191 337.914,567.191 C 338.559,567.191 339.204,567.439 339.85,567.639 L 339.85,566.397 z"
           style="fill:#009caf;fill-opacity:1;fill-rule:nonzero;stroke:none"
           id="path2426" />
        <path
           d="M 345.01,567.092 C 347.889,567.092 348.733,567.987 348.733,571.41 L 348.733,583.076 C 348.733,586.6 346.947,587.047 345.01,587.047 L 345.01,588.139 L 353.746,589.33 L 353.746,583.473 L 353.847,583.473 C 354.988,585.508 357.271,589.33 361.987,589.33 C 367.045,589.33 367.986,586.502 367.986,582.729 L 367.986,571.41 C 367.986,567.987 368.83,567.092 371.708,567.092 L 371.708,566 L 359.257,566 L 359.257,567.092 C 362.136,567.092 362.979,567.987 362.979,571.41 L 362.979,578.707 C 362.979,584.713 362.235,586.303 359.802,586.303 C 356.923,586.303 353.746,581.141 353.746,578.063 L 353.746,571.41 C 353.746,567.987 354.591,567.092 357.469,567.092 L 357.469,566 L 345.01,566 L 345.01,567.092 z"
           style="fill:#009caf;fill-opacity:1;fill-rule:nonzero;stroke:none"
           id="path2428" />
        <path
           d="M 388.089,575.035 C 391.068,575.035 392.16,577.766 392.16,581.188 C 392.16,584.664 391.117,587.643 388.089,587.643 C 384.466,587.643 383.919,583.721 383.919,581.188 C 383.919,577.467 384.863,575.035 388.089,575.035 M 382.43,565.404 C 381.933,564.511 381.487,563.667 381.487,562.676 C 381.487,560.59 383.723,557.563 388.289,557.563 C 393.052,557.563 396.479,560.342 396.479,562.626 C 396.479,564.76 394.095,565.404 392.011,565.404 L 382.43,565.404 z M 393.252,570.021 C 396.876,570.021 400.747,568.779 400.747,564.115 C 400.747,560.092 396.031,555.527 388.039,555.527 C 380.645,555.527 377.765,559.052 377.765,561.385 C 377.765,563.667 379.7,565.156 380.891,566.148 C 380.296,566.744 379.303,567.488 379.303,569.078 C 379.303,571.609 381.637,573.893 382.281,574.787 C 380.891,575.779 378.807,577.268 378.807,581.188 C 378.807,586.254 382.381,589.33 388.089,589.33 C 390.473,589.33 392.16,588.586 393.45,587.941 C 394.394,589.827 395.982,593.352 399.01,593.352 C 400.499,593.352 401.69,592.158 401.69,590.621 C 401.69,589.082 400.549,587.89 399.01,587.89 C 398.216,587.89 397.77,588.139 397.372,588.438 C 397.026,588.686 396.777,588.933 396.429,588.933 C 395.486,588.933 394.989,587.84 394.593,587.096 C 395.982,585.955 397.272,584.417 397.272,581.188 C 397.272,576.227 393.45,573.346 388.089,573.346 C 385.954,573.346 384.813,573.744 383.87,574.092 C 383.374,573.445 382.877,572.651 382.877,571.858 C 382.877,570.467 383.919,570.021 385.509,570.021 L 393.252,570.021 z"
           style="fill:#009caf;fill-opacity:1;fill-rule:nonzero;stroke:none"
           id="path2430" />
        <path
           d="M 422.091,581.984 C 422.091,585.11 421.248,587.643 417.823,587.643 C 414.05,587.643 413.057,583.92 413.057,581.984 L 422.091,581.984 z M 426.656,566.795 C 425.715,566.447 423.133,565.502 419.808,565.502 C 412.164,565.502 407.646,569.971 407.646,578.211 C 407.646,585.707 411.368,589.33 418.021,589.33 C 425.814,589.33 427.105,584.119 427.105,579.948 L 413.057,579.948 C 413.057,574.737 415.042,567.737 422.091,567.737 C 424.128,567.737 425.715,568.234 426.656,568.582 L 426.656,566.795 z"
           style="fill:#009caf;fill-opacity:1;fill-rule:nonzero;stroke:none"
           id="path2432" />
        <path
           d="M 433.358,567.092 C 436.238,567.092 437.083,567.986 437.083,571.41 L 437.083,583.076 C 437.083,586.601 435.297,587.047 433.358,587.047 L 433.358,588.139 L 442.095,589.33 L 442.095,583.57 L 442.195,583.57 C 443.039,585.805 444.875,589.33 448.947,589.33 C 450.088,589.33 451.625,588.387 451.625,586.75 C 451.625,585.012 450.386,583.97 448.947,583.97 C 447.16,583.97 447.508,585.11 445.869,585.11 C 444.329,585.11 442.095,582.083 442.095,576.969 L 442.095,571.41 C 442.095,567.986 442.939,567.092 445.82,567.092 L 445.82,566 L 433.358,566 L 433.358,567.092 z"
           style="fill:#009caf;fill-opacity:1;fill-rule:nonzero;stroke:none"
           id="path2434" />
        <path
           d="M 470.885,582.629 C 470.687,584.367 469.645,587.643 465.973,587.643 C 463.838,587.643 462.299,586.203 462.299,584.417 C 462.299,581.188 468.007,579.948 471.084,577.566 C 472.573,576.424 473.716,574.687 473.716,572.256 C 473.716,568.186 470.487,565.502 464.779,565.502 C 461.802,565.502 459.021,566.1 457.882,566.397 L 457.581,573.049 L 459.021,573.049 C 459.021,570.219 460.958,567.191 464.632,567.191 C 466.816,567.191 469.147,568.432 469.147,570.965 C 469.147,574.191 464.283,575.133 461.306,577.169 C 458.873,578.855 457.731,580.197 457.731,582.927 C 457.731,587.396 461.653,589.33 466.369,589.33 C 468.751,589.33 470.439,588.884 472.027,588.486 L 472.324,582.629 L 470.885,582.629 z"
           style="fill:#009caf;fill-opacity:1;fill-rule:nonzero;stroke:none"
           id="path2436" />
        <path
           d="M 330.957,598.59 L 320.068,598.59 L 320.068,610.068 L 321.968,610.068 L 321.968,600.49 L 329.04,600.49 L 329.04,610.068 L 330.957,610.068 L 330.957,598.59 z"
           style="fill:#48b8c0;fill-opacity:1;fill-rule:nonzero;stroke:none"
           id="path2438" />
        <path
           d="M 350.13,610.068 L 350.13,598.59 L 348.215,598.59 L 348.215,608.168 L 341.092,608.169 L 341.092,598.59 L 339.193,598.59 L 339.193,610.068 L 350.13,610.068 z"
           style="fill:#48b8c0;fill-opacity:1;fill-rule:nonzero;stroke:none"
           id="path2440" />
        <path
           d="M 360.217,598.59 L 358.319,598.59 L 358.319,610.086 L 360.217,610.086 L 360.217,598.59 z M 360.217,611.756 L 358.319,611.756 L 358.319,613.394 L 360.217,613.394 L 360.217,611.756 z"
           style="fill:#48b8c0;fill-opacity:1;fill-rule:nonzero;stroke:none"
           id="path2442" />
        <path
           d="M 375.26,598.59 L 370.214,598.59 L 367.3,610.068 L 369.2,610.068 L 371.903,600.523 L 373.71,600.523 C 373.71,600.994 376.274,610.068 376.274,610.068 L 378.19,610.068 L 375.26,598.59 z"
           style="fill:#48b8c0;fill-opacity:1;fill-rule:nonzero;stroke:none"
           id="path2444" />
        <path
           d="M 468.203,609.615 L 466.161,609.62 C 466.161,610.088 468.779,613.423 468.779,613.423 L 470.695,613.423 L 468.203,609.615 z"
           style="fill:#48b8c0;fill-opacity:1;fill-rule:nonzero;stroke:none"
           id="path2446" />
        <path
           d="M 387.359,605.321 L 394.385,605.321 L 394.385,608.156 L 387.359,608.156 L 387.359,605.321 z M 385.41,598.59 L 385.41,610.068 L 396.283,610.068 L 396.283,603.356 L 387.359,603.374 L 387.359,600.542 L 394.385,600.542 L 394.385,598.59 L 385.41,598.59 z"
           style="fill:#48b8c0;fill-opacity:1;fill-rule:nonzero;stroke:none"
           id="path2448" />
        <path
           d="M 410.352,608.168 L 405.438,608.168 L 405.438,598.59 L 403.522,598.59 L 403.522,610.068 L 410.352,610.068 L 410.352,608.168 z"
           style="fill:#48b8c0;fill-opacity:1;fill-rule:nonzero;stroke:none"
           id="path2450" />
        <path
           d="M 417.325,598.59 L 417.325,600.523 L 426.248,600.523 L 426.248,603.356 L 421.778,603.356 L 417.325,603.356 L 417.325,610.086 L 426.398,610.086 L 426.398,608.186 L 419.29,608.186 L 419.291,605.337 L 428.213,605.337 L 428.213,598.59 L 417.325,598.59 z"
           style="fill:#48b8c0;fill-opacity:1;fill-rule:nonzero;stroke:none"
           id="path2452" />
        <path
           d="M 438.348,598.59 L 436.449,598.59 L 436.449,610.086 L 438.348,610.086 L 438.348,598.59 z M 438.348,611.756 L 436.449,611.756 L 436.449,613.394 L 438.348,613.394 L 438.348,611.756 z"
           style="fill:#48b8c0;fill-opacity:1;fill-rule:nonzero;stroke:none"
           id="path2454" />
        <path
           d="M 452.429,608.186 L 448.796,608.186 L 448.796,600.542 L 454.033,600.542 L 454.033,598.59 L 446.878,598.59 L 446.878,605.976 L 446.878,613.395 L 448.796,613.395 L 448.796,610.086 L 452.429,610.086 L 452.429,608.186 z"
           style="fill:#48b8c0;fill-opacity:1;fill-rule:nonzero;stroke:none"
           id="path2456" />
        <path
           d="M 464.299,605.321 L 471.325,605.321 L 471.325,608.156 L 464.299,608.156 L 464.299,605.321 z M 462.351,598.59 L 462.351,610.068 L 473.224,610.068 L 473.224,603.356 L 464.299,603.374 L 464.299,600.542 L 471.325,600.542 L 471.325,598.59 L 462.351,598.59 z"
           style="fill:#48b8c0;fill-opacity:1;fill-rule:nonzero;stroke:none"
           id="path2458" />
        <path
           d="M 481.644,685.025 C 473.402,706.353 453.184,713.932 429.264,705.904 L 429.264,690.535 L 419.119,690.535 L 419.119,701.658 C 410.667,697.432 401.92,691.366 393.203,683.377 L 400.592,683.377 L 400.592,662.848 L 410.856,662.848 L 410.856,683.377 L 421.121,683.377 L 421.121,662.848 L 421.121,652.584 L 410.856,652.584 L 400.592,652.584 L 390.329,652.584 L 390.329,662.848 L 390.329,680.662 C 354.146,645.178 396.624,625.963 413.431,623.291 C 442.146,618.211 460.82,625.51 471.746,637.275 C 470.613,637.146 469.314,637.061 467.854,637.061 C 461.271,637.061 459.342,640.463 459.342,645.346 L 459.113,645.346 C 455.596,640.238 450.715,637.061 442.998,637.061 C 435.167,637.061 429.379,642.508 429.379,649.885 C 429.379,666.342 450.715,666.342 459.342,667.137 L 459.342,671.448 C 459.342,679.393 459.228,687.791 449.694,687.791 C 442.658,687.791 441.749,684.84 441.749,681.209 C 441.749,676.555 438.345,675.307 436.416,675.307 C 433.352,675.307 430.968,677.35 430.968,680.414 C 430.968,687.791 441.977,691.537 449.808,691.537 C 465.357,691.537 468.193,684.045 468.193,673.49 L 468.193,645.346 C 468.193,641.371 469.556,640.01 473.074,640.01 C 473.434,640.01 473.793,640.045 474.152,640.09 C 485.014,653.936 486.451,672.576 481.644,685.025"
           style="fill:#009caf;fill-opacity:1;fill-rule:nonzero;stroke:none"
           id="path2460" />
        <path
           d="M 447.197,641.826 C 454.574,641.826 459.342,648.977 459.342,656.693 L 459.342,663.391 C 454.008,663.277 439.479,662.256 439.479,651.699 C 439.479,645.799 443.338,641.826 447.197,641.826"
           style="fill:#009caf;fill-opacity:1;fill-rule:nonzero;stroke:none"
           id="path2462" />
        <path
           d="M 419.119,716.213 L 429.265,716.213 L 429.265,690.535 L 419.119,690.535 L 419.119,716.213 z"
           style="fill:#f2511b;fill-opacity:1;fill-rule:nonzero;stroke:none"
           id="path2464" />
      </g>
    </g>
  </g>
</svg>
