<svg id="Layer_1" data-name="Layer 1" xmlns="http://www.w3.org/2000/svg" viewBox="0 0 250 51.57"><defs><style>.cls-1{fill:#27407f;}.cls-2{fill:#f1aa1e;}.cls-3{fill:#eb8023;}.cls-4{fill:#e15927;}.cls-5{fill:#5a9240;}.cls-6{fill:#80c342;}.cls-7{fill:#3c9cd7;}.cls-8{fill:#3870b2;}</style></defs><rect class="cls-1" x="104.86" y="15" width="6.89" height="35.87"/><path class="cls-1" d="M117.68,24.34h6.76v2.72a16.48,16.48,0,0,1,4.18-2.66,10.19,10.19,0,0,1,3.82-.74,9.34,9.34,0,0,1,6.81,2.75q2.35,2.34,2.35,6.93V50.87h-6.7V39.25a28.31,28.31,0,0,0-.43-6.3,4,4,0,0,0-4.17-3.2,5,5,0,0,0-3.52,1.36,7.2,7.2,0,0,0-2,3.74,29.34,29.34,0,0,0-.3,5.38V50.87h-6.77Z"/><path class="cls-1" d="M147.48,24.34h6.77v2.72a16.43,16.43,0,0,1,4.17-2.66,10.27,10.27,0,0,1,3.83-.74,9.34,9.34,0,0,1,6.81,2.75c1.56,1.56,2.35,3.87,2.35,6.93V50.87h-6.7V39.25a28.88,28.88,0,0,0-.43-6.3,4.38,4.38,0,0,0-1.51-2.38,4.3,4.3,0,0,0-2.66-.82,5,5,0,0,0-3.53,1.36,7.2,7.2,0,0,0-2,3.74,30.25,30.25,0,0,0-.3,5.38V50.87h-6.77Z"/><path class="cls-1" d="M180.72,13.42a4.32,4.32,0,0,1,.05,8.63,4.18,4.18,0,0,1-3.07-1.28,4.25,4.25,0,0,1-1.28-3.11,4.09,4.09,0,0,1,1.26-3,4.18,4.18,0,0,1,3-1.25m-3.38,10.93h6.77V50.87h-6.77Z"/><path class="cls-1" d="M207.38,28.05l-4.19,4.12c-1.71-1.66-3.25-2.49-4.64-2.49a3,3,0,0,0-1.79.48,1.4,1.4,0,0,0-.64,1.18,1.43,1.43,0,0,0,.41,1,7.44,7.44,0,0,0,2,1.23L201,34.78a14.6,14.6,0,0,1,5.38,3.87,8,8,0,0,1-1.18,10.54,10.22,10.22,0,0,1-7.08,2.36A11.3,11.3,0,0,1,188.73,47l4.17-4.46a9.47,9.47,0,0,0,2.79,2.2,6.25,6.25,0,0,0,2.83.84,3.41,3.41,0,0,0,2.16-.63,1.84,1.84,0,0,0,.82-1.46c0-1-1-2-2.95-3l-2.28-1.12q-6.56-3.26-6.55-8.13a7,7,0,0,1,2.47-5.37,9,9,0,0,1,6.31-2.23,11.18,11.18,0,0,1,4.95,1.13,11,11,0,0,1,3.93,3.26"/><path class="cls-1" d="M210.93,24.34h2.41c0-3.48.07-5.53.17-6.17a5.08,5.08,0,0,1,1.87-3.47,7.1,7.1,0,0,1,4.53-1.28,14.11,14.11,0,0,1,4.76.95v5.07a9.36,9.36,0,0,0-2.4-.41,2.53,2.53,0,0,0-1.73.48,2.07,2.07,0,0,0-.4,1.52l0,3.31h4.29V30h-4.29v20.9h-6.77V30h-2.41Z"/><path class="cls-1" d="M232.72,13.42a4.32,4.32,0,0,1,.05,8.63,4.17,4.17,0,0,1-3.07-1.28,4.25,4.25,0,0,1-1.28-3.11,4.09,4.09,0,0,1,1.26-3,4.15,4.15,0,0,1,3-1.25m-3.39,10.93h6.77V50.87h-6.77Z"/><rect class="cls-1" x="243.23" y="14.1" width="6.77" height="36.77"/><path class="cls-2" d="M87.79,17.57h0S89.71,26.28,74.51,26c0,0,13-.46,10.23,9.11,0,0,6.68-7.86,11.69-10.2C96.43,24.94,88.81,24.41,87.79,17.57Z"/><path class="cls-3" d="M72.71,5.47h0s2.11,9.64-16.13,9.33c0,0,21.2-.31,17.93,11.22,0,0,7.22-5.65,13.28-8.45C87.79,17.57,74,13.68,72.71,5.47Z"/><path class="cls-4" d="M74.51,26h0s2.15,10.73-16.1,10.42c0,0,17.28.34,14,11.91,0,0,6.25-10.42,12.31-13.22C84.74,35.13,75.75,34.2,74.51,26Z"/><path class="cls-5" d="M56.58,14.8h0s2.33,10.76-16.32,10.45c0,0,21.45-.62,18.15,11.19,0,0,9.89-7.59,16.1-10.42C74.51,26,57.88,23.23,56.58,14.8Z"/><path class="cls-6" d="M38.05,0h0s2.83,12.84-19.62,12.47c0,0,25.84-1.43,21.83,12.78,0,0,8.86-7,16.32-10.45C56.58,14.8,39.6,10,38.05,0Z"/><path class="cls-7" d="M18.43,12.38h0s4,12.87-18.43,12.5c0,0,24.46-1,20.45,13.15,0,0,12.35-9.36,19.8-12.78C40.26,25.25,20,22.45,18.43,12.38Z"/><path class="cls-8" d="M40.26,25.25h0s1.36,11-19.8,12.78c0,0,23.37-3,19.4,11.16,0,0,11.12-9.3,18.56-12.75C58.41,36.44,41.78,35.29,40.26,25.25Z"/></svg>