<?xml version="1.0" encoding="UTF-8" standalone="no"?>
<!-- Generator: Adobe Illustrator 19.0.0, SVG Export Plug-In . SVG Version: 6.00 Build 0)  -->

<svg
   version="1.1"
   id="layer"
   x="0px"
   y="0px"
   viewBox="-153 -46 391265.19 76218.797"
   xml:space="preserve"
   width="391265.19"
   height="76218.797"
   xmlns="http://www.w3.org/2000/svg"
   xmlns:svg="http://www.w3.org/2000/svg"><defs
   id="defs171" />
<style
   type="text/css"
   id="style163">
	.st0{fill:#136194;}
	.st1{fill:#0FB8D8;}
</style>
<path
   id="XMLID_14_"
   class="st0"
   d="m -17527.2,-173621.81 v 62.6 h 29 v 6.7 h -36.5 v -69.3 z m 72,5 c 5.7,0 11,1.3 16.1,4 5.1,2.7 9,6.2 11.8,10.7 2.8,4.4 4.2,9.4 4.2,14.9 0,5.5 -1.4,10.6 -4.2,15.1 -2.8,4.5 -6.7,8.1 -11.7,10.7 -5,2.6 -10.4,3.9 -16.2,3.9 -8.8,0 -16.2,-2.8 -22.5,-8.5 -6.3,-5.7 -9.3,-12.6 -9.3,-20.9 0,-5.6 1.4,-10.6 4.2,-15.1 2.8,-4.5 6.7,-8.1 11.7,-10.8 5,-2.7 10.3,-4 15.9,-4 m -0.4,-6.7 c -7,0 -13.6,1.6 -19.6,4.8 -6.1,3.2 -10.8,7.7 -14.3,13.3 -3.5,5.7 -5.3,11.9 -5.3,18.5 0,10 3.8,18.5 11.5,25.5 7.7,7 17.1,10.6 28.3,10.6 11,0 20.4,-3.5 28.1,-10.6 7.7,-7 11.5,-15.6 11.5,-25.8 0,-10.2 -3.9,-18.9 -11.5,-25.9 -7.7,-6.9 -17.3,-10.4 -28.7,-10.4 m 57.9,71 v -52.5 l 49.7,52.5 h 1.7 v -69.3 h -7.4 v 53.1 l -50.1,-53.1 h -1.7 v 69.3 z m 137.3,-57.7 c -5.4,-4.7 -10.9,-8.1 -16.5,-10.2 -5.6,-2.1 -11.6,-3.2 -18,-3.2 -7.9,0 -15,1.6 -21.2,4.8 -6.3,3.2 -11.2,7.6 -14.8,13.3 -3.6,5.7 -5.4,11.8 -5.4,18.3 0,8.8 3.1,16.6 9.4,23.3 8.1,8.7 19.2,13.1 33.1,13.1 11.5,0 20.6,-3.2 27.5,-9.4 6.9,-6.3 10.3,-14.8 10.4,-25.5 h -32.5 v 6.7 h 24 c -1,6.4 -4.2,11.6 -9.5,15.6 -5.4,4 -11.9,6 -19.7,6 -6.4,0 -12.3,-1.3 -17.6,-4 -5.4,-2.7 -9.6,-6.4 -12.6,-11.1 -3,-4.7 -4.6,-9.6 -4.6,-14.9 0,-5.1 1.5,-9.9 4.4,-14.5 2.9,-4.6 7.1,-8.2 12.4,-10.9 5.3,-2.7 11,-4 16.9,-4 4.7,0 9.6,1 14.6,2.9 5,2 9.6,4.8 13.8,8.6 l 5.9,-4.9" />
<path
   id="XMLID_8_"
   class="st1"
   d="m -17227,-173582.81 v 17.8 h 3.6 c 6,0 10,-0.7 12.1,-2.1 2.1,-1.4 3.1,-3.4 3.1,-6 0,-3 -1.2,-5.3 -3.6,-7.1 -2.4,-1.7 -6.5,-2.6 -12.1,-2.6 z m 0,-26.4 v 14.6 h 3.1 c 3.5,0 6.1,-0.7 7.8,-2 1.7,-1.3 2.5,-3.2 2.5,-5.5 0,-2.2 -0.8,-3.9 -2.4,-5.2 -1.6,-1.3 -4.1,-1.9 -7.4,-1.9 z m -14.4,56.7 v -69.3 h 11.8 c 6.9,0 11.9,0.4 15.1,1.2 4.5,1.1 8.1,3.1 10.8,6.1 2.7,3 4,6.5 4,10.6 0,2.6 -0.6,5 -1.8,7.2 -1.2,2.1 -3.2,4.2 -5.9,6.1 4.6,2 7.9,4.5 10,7.4 2.1,3 3.2,6.5 3.2,10.5 0,3.9 -1.1,7.4 -3.3,10.6 -2.2,3.2 -5,5.6 -8.5,7.2 -3.5,1.6 -8.2,2.4 -14.3,2.4 z m 55.7,-69.3 h 41.1 v 12.9 h -26.9 v 12.5 h 26.9 v 12.7 h -26.9 v 18.3 h 26.9 v 13 h -41.1 z m 82.2,18.4 -10.1,23.8 h 20.2 z m -7.3,-18.4 h 14.6 l 29,69.3 h -14.9 l -5.9,-14.3 h -30.8 l -6.1,14.3 h -14.9 z m 114.6,12.2 -10,8.8 c -6.8,-6.6 -14.5,-10 -23,-10 -7.2,0 -13.3,2.3 -18.2,6.8 -4.9,4.5 -7.4,10.1 -7.4,16.7 0,4.6 1.1,8.7 3.3,12.3 2.2,3.6 5.3,6.4 9.3,8.4 4,2 8.4,3.1 13.3,3.1 4.2,0 8,-0.7 11.4,-2.1 3.4,-1.4 7.2,-4 11.4,-7.8 l 9.7,9.3 c -5.6,5 -10.8,8.5 -15.8,10.4 -5,1.9 -10.6,2.9 -17,2.9 -11.7,0 -21.3,-3.4 -28.8,-10.2 -7.5,-6.8 -11.2,-15.6 -11.2,-26.3 0,-6.9 1.7,-13 5.1,-18.4 3.4,-5.4 8.3,-9.7 14.6,-13 6.3,-3.3 13.2,-4.9 20.5,-4.9 6.2,0 12.2,1.2 18,3.6 5.7,2.5 10.7,5.9 14.8,10.4 m 7.3,-12.2 h 14.6 v 26.1 h 25.2 v -26.1 h 14.5 v 69.3 h -14.5 v -30.4 h -25.2 v 30.4 h -14.6 z" />
<path
   id="XMLID_1_"
   d="m -17500.3,-173660.51 -2.7,2.1 c -1.5,-1.9 -3.3,-3.4 -5.5,-4.4 -2.1,-1 -4.4,-1.5 -7,-1.5 -2.8,0 -5.4,0.7 -7.7,2 -2.4,1.3 -4.2,3.1 -5.5,5.3 -1.3,2.2 -2,4.7 -2,7.5 0,4.2 1.5,7.7 4.4,10.4 2.9,2.8 6.6,4.2 11,4.2 4.9,0 9,-1.9 12.2,-5.6 l 2.7,2 c -1.7,2.2 -3.9,3.8 -6.5,5 -2.6,1.2 -5.5,1.8 -8.7,1.8 -6.1,0 -10.9,-2 -14.4,-6 -2.9,-3.4 -4.4,-7.4 -4.4,-12.2 0,-5 1.8,-9.2 5.4,-12.6 3.6,-3.4 8,-5.1 13.4,-5.1 3.2,0 6.2,0.6 8.8,1.9 2.6,1.1 4.8,2.9 6.5,5.2 m 6.4,27.9 h 3.5 v -34.2 h -3.5 z m 15.8,-30.9 v 30.9 h 3.5 v -30.9 h 7.8 v -3.3 h -19.1 v 3.3 z m 24.8,14.5 v 16.4 h 3.4 v -16.4 l 11,-17.9 h -4 l -8.8,14.1 -8.9,-14.1 h -4 z m 46.8,-15.4 c 2.6,0 5.1,0.7 7.4,2 2.3,1.3 4.2,3.1 5.4,5.3 1.3,2.2 1.9,4.7 1.9,7.4 0,2.7 -0.6,5.2 -1.9,7.5 -1.3,2.2 -3.1,4 -5.4,5.3 -2.3,1.3 -4.8,1.9 -7.5,1.9 -4,0 -7.5,-1.4 -10.4,-4.2 -2.9,-2.8 -4.3,-6.2 -4.3,-10.3 0,-2.7 0.6,-5.2 1.9,-7.5 1.3,-2.2 3.1,-4 5.4,-5.3 2.5,-1.4 4.9,-2.1 7.5,-2.1 m -0.2,-3.3 c -3.3,0 -6.3,0.8 -9.1,2.4 -2.8,1.6 -5,3.8 -6.6,6.6 -1.6,2.8 -2.4,5.8 -2.4,9.1 0,4.9 1.8,9.1 5.3,12.6 3.6,3.5 7.9,5.2 13.1,5.2 5.1,0 9.4,-1.7 13,-5.2 3.5,-3.5 5.3,-7.7 5.3,-12.8 0,-5 -1.8,-9.3 -5.3,-12.8 -3.6,-3.4 -8,-5.1 -13.3,-5.1 m 25.6,35.1 h 3.5 v -16.8 h 14 v -3.3 h -14 v -10.7 h 14 v -3.3 h -17.5 z" />
</svg>
