<svg id="Layer_1" data-name="Layer 1" xmlns="http://www.w3.org/2000/svg" viewBox="0 0 1000 1000"><defs><style>.cls-1{fill:#eb262a;}</style></defs><rect class="cls-1" x="106.22" y="647.91" width="787.31" height="162.88"/><rect class="cls-1" x="106.22" y="414.82" width="787.31" height="162.88"/><polygon class="cls-1" points="186.5 189.21 205.85 245.48 265.23 246.51 217.73 282.13 235.03 338.92 186.5 304.85 137.97 338.92 155.26 282.13 107.76 246.51 167.13 245.48 186.5 189.21"/><polygon class="cls-1" points="500.9 189.21 520 245.48 579.38 246.51 531.88 282.13 549.43 338.92 500.9 304.85 452.12 338.92 469.67 282.13 422.17 246.51 481.54 245.48 500.9 189.21"/><polygon class="cls-1" points="815.05 189.21 834.41 245.48 893.78 246.51 846.29 282.13 863.58 338.92 815.05 304.85 766.52 338.92 783.82 282.13 736.32 246.51 795.69 245.48 815.05 189.21"/></svg>