<svg height="63" viewBox="0 0 102 63" width="102" xmlns="http://www.w3.org/2000/svg" xmlns:xlink="http://www.w3.org/1999/xlink"><mask id="a" fill="#fff"><path d="m0 .44723077h101.542041v62.55276923h-101.542041z" fill="#fff" fill-rule="evenodd"/></mask><mask id="b" fill="#fff"><path d="m0 .44723077h101.542041v62.55276923h-101.542041z" fill="#fff" fill-rule="evenodd"/></mask><g fill="none" fill-rule="evenodd"><path d="m81.6179714 54.2499923c-.0104081.0083077-.0208163.0159231-.0312245.0242308l-.2761632-.3309231c-5.6925715 4.6820769-12.9234694 7.2145385-20.3854286 7.2145385-8.5388571 0-16.5392653-3.2233847-22.5392245-9.1336154-5.9999592-5.8326923-9.3083673-13.6613077-9.3083673-21.951 0-6.3699231 1.9234285-12.5868462 5.6925714-17.8061539 3.6928163-5.14246151 8.7699184-8.97992305 14.7698775-11.20569228l-.2303673-.61407692c-6.0776735 2.30261538-11.3081225 6.21692308-15.0009388 11.4362308-3.8461632 5.3723077-5.9229388 11.6660769-5.9229388 18.1896923 0 8.4426923 3.3847347 16.425 9.5387347 22.4113846.5786939.5635385 1.1809796 1.0945385 1.7936735 1.6096154l-.7937959.9235384c6.0769796 5.1424616 13.9233469 7.9823077 22.0007755 7.9823077 7.9233878 0 15.5386939-2.763 21.6163673-7.674923z" fill="#004b86" mask="url(#a)"/><g fill="#141414"><path d="m35.0780082 10.8856385c-.153347-.5372308-.2303674-.99761542-.2303674-1.53484619 0-2.30261539 1.5383265-4.37538462 4.3075919-4.37538462.6154693 0 1.1539183.07684616 1.6153469.23053846.4614286-.38353846.9998775-.76776923 1.5383265-1.07446153-.9228571-.53723077-1.9997551-.84392308-3.1536734-.84392308-3.3847347 0-6.2310205 2.68615384-6.2310205 6.06323077 0 1.15130769.3851021 2.30261539.9228572 3.22338459.1540408-.2298461.3080816-.4603846.4614286-.6140769.2310612-.3842308.5391428-.7670769.7695102-1.0744615"/><path d="m43.3860122 4.89904615c-.5384489.30669231-.9998775.61407693-1.4613061.99761539.9998776.76776923 1.5383266 2.07207692 1.5383266 3.45392308 0 2.30261538-1.6923674 4.29784618-4.3075919 4.29784618-1.462 0-2.6159184-.614077-3.3847347-1.6116923-.1540408.2305384-.3080816.3842307-.4621224.6140769-.2303674.3073846-.4607347.6140769-.6154694.9207692 1.1546122 1.0751539 2.6929388 1.7660769 4.4623265 1.7660769 3.4610612 0 6.2310204-2.61 6.2310204-5.98707688 0-1.76538462-.7695102-3.37707693-2.000449-4.45153847"/><path d="m32.3857633 25.0078154c0 1.8422308-1.076898 3.4539231-2.6922449 4.068v.9976154.8446154c2.6152245-.6909231 4.6149796-2.9935385 4.6149796-5.9102308 0-2.0720769-1.1532245-3.9143077-2.8455919-5.0656154-.2310612.6140769-.385102 1.1513077-.6154694 1.6885385.9998776.8446153 1.5383266 2.0727692 1.5383266 3.3770769"/><path d="m28.4623714 29.3827154h-.3844081c-2.6152245 0-4.3853062-1.9952308-4.3853062-4.3746923 0-2.2257693 1.5390205-4.2978462 4.3853062-4.2978462.6154694 0 1.2309387.0761539 1.6916734.3066923.1547347-.537923.3080817-1.0744615.5391429-1.6116923-.6924898-.2305384-1.462-.3842307-2.2308163-.3842307-3.4617551 0-6.2310204 2.6868461-6.2310204 5.9870769 0 3.4539231 2.7692653 6.0632307 6.2310204 6.0632307h.3844081c0-.3066923-.0770204-.690923-.0770204-.9976153 0-.2305385.0770204-.4603847.0770204-.6909231"/><path d="m32.5395265 36.5206846c2.7692653 0 4.3075919 2.0720769 4.3075919 4.2978462 0 1.9952307-1.2302449 3.7606154-3.1536735 4.2216923.3073878.5372307.6154694.9976154.9228571 1.5348461 2.3848572-.843923 4.1542449-2.9935384 4.1542449-5.7565384 0-3.3002308-2.8462857-5.9863846-6.2310204-5.9863846-.8458367 0-1.6923673.1536923-2.3841632.4603846.0763265.5372307.1533469 1.1513077.3073877 1.6885384.6154694-.3066923 1.3072653-.4603846 2.0767755-.4603846"/><path d="m28.231449 40.8184615c0-1.1513077.385102-2.2257692 1.1539183-3.0696923-.1540408-.6140769-.3073877-1.2281538-.3844081-1.8422307-1.615347 1.0744615-2.6922449 2.9166923-2.6922449 4.911923 0 3.4546154 2.7692653 6.0632308 6.2310204 6.0632308.2303673 0 .538449 0 .7695102-.0761538-.3080816-.5372308-.6924898-1.0744616-1.0005714-1.6116923-2.4611837-.1536924-4.0772245-1.9959231-4.0772245-4.3753847"/><path d="m62.7713551 35.0624077v6.9846923c0 1.6116923-.538449 3.1465385-2.6152245 3.1465385-2.0774694 0-2.6159184-1.5348462-2.6159184-3.1465385v-6.9846923h-1.9227346v7.3682308c0 2.5324615 1.6153469 4.4515384 4.538653 4.4515384s4.5379592-1.9190769 4.5379592-4.4515384v-7.3682308z"/><path d="m64.3098898 13.4952923h5.2311429v1.6116923h-7.1545715v-11.58923075h1.9234286z"/><path d="m0 19.2516231h6.76946939v1.6878461h-4.8467347v2.7636923h4.76971429v1.6885385h-4.76971429v3.7606154h4.8467347v1.6885384h-6.76946939z"/><path d="m38.2321673 18.6375462 8.0004082 8.2121538v-7.5980769h1.9227347v12.0496154l-8.0004082-8.0584616v7.5980769h-1.9227347z"/><path d="m85.9263265 19.2516923h1.9234286v11.5892308h-1.9234286z" mask="url(#b)"/><path d="m18.6927837 36.7508769v2.763h4.153551v1.6123846h-4.153551v5.5253077h-1.9227347v-11.5892307h6.2310204v1.6885384z" mask="url(#b)"/><path d="m26.3855265 10.7322231h.0770204l1.8457143-7.21453848h1.8471021l-3.2313878 12.05030768-4.0772245-8.67323076-4.0765306 8.67323076-3.3077143-12.05030768h1.9227347l1.8464082 7.21453848 3.615102-7.44507695z" mask="url(#b)"/><path d="m70.8485755 23.6262462h-.0770204l-1.8464082 7.2145384h-1.8457142l3.2306938-12.0496154 4.0772245 8.7493846 4.0772245-8.7493846 3.3077143 12.0496154h-1.9234286l-1.8464081-7.2145384h-.0770204l-3.5380817 7.521923z" mask="url(#b)"/><path d="m71.8485918 39.4371-1.8464081 7.2145385h-1.9227347l3.2306939-12.0503077 4.1542449 8.6732307 4.0772244-8.6732307 3.23 12.0503077h-1.9227346l-1.8464082-7.2145385-3.5380816 7.4450769z" mask="url(#b)"/><path d="m46.0015837 35.0624077c1.0768979 0 2.3078367 0 3.2306939.5372308 1.0005714.5372307 1.6153469 1.6885384 1.6153469 2.763 0 1.6885384-1.1532245 3.0703846-2.8462857 3.2233846l3.6928163 5.0656154h-2.1537959l-3.4617551-4.9119231h-1.3079592v4.9119231h-1.9227347v-11.5892308zm-1.2309388 5.1424615h.8465306c1.5383265 0 3.3847347.0761539 3.3847347-1.7653846 0-1.8422308-1.9234286-1.7653846-3.4617551-1.7653846h-.7695102z" mask="url(#b)"/><path d="m52.5401306 3.51740769c1.076898 0 2.3078367 0 3.2306939.53723077 1.0005714.53723077 1.5383265 1.68853846 1.5383265 2.763 0 1.68923077-1.0762041 3.07038462-2.8455918 3.22338464l3.7691428 5.0656154h-2.1537959l-3.5387755-4.9119231h-1.2309388v4.9119231h-1.9227347v-11.58923081zm-1.2309388 5.14246154h.8465306c1.5383266 0 3.3077143.07684615 3.3077143-1.76538461 0-1.84223077-1.9234285-1.76469231-3.3847347-1.76469231h-.7695102z" mask="url(#b)"/><path d="m74.8486408 13.4952923h1.076898c2.5388979 0 4.9230612-.9214615 4.9230612-4.2216923 0-3.37707692-2.3841633-4.14415385-4.9230612-4.14415385h-1.076898zm-1.9234286-9.97753845h3.1536735c3.6928163 0 6.6931429 1.7646923 6.6931429 5.75584615 0 3.9911538-2.9233062 5.8333846-6.6931429 5.8333846h-3.1536735z" mask="url(#b)"/><path d="m100.541886 28.8456231c-.6154697.3835384-1.3079595.5372307-2.1537962.5372307-2.538898 0-4.3075918-1.9190769-4.3075918-4.2985384 0-2.3019231 1.5383265-4.3746923 4.3075918-4.3746923.8458367 0 1.5383265.1536923 2.1537962.4603846l.922857-1.3811539c-.845837-.4603846-1.9227348-.7677692-3.0766532-.7677692-3.3847347 0-6.2310204 2.6868462-6.2310204 6.0632308 0 3.3777692 2.8462857 5.9870769 6.2310204 5.9870769 1.1539184 0 2.2308162-.2305385 3.1536732-.7677692z" mask="url(#b)"/><path d="m18.7699429 28.8456231c-.6154694.3835384-1.3079592.5372307-2.0767756.5372307-2.6159183 0-4.3853061-1.9190769-4.3853061-4.2985384 0-2.3019231 1.5383266-4.3746923 4.3853061-4.3746923.7688164 0 1.4613062.1536923 2.0767756.4603846l.9998775-1.3811539c-.9228571-.4603846-2.000449-.7677692-3.0766531-.7677692-3.4617551 0-6.2310204 2.6868462-6.2310204 6.0632308 0 3.3777692 2.7692653 5.9870769 6.2310204 5.9870769 1.0762041 0 2.153796-.2305385 3.0766531-.7677692z" mask="url(#b)"/><path d="m62.6944735 25.0845231c0-2.3026154-1.5383266-4.3746923-4.3075919-4.3746923-2.8462857 0-4.3853061 2.0720769-4.3853061 4.3746923 0 2.3794615 1.7693878 4.2978461 4.3853061 4.2978461 2.5382041 0 4.3075919-1.9183846 4.3075919-4.2978461m1.9234285 0c0 3.3770769-2.8469796 5.9870769-6.2310204 5.9870769-3.4617551 0-6.2310204-2.61-6.2310204-5.9870769s2.7692653-6.0632308 6.2310204-6.0632308c3.3840408 0 6.2310204 2.6861539 6.2310204 6.0632308" mask="url(#b)"/></g></g></svg>