<svg viewBox="0 0 36 36" fill="none" xmlns="http://www.w3.org/2000/svg">
<path fill-rule="evenodd" clip-rule="evenodd" d="M27.0021 20.335L22.9768 18L27.0021 15.665C27.4789 15.389 27.6411 14.777 27.3664 14.299L25.8733 11.701C25.5986 11.223 24.9905 11.059 24.5137 11.335L20.4884 13.67V9C20.4884 8.448 20.0425 8 19.4931 8H16.507C15.9576 8 15.5116 8.448 15.5116 9V13.67L11.4864 11.335C11.0106 11.059 10.4015 11.223 10.1257 11.701L8.6327 14.299C8.35898 14.777 8.52222 15.389 8.998 15.665L13.0232 18L8.998 20.335C8.52222 20.611 8.35898 21.223 8.6327 21.701L10.1257 24.299C10.4015 24.777 11.0106 24.941 11.4864 24.665L15.5116 22.33V27C15.5116 27.552 15.9576 28 16.507 28H19.4931C20.0425 28 20.4884 27.552 20.4884 27V22.33L24.5137 24.665C24.9905 24.941 25.5986 24.777 25.8733 24.299L27.3664 21.701C27.6411 21.223 27.4789 20.611 27.0021 20.335Z" fill="currentColor"/>
</svg>
