<svg viewBox="0 0 36 36" fill="none" xmlns="http://www.w3.org/2000/svg">
<g transform="scale(1.0285714285714285)">
<path d="M14.2246 27.0674H12.3252V26.0664H14.2246V27.0674ZM17.0742 27.0674H15.1748V26.0664H17.0742V27.0674ZM19.9248 27.0674H18.0244V26.0664H19.9248V27.0674ZM22.7744 27.0674H20.874V26.0664H22.7744V27.0674ZM9 25.0674H9.9502V26.0664H11.375V27.0664H9.27637C9.11919 27.0664 9 26.9366 9 26.7764V25.0674ZM26.0996 26.7764C26.0996 26.9418 25.9764 27.0664 25.8242 27.0664H23.7256V26.0664H25.1504V25.0674H26.0986V24.0674H25.1504V22.0674H26.0986V21.0674H25.1504V19.0674H26.0996V26.7764ZM25.1504 24.0674V25.0674H25.1484V24.0674H25.1504ZM19.7002 11.7666C19.7805 11.7667 19.8582 11.7987 19.915 11.8545L22.4111 14.3086C22.4679 14.3651 22.5 14.4414 22.5 14.5205V23.6201C22.499 23.9631 22.2517 24.2489 21.9229 24.3164L21.7773 24.332L12.9072 24.3672H12.9053C12.8243 24.3671 12.7469 24.3352 12.6895 24.2793C12.6326 24.2228 12.5997 24.1465 12.5996 24.0674V12.4795C12.6001 12.0863 12.9244 11.7672 13.3242 11.7666H19.7002ZM9 22.0674H9.9502V24.0674H9V22.0674ZM13.3242 12.3672C13.2617 12.3678 13.211 12.418 13.21 12.4795V23.7656L21.7744 23.7314C21.8375 23.732 21.8891 23.6822 21.8896 23.6201V14.8213H20.1172C19.7179 14.8208 19.3937 14.502 19.3936 14.1094V12.3672H13.3242ZM25.1504 21.0674V22.0674H25.1484V21.0674H25.1504ZM20.0264 21.3564C20.107 21.3564 20.1852 21.3883 20.2422 21.4443C20.2996 21.5009 20.332 21.5771 20.332 21.6563C20.3318 21.8222 20.1946 21.9561 20.0264 21.9561H14.4121C14.3301 21.9575 14.2513 21.9266 14.1924 21.8701C14.1339 21.8141 14.1006 21.7365 14.1006 21.6563C14.1006 21.5755 14.1339 21.4974 14.1924 21.4414C14.2513 21.3851 14.3302 21.355 14.4121 21.3564H20.0264ZM9.9502 19.0674V21.0674H9V19.0664L9.9502 19.0674ZM20.0264 19.5352C20.107 19.5352 20.1852 19.567 20.2422 19.623C20.2996 19.6795 20.332 19.7553 20.332 19.835C20.332 20.0005 20.1947 20.1348 20.0264 20.1348H14.4121C14.3302 20.1362 14.2513 20.1057 14.1924 20.0498C14.1339 19.9933 14.1006 19.9157 14.1006 19.835C14.1006 19.7543 14.1339 19.6766 14.1924 19.6201C14.2513 19.5639 14.3302 19.5337 14.4121 19.5352H20.0264ZM20.0264 17.7139C20.107 17.7139 20.1852 17.7457 20.2422 17.8018C20.2996 17.8582 20.332 17.934 20.332 18.0137C20.332 18.1792 20.1947 18.3135 20.0264 18.3135H14.4121C14.3302 18.3154 14.2513 18.2849 14.1924 18.2285C14.1339 18.172 14.1006 18.0944 14.1006 18.0137C14.1006 17.933 14.134 17.8563 14.1924 17.7998C14.2513 17.7433 14.3301 17.7124 14.4121 17.7139H20.0264ZM26.0996 15.5674V18.0674H25.1504V15.5674H26.0996ZM9.9502 15.5674V18.0674L9.00098 18.0664V15.5674H9.9502ZM18.0674 15.8926C18.1495 15.8911 18.2281 15.922 18.2871 15.9785C18.3456 16.0345 18.3789 16.1117 18.3789 16.1924C18.3789 16.2731 18.3456 16.3507 18.2871 16.4072C18.2281 16.4631 18.1494 16.4937 18.0674 16.4922H14.4121C14.3317 16.4921 14.2542 16.4602 14.1973 16.4043C14.1398 16.3483 14.1074 16.2716 14.1074 16.1924C14.1075 16.0265 14.244 15.8928 14.4121 15.8926H18.0674ZM9.00098 15.5674H9V14.5674H9.00098V15.5674ZM16.5049 14.0713C16.6706 14.0749 16.8036 14.2077 16.8037 14.3711C16.8037 14.5341 16.6706 14.6673 16.5049 14.6709H14.4121C14.3317 14.6708 14.2542 14.6394 14.1973 14.583C14.1398 14.527 14.1074 14.4504 14.1074 14.3711C14.1075 14.2058 14.244 14.0715 14.4121 14.0713H16.5049ZM9.9502 12.5664V14.5674H9.00098V12.5664H9.9502ZM26.0986 12.5674V14.5674H25.1494V12.5674H26.0986ZM20.0029 14.1094C20.0042 14.1708 20.0547 14.2202 20.1172 14.2207H21.458L20.0029 12.79V14.1094ZM9.00098 12.5664H9V11.5674H9.00098V12.5664ZM11.375 9.06738V10.0674H9.9502V11.5674H9.00098V9.35742C9.00098 9.19204 9.1243 9.06752 9.27637 9.06738H11.375ZM25.8242 9.06738C25.9814 9.06738 26.0996 9.19722 26.0996 9.35742V11.5674H25.1494V10.0674H23.7246V9.06738H25.8242ZM14.2256 9.06738V10.0674H12.3252V9.06738H14.2256ZM17.0752 9.06738V10.0674H15.1748V9.06738H17.0752ZM19.9248 9.06738V10.0674H18.0254V9.06738H19.9248ZM22.7754 9.06738V10.0674H20.875V9.06738H22.7754Z" fill="currentColor"/>
</g>
</svg>
