<svg viewBox="0 0 36 36" fill="none" xmlns="http://www.w3.org/2000/svg">
<g transform="scale(1.0285714285714285)">
<path d="M9 9.59961C9.22091 9.59961 9.40039 9.77909 9.40039 10V25.5996H11.2861V24.8574H11.4863V25.5996H13.5713V24.8574H13.7715V25.5996H15.8574V24.8574H16.0576V25.5996H18.1426V24.8574H18.3428V25.5996H20.4287V24.8574H20.6289V25.5996H22.7139V24.8574H22.9141V25.5996H25V24.8574H25.2002V25.5996H27.2861C27.5069 25.5998 27.6865 25.7792 27.6865 26C27.6865 26.2208 27.5069 26.4002 27.2861 26.4004H9C8.80687 26.4004 8.64588 26.2631 8.6084 26.0811L8.59961 26V10C8.59961 9.77909 8.77909 9.59961 9 9.59961ZM16.7139 16.9678C17.8666 16.9678 19.0155 17.1091 20.1338 17.3887L20.7568 17.5439L20.7695 17.5479L20.9502 17.6084C21.9843 17.9531 22.9246 18.534 23.6953 19.3047L24.5391 20.1484V18.9961C24.5392 18.8997 24.6175 18.8215 24.7139 18.8213C24.8104 18.8213 24.8895 18.8996 24.8896 18.9961V20.5713C24.8896 20.6679 24.8105 20.7461 24.7139 20.7461H23.1396C23.043 20.7461 22.9639 20.6679 22.9639 20.5713C22.964 20.4748 23.0431 20.3965 23.1396 20.3965H24.292L23.4473 19.5518C22.715 18.8196 21.8222 18.2679 20.8398 17.9404L20.667 17.8818L20.0488 17.7285C18.9583 17.4559 17.838 17.3174 16.7139 17.3174H11V16.9678H16.7139ZM11.3096 15.8496C11.3924 15.8496 11.46 15.9172 11.46 16C11.46 16.0828 11.3924 16.1504 11.3096 16.1504H11C10.9172 16.1504 10.8496 16.0828 10.8496 16C10.8496 15.9172 10.9172 15.8496 11 15.8496H11.3096ZM12.5479 15.8496C12.6306 15.8497 12.6973 15.9172 12.6973 16C12.6973 16.0828 12.6306 16.1503 12.5479 16.1504H11.9287C11.8459 16.1504 11.7783 16.0828 11.7783 16C11.7783 15.9172 11.8459 15.8496 11.9287 15.8496H12.5479ZM13.8438 15.8613C13.8978 15.884 13.9355 15.9377 13.9355 16C13.9355 16.0623 13.8978 16.116 13.8438 16.1387L13.7861 16.1504H13.167C13.0842 16.1504 13.0166 16.0828 13.0166 16C13.0166 15.9172 13.0842 15.8496 13.167 15.8496H13.7861L13.8438 15.8613ZM15.082 15.8613C15.136 15.884 15.1738 15.9378 15.1738 16C15.1738 16.0622 15.136 16.116 15.082 16.1387L15.0234 16.1504H14.4043C14.3217 16.1501 14.2549 16.0827 14.2549 16C14.2549 15.9173 14.3217 15.8499 14.4043 15.8496H15.0234L15.082 15.8613ZM16.3203 15.8613C16.3742 15.8841 16.4121 15.9378 16.4121 16C16.4121 16.0622 16.3742 16.1159 16.3203 16.1387L16.2617 16.1504H15.6426C15.5599 16.1502 15.4932 16.0827 15.4932 16C15.4932 15.9173 15.5599 15.8498 15.6426 15.8496H16.2617L16.3203 15.8613ZM17.5586 15.8613C17.6124 15.8841 17.6504 15.9379 17.6504 16C17.6504 16.0621 17.6124 16.1159 17.5586 16.1387L17.5 16.1504H16.8809C16.7981 16.1503 16.7305 16.0828 16.7305 16C16.7305 15.9172 16.7981 15.8497 16.8809 15.8496H17.5L17.5586 15.8613ZM18.7969 15.8613C18.8506 15.8841 18.8877 15.9379 18.8877 16C18.8877 16.0621 18.8506 16.1159 18.7969 16.1387L18.7383 16.1504H18.1191C18.0363 16.1504 17.9688 16.0828 17.9688 16C17.9688 15.9172 18.0363 15.8496 18.1191 15.8496H18.7383L18.7969 15.8613ZM20.0342 15.8613C20.0883 15.884 20.126 15.9377 20.126 16C20.126 16.0623 20.0883 16.116 20.0342 16.1387L19.9766 16.1504H19.3574C19.2746 16.1504 19.207 16.0828 19.207 16C19.207 15.9172 19.2746 15.8496 19.3574 15.8496H19.9766L20.0342 15.8613ZM21.2725 15.8613C21.3265 15.884 21.3643 15.9377 21.3643 16C21.3643 16.0623 21.3265 16.116 21.2725 16.1387L21.2139 16.1504H20.5957C20.5129 16.1504 20.4453 16.0828 20.4453 16C20.4453 15.9172 20.5129 15.8496 20.5957 15.8496H21.2139L21.2725 15.8613ZM22.5107 15.8613C22.5647 15.8841 22.6025 15.9378 22.6025 16C22.6025 16.0622 22.5647 16.1159 22.5107 16.1387L22.4521 16.1504H21.833C21.7503 16.1502 21.6836 16.0827 21.6836 16C21.6836 15.9173 21.7503 15.8498 21.833 15.8496H22.4521L22.5107 15.8613ZM23.749 15.8613C23.8029 15.8841 23.8408 15.9379 23.8408 16C23.8408 16.0621 23.8029 16.1159 23.749 16.1387L23.6904 16.1504H23.0713C22.9885 16.1503 22.9219 16.0828 22.9219 16C22.9219 15.9172 22.9885 15.8497 23.0713 15.8496H23.6904L23.749 15.8613ZM24.9873 15.8613C25.0411 15.8841 25.0781 15.9379 25.0781 16C25.0781 16.0621 25.0411 16.1159 24.9873 16.1387L24.9287 16.1504H24.3096C24.2267 16.1504 24.1592 16.0828 24.1592 16C24.1592 15.9172 24.2267 15.8496 24.3096 15.8496H24.9287L24.9873 15.8613ZM25.916 15.8613C25.9697 15.8842 26.0068 15.938 26.0068 16C26.0068 16.062 25.9697 16.1158 25.916 16.1387L25.8574 16.1504H25.5479C25.465 16.1504 25.3975 16.0828 25.3975 16C25.3975 15.9172 25.465 15.8496 25.5479 15.8496H25.8574L25.916 15.8613Z" fill="currentColor"/>
</g>
</svg>
