<svg viewBox="0 0 36 36" fill="none" xmlns="http://www.w3.org/2000/svg">
<path d="M22 17C23.66 17 24.99 15.66 24.99 14C24.99 12.34 23.66 11 22 11C20.34 11 19 12.34 19 14C19 15.66 20.34 17 22 17ZM14 17C15.66 17 16.99 15.66 16.99 14C16.99 12.34 15.66 11 14 11C12.34 11 11 12.34 11 14C11 15.66 12.34 17 14 17ZM14 19C11.67 19 7 20.17 7 22.5V25H21V22.5C21 20.17 16.33 19 14 19ZM22 19C21.71 19 21.38 19.02 21.03 19.05C22.19 19.89 23 21.02 23 22.5V25H29V22.5C29 20.17 24.33 19 22 19Z" fill="currentColor"/>
</svg>
