<svg viewBox="0 0 36 36" fill="none" xmlns="http://www.w3.org/2000/svg">
<path d="M13.8333 23C12.9167 23 12.175 23.75 12.175 24.6667C12.175 25.5833 12.9167 26.3333 13.8333 26.3333C14.75 26.3333 15.5 25.5833 15.5 24.6667C15.5 23.75 14.75 23 13.8333 23ZM8.83334 9.66666V11.3333H10.5L13.5 17.6583L12.375 19.7C12.2417 19.9333 12.1667 20.2083 12.1667 20.5C12.1667 21.4167 12.9167 22.1667 13.8333 22.1667H23.8333V20.5H14.1833C14.0667 20.5 13.975 20.4083 13.975 20.2917L14 20.1917L14.75 18.8333H20.9583C21.5833 18.8333 22.1333 18.4917 22.4167 17.975L25.4 12.5667C25.4667 12.45 25.5 12.3083 25.5 12.1667C25.5 11.7083 25.125 11.3333 24.6667 11.3333H12.3417L11.5583 9.66666H8.83334ZM22.1667 23C21.25 23 20.5083 23.75 20.5083 24.6667C20.5083 25.5833 21.25 26.3333 22.1667 26.3333C23.0833 26.3333 23.8333 25.5833 23.8333 24.6667C23.8333 23.75 23.0833 23 22.1667 23Z" fill="currentColor"/>
</svg>
