<svg viewBox="0 0 36 36" fill="none" xmlns="http://www.w3.org/2000/svg">
<path fill-rule="evenodd" clip-rule="evenodd" d="M25 14C25.6295 14 26.2223 14.2964 26.6 14.8L29 18V23H27C27 24.66 25.66 26 24 26C22.34 26 21 24.66 21 23H15C15 24.66 13.66 26 12 26C10.34 26 9 24.66 9 23H7V12C7 10.9 7.9 10 9 10H21C22.1046 10 23 10.8954 23 12V14H25ZM10.5 23C10.5 23.83 11.17 24.5 12 24.5C12.83 24.5 13.5 23.83 13.5 23C13.5 22.17 12.83 21.5 12 21.5C11.17 21.5 10.5 22.17 10.5 23ZM25.0133 15.5C25.3205 15.5 25.6107 15.6412 25.8003 15.883L27.46 18H23V15.5H25.0133ZM22.5 23C22.5 23.83 23.17 24.5 24 24.5C24.83 24.5 25.5 23.83 25.5 23C25.5 22.17 24.83 21.5 24 21.5C23.17 21.5 22.5 22.17 22.5 23Z" fill="currentColor"/>
</svg>
