<svg viewBox="0 0 36 36" fill="none" xmlns="http://www.w3.org/2000/svg">
<g transform="scale(1.0285714285714285)">
<path d="M17.4229 18.54C17.6278 18.5401 17.833 18.6418 17.9502 18.8447L20.0186 22.4268C20.2525 22.8324 19.9595 23.3395 19.4912 23.3398H15.3545C14.8858 23.3398 14.5929 22.8326 14.8271 22.4268L16.8955 18.8447C17.0128 18.642 17.2178 18.5401 17.4229 18.54ZM15.627 22.5732H19.2178L17.4229 19.4648L15.627 22.5732ZM9.45312 16.9316L24.4697 16.9512L26.3115 16.9541C26.5595 16.9546 26.7599 17.1557 26.7598 17.4033C26.7595 17.6516 26.5578 17.853 26.3096 17.8525L7.61133 17.8281C7.36304 17.8279 7.16171 17.6259 7.16211 17.3779C7.16238 17.1297 7.36411 16.9282 7.6123 16.9287L9.45312 16.9316ZM9.32617 11.8809C10.6108 11.8809 11.6523 12.9224 11.6523 14.207C11.6522 15.4915 10.6106 16.5329 9.32617 16.5332C8.0416 16.5332 7.00015 15.4916 7 14.207C7 12.9224 8.04155 11.8809 9.32617 11.8809ZM24.2324 11.8809C25.4811 11.881 26.4929 12.893 26.4932 14.1416C26.4932 15.3905 25.4812 16.4032 24.2324 16.4033C22.9835 16.4033 21.9707 15.3905 21.9707 14.1416C21.9709 12.8929 22.9837 11.8809 24.2324 11.8809ZM24.2324 12.6475C23.4084 12.6475 22.7376 13.3176 22.7373 14.1416C22.7373 14.9658 23.4082 15.6367 24.2324 15.6367C25.0565 15.6366 25.7266 14.9659 25.7266 14.1416C25.7263 13.3177 25.0563 12.6476 24.2324 12.6475Z" fill="currentColor"/>
</g>
</svg>
