<svg viewBox="0 0 36 36" fill="none" xmlns="http://www.w3.org/2000/svg">
<g transform="translate(0,0)">
<path d="M9 9H27C28.1046 9 29 9.8954 29 11V21C29 22.1046 28.1046 23 27 23H20L15 28V23H9C7.8954 23 7 22.1046 7 21V11C7 9.8954 7.8954 9 9 9Z" stroke="currentColor" stroke-width="1.4" stroke-linejoin="round"/>
<path d="M15.4 14.6C15.4 13.16 16.56 12 18 12C19.44 12 20.6 13.16 20.6 14.6C20.6 15.7 19.95 16.45 19.2 16.95C18.55 17.4 18 17.85 18 18.6V19" stroke="currentColor" stroke-width="1.3" stroke-linecap="round"/>
<circle cx="18" cy="20.7" r="0.9" fill="currentColor"/>
</g>
</svg>
