<svg xmlns="http://www.w3.org/2000/svg" width="36" height="36" fill="none"><path fill="#000" fill-rule="evenodd" d="M10.116 22.581a.45.45 0 0 0 .765-.32v-1.635a8.867 8.867 0 0 0 5.403-2.563q.448-.449.827-.95v9.074h-1.595a.44.44 0 0 0-.311.756l2.482 2.491a.44.44 0 0 0 .632 0l2.482-2.482a.45.45 0 0 0-.32-.765H18.89v-9.075a8.95 8.95 0 0 0 3.656 2.858 8.8 8.8 0 0 0 2.574.656v1.635c0 .4.48.596.765.32l2.482-2.483a.44.44 0 0 0 0-.631l-2.491-2.483a.44.44 0 0 0-.756.311v1.54a7.093 7.093 0 0 1-4.144-2.03 7.1 7.1 0 0 1-2.086-5.033v-4.45a.89.89 0 1 0-1.778 0v4.45a7.093 7.093 0 0 1-2.085 5.033 7.1 7.1 0 0 1-4.145 2.03v-1.539a.44.44 0 0 0-.756-.312l-2.491 2.483a.44.44 0 0 0 0 .631z" clip-rule="evenodd"/><rect width="30" height="30" x="3" y="3" stroke="#000" stroke-width="2" rx="3"/></svg>