<svg xmlns="http://www.w3.org/2000/svg" width="36" height="36" fill="none"><path fill="#000" stroke="#000" stroke-width="2" d="M31.856 8.845 19 1.423a2 2 0 0 0-2 0L4.144 8.845a2 2 0 0 0-1 1.732v14.846a2 2 0 0 0 1 1.732L17 34.577a2 2 0 0 0 2 0l12.856-7.422a2 2 0 0 0 1-1.732V10.577a2 2 0 0 0-1-1.732Z"/><path fill="#fff" fill-rule="evenodd" d="M23 8a2 2 0 1 1-.001 4.001A2 2 0 0 1 23 8M18.02 21.46H23v4a1 1 0 0 0 2 0v-4.5c0-1.1-.9-2-2-2h-1.86l1.67-3.67c.61-1.33-.37-2.83-1.85-2.83h-5.2c-.81 0-1.54.47-1.87 1.2l-.29.778a1 1 0 0 0 .672 1.313l.024.006a1 1 0 0 0 1.187-.573l.307-.724H18l-1.83 4.1z" clip-rule="evenodd"/><path fill="#fff" fill-rule="evenodd" d="M15 17.46a5 5 0 0 0-5 5 5 5 0 0 0 5 5 5 5 0 0 0 5-5 5 5 0 0 0-5-5m0 2c1.654 0 3 1.346 3 3s-1.346 3-3 3-3-1.346-3-3 1.346-3 3-3" clip-rule="evenodd"/></svg>