<svg xmlns="http://www.w3.org/2000/svg" width="36" height="36" fill="none"><path fill="#000" stroke="#000" stroke-width="2" d="M31.856 8.845 19 1.423a2 2 0 0 0-2 0L4.144 8.845a2 2 0 0 0-1 1.732v14.846a2 2 0 0 0 1 1.732L17 34.577a2 2 0 0 0 2 0l12.856-7.422a2 2 0 0 0 1-1.732V10.577a2 2 0 0 0-1-1.732Z"/><mask id="a" width="5" height="5" x="23" y="8" mask-type="alpha" maskUnits="userSpaceOnUse"><path fill="#fff" fill-rule="evenodd" d="M23.041 8H28v4.958H23.04z" clip-rule="evenodd"/></mask><g mask="url(#a)"><path fill="#fff" fill-rule="evenodd" d="m27.62 9.295-.916-.916a1.294 1.294 0 0 0-1.83 0l-1.833 1.832 2.748 2.747 1.831-1.83a1.295 1.295 0 0 0 0-1.833" clip-rule="evenodd"/></g><mask id="b" width="17" height="17" x="8" y="11" mask-type="alpha" maskUnits="userSpaceOnUse"><path fill="#fff" fill-rule="evenodd" d="M8 11.127h16.873V28H8z" clip-rule="evenodd"/></mask><g mask="url(#b)"><path fill="#fff" fill-rule="evenodd" d="M9.515 23.737a1.3 1.3 0 0 0-.312.506L8.007 27.83a.13.13 0 0 0 .164.164l3.585-1.195c.192-.064.364-.17.507-.313l12.61-12.61-2.748-2.748z" clip-rule="evenodd"/></g></svg>