<svg xmlns="http://www.w3.org/2000/svg" width="36" height="36" fill="none"><path fill="#000" fill-rule="evenodd" d="M22.889 10a3.111 3.111 0 1 0 0 6.222 3.111 3.111 0 0 0 0-6.222m0 1.778c.356 0 .69.139.943.39.252.252.39.587.39.943s-.138.691-.39.943-.587.39-.943.39c-.355 0-.69-.138-.942-.39a1.33 1.33 0 0 1-.391-.943 1.328 1.328 0 0 1 1.333-1.333M13.111 10a3.111 3.111 0 1 0 0 6.222 3.111 3.111 0 0 0 0-6.222m0 1.778c.356 0 .691.139.942.39.252.252.391.587.391.943s-.139.691-.39.943a1.32 1.32 0 0 1-.943.39c-.356 0-.69-.138-.943-.39a1.32 1.32 0 0 1-.39-.943 1.329 1.329 0 0 1 1.333-1.333M22.889 19.778a3.111 3.111 0 1 0 0 6.222 3.111 3.111 0 0 0 0-6.222m0 1.778c.356 0 .69.139.943.39.252.252.39.587.39.943s-.138.69-.39.943c-.252.252-.587.39-.943.39-.355 0-.69-.138-.942-.39a1.33 1.33 0 0 1-.391-.943 1.328 1.328 0 0 1 1.333-1.333M13.111 19.778a3.111 3.111 0 1 0 0 6.222 3.111 3.111 0 0 0 0-6.222m0 1.778c.356 0 .691.139.942.39.252.252.391.587.391.943s-.139.69-.39.943a1.32 1.32 0 0 1-.943.39c-.356 0-.69-.138-.943-.39a1.32 1.32 0 0 1-.39-.943 1.329 1.329 0 0 1 1.333-1.333M18 16.222a1.778 1.778 0 1 0 0 3.556 1.778 1.778 0 0 0 0-3.556" clip-rule="evenodd"/><path fill="#000" fill-rule="evenodd" d="m16.869 17.875-3.053 3.052 1.257 1.258 3.053-3.053zM20.927 13.816l-3.052 3.053 1.257 1.257 3.053-3.053z" clip-rule="evenodd"/><path fill="#000" fill-rule="evenodd" d="m19.132 17.875-1.257 1.256 3.052 3.053 1.258-1.257zM15.073 13.816l-1.257 1.257 3.053 3.053 1.257-1.257zM17.11 27.067h-1.591a.44.44 0 0 0-.311.755l2.48 2.489a.44.44 0 0 0 .63 0l2.48-2.48a.45.45 0 0 0-.32-.764h-1.59" clip-rule="evenodd"/><path fill="#000" fill-rule="evenodd" d="M17.111 25.111v1.778a.889.889 0 1 0 1.778 0v-1.778a.889.889 0 1 0-1.778 0M17.111 6.445v4.444a.889.889 0 1 0 1.778 0V6.445a.889.889 0 1 0-1.778 0" clip-rule="evenodd"/><rect width="32" height="32" x="2" y="2" stroke="#000" stroke-width="2" rx="16"/></svg>