<svg xmlns="http://www.w3.org/2000/svg" width="36" height="36" fill="none"><path fill="#000" fill-rule="evenodd" d="m15.396 14.127 1.291 3.55h-2.904zm1.937 5.328 1.198 3.293a.89.89 0 1 0 1.671-.607l-3.879-10.667a.889.889 0 0 0-1.645-.064L9.83 22.077a.888.888 0 1 0 1.618.736l1.527-3.358zM23.333 10.889a.89.89 0 0 0-.889.889v10.667a.89.89 0 0 0 1.779 0V11.778a.89.89 0 0 0-.89-.89M20.479 27.067h-1.59V25.11a.889.889 0 1 0-1.777 0v1.956h-1.593a.44.44 0 0 0-.312.755l2.48 2.489a.44.44 0 0 0 .631 0l2.48-2.48a.45.45 0 0 0-.32-.764M18 10a.89.89 0 0 0 .889-.889V6.444a.889.889 0 0 0-1.778 0v2.667c0 .491.398.889.889.889" clip-rule="evenodd"/><rect width="32" height="32" x="2" y="2" stroke="#000" stroke-width="2" rx="16"/></svg>