<svg xmlns="http://www.w3.org/2000/svg" width="36" height="36" fill="none"><path stroke="#000" stroke-width="2" d="M31.856 8.845 19 1.423a2 2 0 0 0-2 0L4.144 8.845a2 2 0 0 0-1 1.732v14.846a2 2 0 0 0 1 1.732L17 34.577a2 2 0 0 0 2 0l12.856-7.422a2 2 0 0 0 1-1.732V10.577a2 2 0 0 0-1-1.732Z"/><path fill="#000" fill-rule="evenodd" d="M10.197 15.074a1 1 0 1 1 0-2h12.001a1.001 1.001 0 0 0 0-2.001 1 1 0 1 1 0-2 2.98 2.98 0 0 1 2.122.878q.415.415.643.954c.156.37.235.763.235 1.169a3 3 0 0 1-3 3zM20.198 27.075a1 1 0 0 1 0-2 1 1 0 0 0 0-2H10.197a1.001 1.001 0 0 1 0-2h10a2.98 2.98 0 0 1 2.122.878c.275.275.492.597.644.953a3 3 0 0 1 .235 1.169 2.99 2.99 0 0 1-1.831 2.764c-.371.157-.765.236-1.17.236" clip-rule="evenodd"/><path fill="#000" fill-rule="evenodd" d="M25.198 22.075a1 1 0 0 1 1.001-1 1.001 1.001 0 0 0 0-2.001H10.797a1 1 0 0 1 0-2h15.402a3.004 3.004 0 0 1 3 3.001 3.004 3.004 0 0 1-3 3 1 1 0 0 1-1-1" clip-rule="evenodd"/></svg>