<svg xmlns="http://www.w3.org/2000/svg" xml:space="preserve" viewBox="0 0 36 36"><path d="M31.9 8.8 19 1.4c-.6-.4-1.4-.4-2 0L4.1 8.8c-.6.4-1 1-1 1.7v14.8c0 .7.4 1.4 1 1.7L17 34.6c.6.4 1.4.4 2 0l12.9-7.4c.6-.4 1-1 1-1.7V10.6c0-.7-.4-1.4-1-1.8z" style="fill:none;stroke:#000;stroke-width:2"/><path d="M17.1 24.5 12.7 22q-.45-.3-.6-.6c-.2-.3-.2-.6-.2-.9v-5c0-.3.1-.6.2-.9q.3-.45.6-.6l4.4-2.5c.3-.2.6-.2.9-.2s.6.1.9.2l4.4 2.5q.45.3.6.6c.2.3.2.6.2.9v5c0 .3-.1.6-.2.9s-.4.5-.6.6l-4.4 2.5c-.3.2-.6.2-.9.2-.3.1-.6 0-.9-.2m0-2v-4l-3.5-2v4zm1.8 0 3.5-2v-4l-3.5 2zm-9.7-8.9V11c0-.5.2-.9.5-1.2s.8-.5 1.2-.5h2.6V11H11v2.6zm4.4 13.2H11c-.5 0-.9-.2-1.2-.5s-.5-.8-.5-1.2v-2.6H11V25h2.6zm8.8 0V25H25v-2.6h1.8V25c0 .5-.2.9-.5 1.2s-.8.5-1.2.5h-2.7zM25 13.6V11h-2.6V9.2H25c.5 0 .9.2 1.2.5s.5.8.5 1.2v2.6H25zM18 17l3.5-2-3.5-2-3.5 2z"/></svg>