<svg xmlns="http://www.w3.org/2000/svg" width="36" height="36" fill="none"><path fill="#000" stroke="#000" stroke-width="2" d="M31.856 8.845 19 1.423a2 2 0 0 0-2 0L4.144 8.845a2 2 0 0 0-1 1.732v14.846a2 2 0 0 0 1 1.732L17 34.577a2 2 0 0 0 2 0l12.856-7.422a2 2 0 0 0 1-1.732V10.577a2 2 0 0 0-1-1.732Z"/><mask id="a" width="19" height="20" x="9" y="8" mask-type="alpha" maskUnits="userSpaceOnUse"><path fill="#fff" fill-rule="evenodd" d="M9 8h18.878v20H9z" clip-rule="evenodd"/></mask><g mask="url(#a)"><path fill="#fff" fill-rule="evenodd" d="M24.334 15.271a1.653 1.653 0 0 1-2.232-.711 1.653 1.653 0 0 1 .711-2.231 1.653 1.653 0 0 1 2.232.711c.421.813.103 1.81-.71 2.231m-4.97-2.402a1.655 1.655 0 0 1-2.233-.71 1.655 1.655 0 0 1 .711-2.233 1.654 1.654 0 0 1 2.232.711 1.654 1.654 0 0 1-.71 2.232m-4.905 2.536a1.654 1.654 0 0 1-2.232-.711 1.653 1.653 0 0 1 .711-2.232 1.655 1.655 0 0 1 2.231.71 1.655 1.655 0 0 1-.71 2.233m-.915 5.444a1.653 1.653 0 0 1-2.23-.71 1.654 1.654 0 0 1 .71-2.232 1.653 1.653 0 0 1 2.231.711c.421.813.104 1.81-.71 2.231m.832-11.616c-4.875 2.519-6.785 8.517-4.265 13.392s8.517 6.784 13.392 4.263a1.654 1.654 0 0 0 .711-2.232 1.67 1.67 0 0 0-.895-.793 1.66 1.66 0 0 1-.875-.779 1.653 1.653 0 0 1 .711-2.231l1.736-.897a5.524 5.524 0 0 0 2.37-7.441c-2.242-4.335-8.01-5.803-12.885-3.282" clip-rule="evenodd"/></g></svg>