<?xml version="1.0" encoding="utf-8"?>
<!-- Generator: Adobe Illustrator 28.1.0, SVG Export Plug-In . SVG Version: 6.00 Build 0)  -->
<svg version="1.1" id="Layer_1" xmlns="http://www.w3.org/2000/svg" xmlns:xlink="http://www.w3.org/1999/xlink" x="0px" y="0px"
	 viewBox="0 0 36 36" style="enable-background:new 0 0 36 36;" xml:space="preserve">
<style type="text/css">
	.st0{fill:none;stroke:#000000;stroke-width:2;}
</style>
<path class="st0" d="M31.9,8.8L19,1.4c-0.6-0.4-1.4-0.4-2,0L4.1,8.8c-0.6,0.4-1,1-1,1.7v14.8c0,0.7,0.4,1.4,1,1.7L17,34.6
	c0.6,0.4,1.4,0.4,2,0l12.9-7.4c0.6-0.4,1-1,1-1.7V10.6C32.9,9.9,32.5,9.2,31.9,8.8z"/>
<path d="M17.1,24.5L12.7,22c-0.3-0.2-0.5-0.4-0.6-0.6c-0.2-0.3-0.2-0.6-0.2-0.9v-5c0-0.3,0.1-0.6,0.2-0.9c0.2-0.3,0.4-0.5,0.6-0.6
	l4.4-2.5c0.3-0.2,0.6-0.2,0.9-0.2c0.3,0,0.6,0.1,0.9,0.2l4.4,2.5c0.3,0.2,0.5,0.4,0.6,0.6c0.2,0.3,0.2,0.6,0.2,0.9v5
	c0,0.3-0.1,0.6-0.2,0.9s-0.4,0.5-0.6,0.6l-4.4,2.5c-0.3,0.2-0.6,0.2-0.9,0.2C17.7,24.8,17.4,24.7,17.1,24.5z M17.1,22.5v-4l-3.5-2v4
	L17.1,22.5z M18.9,22.5l3.5-2v-4l-3.5,2V22.5z M9.2,13.6V11c0-0.5,0.2-0.9,0.5-1.2c0.3-0.3,0.8-0.5,1.2-0.5h2.6V11H11v2.6H9.2z
	 M13.6,26.8H11c-0.5,0-0.9-0.2-1.2-0.5c-0.3-0.3-0.5-0.8-0.5-1.2v-2.6H11V25h2.6V26.8z M22.4,26.8V25H25v-2.6h1.8V25
	c0,0.5-0.2,0.9-0.5,1.2c-0.3,0.3-0.8,0.5-1.2,0.5H22.4z M25,13.6V11h-2.6V9.2H25c0.5,0,0.9,0.2,1.2,0.5s0.5,0.8,0.5,1.2v2.6H25z
	 M18,17l3.5-2L18,13l-3.5,2L18,17z"/>
</svg>
