<svg xmlns="http://www.w3.org/2000/svg" width="36" height="36" fill="none"><path fill="#000" fill-rule="evenodd" d="M16.273 22.379a.864.864 0 0 1 0-1.727.865.865 0 0 1 0 1.727m1.832-2.696a2.58 2.58 0 0 0-1.832-.757 2.57 2.57 0 0 0-1.831.757 2.59 2.59 0 0 0-.556 2.841 2.58 2.58 0 0 0 1.378 1.378c.32.136.66.204 1.01.204a2.584 2.584 0 0 0 2.59-2.59q-.001-.527-.205-1.009a2.6 2.6 0 0 0-.554-.824M23.18 20.652a.864.864 0 0 1 0 1.727.865.865 0 0 1 0-1.727m-1.832 2.696a2.6 2.6 0 0 0 1.833.758 2.57 2.57 0 0 0 1.831-.758 2.6 2.6 0 0 0 .759-1.833 2.588 2.588 0 0 0-3.6-2.386c-.307.13-.585.317-.823.554a2.57 2.57 0 0 0-.757 1.832c0 .35.067.69.203 1.01.13.308.318.584.554.823M11.092 18.926a.863.863 0 0 0-.863.863v3.453a.863.863 0 0 0 1.726 0v-3.454a.863.863 0 0 0-.863-.863M12.82 15.472a.864.864 0 0 1 0-1.728.865.865 0 0 1 0 1.728m1.83.968a2.58 2.58 0 0 0 .76-1.832 2.59 2.59 0 0 0-1.582-2.386 2.6 2.6 0 0 0-1.009-.203 2.57 2.57 0 0 0-1.831.757 2.6 2.6 0 0 0-.759 1.832 2.595 2.595 0 0 0 2.59 2.59 2.57 2.57 0 0 0 1.832-.758M23.18 13.744a.864.864 0 0 1 0 1.728.865.865 0 0 1 0-1.727m-1.832 2.696a2.6 2.6 0 0 0 1.833.758 2.57 2.57 0 0 0 1.831-.758 2.59 2.59 0 0 0 .556-2.84 2.6 2.6 0 0 0-1.378-1.378 2.6 2.6 0 0 0-1.01-.205 2.605 2.605 0 0 0-1.833.758 2.57 2.57 0 0 0-.757 1.832c0 .35.068.69.204 1.01.13.308.318.585.554.823M17.137 12.88v3.455a.863.863 0 0 0 1.727 0v-3.454a.864.864 0 0 0-1.727 0" clip-rule="evenodd"/><rect width="32" height="32" x="2" y="2" stroke="#000" stroke-width="2" rx="16"/></svg>