<svg xmlns="http://www.w3.org/2000/svg" width="36" height="36"><g fill="none" fill-rule="evenodd"><path fill="#000" fill-rule="nonzero" d="M22.842 11.725a.4.4 0 0 1-.192-.05c-1.6-.825-2.983-1.175-4.642-1.175-1.65 0-3.216.392-4.641 1.175a.424.424 0 0 1-.567-.167.42.42 0 0 1 .167-.566 10.46 10.46 0 0 1 5.041-1.275c1.775 0 3.325.391 5.025 1.266a.41.41 0 0 1 .175.559.41.41 0 0 1-.366.233M10.917 16.1a.416.416 0 0 1-.342-.658 8.6 8.6 0 0 1 3.125-2.725c2.617-1.35 5.967-1.359 8.592-.009 1.25.642 2.3 1.55 3.125 2.709a.417.417 0 0 1-.1.583.416.416 0 0 1-.584-.1 7.8 7.8 0 0 0-2.825-2.45c-2.391-1.225-5.45-1.225-7.833.008a7.9 7.9 0 0 0-2.833 2.467.36.36 0 0 1-.325.175m5.208 10.058a.4.4 0 0 1-.292-.125c-.725-.725-1.116-1.191-1.675-2.2-.575-1.025-.875-2.275-.875-3.616 0-2.475 2.117-4.492 4.717-4.492s4.717 2.017 4.717 4.492a.413.413 0 0 1-.417.416.413.413 0 0 1-.417-.416c0-2.017-1.741-3.659-3.883-3.659s-3.883 1.642-3.883 3.659c0 1.2.266 2.308.775 3.208.533.958.9 1.367 1.541 2.017a.43.43 0 0 1 0 .591.46.46 0 0 1-.308.125m5.975-1.541c-.992 0-1.867-.25-2.583-.742-1.242-.842-1.984-2.208-1.984-3.658 0-.234.184-.417.417-.417s.417.183.417.417c0 1.175.6 2.283 1.616 2.966.592.4 1.284.592 2.117.592.2 0 .533-.025.867-.083a.415.415 0 0 1 .483.341.415.415 0 0 1-.342.484 5.7 5.7 0 0 1-1.008.1m-1.675 1.716a.5.5 0 0 1-.108-.016c-1.325-.367-2.192-.859-3.1-1.75a6.08 6.08 0 0 1-1.809-4.35c0-1.35 1.15-2.45 2.567-2.45s2.567 1.1 2.567 2.45c0 .891.775 1.616 1.733 1.616s1.733-.725 1.733-1.616c0-3.142-2.708-5.692-6.041-5.692-2.367 0-4.534 1.317-5.509 3.358-.325.675-.491 1.467-.491 2.334 0 .65.058 1.675.558 3.008a.407.407 0 0 1-.242.533.413.413 0 0 1-.533-.241 9.3 9.3 0 0 1-.608-3.3c0-1 .191-1.909.566-2.7 1.109-2.325 3.567-3.834 6.259-3.834 3.791 0 6.875 2.925 6.875 6.525 0 1.35-1.15 2.45-2.567 2.45s-2.567-1.1-2.567-2.45c0-.891-.775-1.616-1.733-1.616s-1.733.725-1.733 1.616c0 1.425.55 2.759 1.558 3.759.792.783 1.55 1.216 2.725 1.541.225.059.35.292.292.509a.41.41 0 0 1-.392.316"/><path d="M8 8h20v20H8z"/><path stroke="#000" stroke-width="2" d="M33 25.362c0 .813-.433 1.564-1.136 1.97l-12.727 7.362a2.27 2.27 0 0 1-2.274 0L4.135 27.333A2.28 2.28 0 0 1 3 25.362V10.638c0-.813.433-1.563 1.136-1.97l12.728-7.364a2.27 2.27 0 0 1 2.273 0l12.726 7.363A2.28 2.28 0 0 1 33 10.637z"/></g></svg>