<svg xmlns="http://www.w3.org/2000/svg" width="36" height="36" fill="none"><path fill="#000" fill-rule="evenodd" d="M13 16.395a1.67 1.67 0 0 1-1.668-1.667A1.67 1.67 0 0 1 13 13.061a1.67 1.67 0 0 1 1.667 1.667A1.67 1.67 0 0 1 13 16.395m2.356-4.024A3.3 3.3 0 0 0 13 11.395a3.32 3.32 0 0 0-2.357.976 3.32 3.32 0 0 0-.976 2.357 3.31 3.31 0 0 0 .976 2.357c.306.306.662.547 1.06.714.411.175.847.263 1.297.263s.886-.088 1.298-.263a3.3 3.3 0 0 0 1.06-.714q.312-.313.53-.69h8.78a1.667 1.667 0 0 0 0-3.334h-8.78a3.3 3.3 0 0 0-.53-.69M23 23.063a1.67 1.67 0 0 1-1.666-1.668c0-.918.748-1.665 1.667-1.665s1.667.747 1.667 1.665A1.67 1.67 0 0 1 23 23.063m2.358-4.024A3.3 3.3 0 0 0 23 18.062a3.31 3.31 0 0 0-2.357.976 3.3 3.3 0 0 0-.531.692h-8.78a1.666 1.666 0 1 0 0 3.332h8.78q.218.378.53.69A3.312 3.312 0 0 0 23 24.73a3.32 3.32 0 0 0 2.358-.976 3.313 3.313 0 0 0 .977-2.357 3.32 3.32 0 0 0-.977-2.358" clip-rule="evenodd"/><rect width="32" height="32" x="2" y="2" stroke="#000" stroke-width="2" rx="16"/></svg>