<svg xmlns="http://www.w3.org/2000/svg" xml:space="preserve" viewBox="0 0 36 36"><path d="M31.9 8.8 19 1.4c-.6-.4-1.4-.4-2 0L4.1 8.8c-.6.4-1 1-1 1.7v14.8c0 .7.4 1.4 1 1.7L17 34.6c.6.4 1.4.4 2 0l12.9-7.4c.6-.4 1-1 1-1.7V10.6c0-.7-.4-1.4-1-1.8z" style="fill:none;stroke:#000;stroke-width:2"/><path d="M12.8 19h6.9v-1.7h-6.9zm0-2.6h10.4v-1.7H12.8zm0-2.6h10.4v-1.7H12.8zM9.3 26V10.3c0-.5.2-.9.5-1.2s.7-.5 1.2-.5h13.9c.5 0 .9.2 1.2.5s.5.7.5 1.2v10.4c0 .5-.2.9-.5 1.2s-.7.5-1.2.5H12.8zm2.8-5.3H25V10.3H11.1v11.4zm-1 0V10.3z"/></svg>