<svg xmlns="http://www.w3.org/2000/svg" width="36" height="36" fill="none"><path fill="#000" fill-rule="evenodd" d="M17.68 18.767a.45.45 0 0 0 .646 0l2.542-2.542a.46.46 0 0 0-.328-.783h-1.63V6.15a.911.911 0 1 0-1.82 0v9.292h-1.633a.45.45 0 0 0-.319.774z" clip-rule="evenodd"/><mask id="a" fill="#fff"><path fill-rule="evenodd" d="M25.748 21c.165-.64.252-1.31.252-2h8v11a4 4 0 0 1-4 4H6a4 4 0 0 1-4-4V19h8c0 .69.088 1.36.252 2H4v9a2 2 0 0 0 2 2h24a2 2 0 0 0 2-2v-9h-6.252" clip-rule="evenodd"/></mask><path fill="#000" d="M26 19v-1h-1v1zm-.252 2-.969-.25-.321 1.25h1.29zM34 19h1v-1h-1zM2 19v-1H1v1zm8 0h1v-1h-1zm.252 2v1h1.29l-.322-1.25zM4 21v-1H3v1zm28 0h1v-1h-1zm-7-2c0 .606-.077 1.192-.22 1.75l1.936.5c.186-.72.284-1.475.284-2.25zm1 1h6v-2h-6zm6 0h2v-2h-2zm1-1v2h2v-2zm0 2v9h2v-9zm0 9a3 3 0 0 1-3 3v2a5 5 0 0 0 5-5zm-3 3H6v2h24zM6 33a3 3 0 0 1-3-3H1a5 5 0 0 0 5 5zm-3-3v-9H1v9zm0-9v-2H1v2zm-1-1h2v-2H2zm2 0h6v-2H4zm7.22.75A7 7 0 0 1 11 19H9c0 .775.098 1.53.284 2.25zm-.968-.75H6v2h4.252zM6 20H4v2h2zm-3 1v2h2v-2zm0 2v7h2v-7zm0 7a3 3 0 0 0 3 3v-2a1 1 0 0 1-1-1zm3 3h24v-2H6zm24 0a3 3 0 0 0 3-3h-2a1 1 0 0 1-1 1zm3-3v-7h-2v7zm0-7v-2h-2v2zm-1-3h-2v2h2zm-2 0h-4.252v2H30z" mask="url(#a)"/><path stroke="#000" stroke-width="2" d="M26 19a8 8 0 1 1-16 0"/><rect width="30" height="30" x="3" y="3" stroke="#000" stroke-width="2" rx="3"/></svg>