<svg xmlns="http://www.w3.org/2000/svg" width="36" height="36" fill="none"><path fill="#000" stroke="#000" stroke-width="2" d="M31.856 8.845 19 1.423a2 2 0 0 0-2 0L4.144 8.845a2 2 0 0 0-1 1.732v14.846a2 2 0 0 0 1 1.732L17 34.577a2 2 0 0 0 2 0l12.856-7.422a2 2 0 0 0 1-1.732V10.577a2 2 0 0 0-1-1.732Z"/><path fill="#fff" d="M13.833 23c-.916 0-1.658.75-1.658 1.667 0 .916.742 1.666 1.658 1.666.917 0 1.667-.75 1.667-1.666 0-.917-.75-1.667-1.667-1.667m-5-13.333v1.666H10.5l3 6.325-1.125 2.042a1.6 1.6 0 0 0-.208.8c0 .917.75 1.667 1.666 1.667h10V20.5h-9.65a.206.206 0 0 1-.208-.208l.025-.1.75-1.359h6.208c.625 0 1.175-.341 1.459-.858l2.983-5.408a.836.836 0 0 0-.733-1.233H12.342l-.784-1.667zM22.167 23c-.917 0-1.659.75-1.659 1.667 0 .916.742 1.666 1.659 1.666.916 0 1.666-.75 1.666-1.666 0-.917-.75-1.667-1.666-1.667"/></svg>