<svg xmlns="http://www.w3.org/2000/svg" width="36" height="36" fill="none"><path fill="#000" stroke="#000" stroke-width="2" d="M31.856 8.845 19 1.423a2 2 0 0 0-2 0L4.144 8.845a2 2 0 0 0-1 1.732v14.846a2 2 0 0 0 1 1.732L17 34.577a2 2 0 0 0 2 0l12.856-7.422a2 2 0 0 0 1-1.732V10.577a2 2 0 0 0-1-1.732Z"/><path fill="#fff" fill-rule="evenodd" d="m7 15 2 2c4.97-4.97 13.03-4.97 18 0l2-2c-6.07-6.07-15.92-6.07-22 0m8 8 3 3 3-3a4.237 4.237 0 0 0-6 0m-2-2-2-2c3.87-3.86 10.14-3.86 14 0l-2 2a7.074 7.074 0 0 0-10 0" clip-rule="evenodd"/></svg>