<svg xmlns="http://www.w3.org/2000/svg" width="36" height="36" fill="none"><path fill="#000" fill-rule="evenodd" d="M18.886 27.965a.886.886 0 1 1-1.772 0 .886.886 0 0 1 1.772 0M20.658 26.193a.886.886 0 1 1-1.772 0 .886.886 0 0 1 1.772 0M17.114 26.193a.886.886 0 1 1-1.772 0 .886.886 0 0 1 1.772 0M22.43 24.42a.885.885 0 1 1-1.771.002.885.885 0 0 1 1.77-.001M15.343 24.42a.886.886 0 1 1-1.773 0 .886.886 0 0 1 1.772 0M18.886 19.106a.886.886 0 1 1-1.772 0 .886.886 0 0 1 1.772 0M18.886 21.763a.886.886 0 1 1-1.772 0 .886.886 0 0 1 1.772 0M18.886 24.42a.886.886 0 1 1-1.772 0 .886.886 0 0 1 1.772 0M18 17.113a.886.886 0 0 1-.886-.886v-8.86a.886.886 0 0 1 1.772 0v8.86c0 .489-.397.886-.886.886" clip-rule="evenodd"/><rect width="32" height="32" x="2" y="2" stroke="#000" stroke-width="2" rx="16"/></svg>