<svg xmlns="http://www.w3.org/2000/svg" width="36" height="36" fill="none"><path fill="#000" stroke="#000" stroke-width="2" d="M31.856 8.845 19 1.423a2 2 0 0 0-2 0L4.144 8.845a2 2 0 0 0-1 1.732v14.846a2 2 0 0 0 1 1.732L17 34.577a2 2 0 0 0 2 0l12.856-7.422a2 2 0 0 0 1-1.732V10.577a2 2 0 0 0-1-1.732Z"/><path fill="#fff" d="m14.75 19.117 2.358-2.359-5.85-5.841a3.34 3.34 0 0 0 0 4.716zm5.65-1.509c1.275.592 3.067.175 4.392-1.15 1.591-1.591 1.9-3.875.675-5.1-1.217-1.216-3.5-.916-5.1.675-1.325 1.325-1.742 3.117-1.15 4.392l-8.134 8.133 1.175 1.175L18 20.008l5.733 5.734 1.175-1.175-5.733-5.734z"/></svg>