<svg width="36" height="36" viewBox="0 0 36 36" fill="none" xmlns="http://www.w3.org/2000/svg">
<path d="M17.1172 1.35938C17.7131 1.06622 18.4198 1.08788 19 1.42285L31.8564 8.8457L31.9697 8.91602C32.5213 9.28553 32.8564 9.90743 32.8564 10.5771V25.4229C32.8564 26.0926 32.5213 26.7145 31.9697 27.084L31.8564 27.1543L19 34.5771C18.4198 34.9121 17.7131 34.9338 17.1172 34.6406L17 34.5771L4.14355 27.1543C3.52493 26.797 3.14363 26.1372 3.14355 25.4229V10.5771C3.14363 9.86277 3.52493 9.20296 4.14355 8.8457L17 1.42285L17.1172 1.35938Z" fill="black" stroke="black" stroke-width="2"/>
<path d="M12.9474 17.65L17.5789 10L22.2105 17.65H12.9474ZM22.2105 27C21.1579 27 20.2632 26.6281 19.5263 25.8844C18.7895 25.1406 18.4211 24.2375 18.4211 23.175C18.4211 22.1125 18.7895 21.2094 19.5263 20.4656C20.2632 19.7219 21.1579 19.35 22.2105 19.35C23.2632 19.35 24.1579 19.7219 24.8947 20.4656C25.6316 21.2094 26 22.1125 26 23.175C26 24.2375 25.6316 25.1406 24.8947 25.8844C24.1579 26.6281 23.2632 27 22.2105 27ZM10 26.575V19.775H16.7368V26.575H10ZM22.2105 25.3C22.8 25.3 23.2982 25.0946 23.7053 24.6838C24.1123 24.2729 24.3158 23.77 24.3158 23.175C24.3158 22.58 24.1123 22.0771 23.7053 21.6663C23.2982 21.2554 22.8 21.05 22.2105 21.05C21.6211 21.05 21.1228 21.2554 20.7158 21.6663C20.3088 22.0771 20.1053 22.58 20.1053 23.175C20.1053 23.77 20.3088 24.2729 20.7158 24.6838C21.1228 25.0946 21.6211 25.3 22.2105 25.3ZM11.6842 24.875H15.0526V21.475H11.6842V24.875ZM15.9368 15.95H19.2211L17.5789 13.2725L15.9368 15.95Z" fill="white"/>
</svg>
