<svg width="36" height="36" viewBox="0 0 36 36" fill="none" xmlns="http://www.w3.org/2000/svg">
<path d="M17.1172 1.35938C17.7131 1.06622 18.4198 1.08788 19 1.42285L31.8564 8.8457L31.9697 8.91602C32.5213 9.28553 32.8564 9.90743 32.8564 10.5771V25.4229C32.8564 26.0926 32.5213 26.7145 31.9697 27.084L31.8564 27.1543L19 34.5771C18.4198 34.9121 17.7131 34.9338 17.1172 34.6406L17 34.5771L4.14355 27.1543C3.52493 26.797 3.14363 26.1372 3.14355 25.4229V10.5771C3.14363 9.86277 3.52493 9.20296 4.14355 8.8457L17 1.42285L17.1172 1.35938Z" fill="black" stroke="black" stroke-width="2"/>
<path d="M12.6996 17.2005C13.0327 17.6587 13.6743 17.7602 14.1325 17.427C14.5908 17.0938 14.6922 16.4523 14.3591 15.994C14.0259 15.5357 13.3844 15.4343 12.9261 15.7675C12.4678 16.1006 12.3664 16.7422 12.6996 17.2005Z" fill="white"/>
<path d="M14.6996 19.2005C15.0327 19.6587 15.6742 19.7602 16.1325 19.427C16.5908 19.0939 16.6922 18.4523 16.3591 17.994C16.0259 17.5357 15.3844 17.4343 14.9261 17.7675C14.4678 18.1007 14.3664 18.7422 14.6996 19.2005Z" fill="white"/>
<path d="M11.6996 20.2005C12.0327 20.6587 12.6743 20.7601 13.1326 20.427C13.5909 20.0938 13.6922 19.4523 13.3591 18.994C13.0259 18.5357 12.3844 18.4343 11.9261 18.7674C11.4678 19.1006 11.3664 19.7422 11.6996 20.2005Z" fill="white"/>
<path d="M15.6996 16.2005C16.0327 16.6587 16.6743 16.7602 17.1325 16.427C17.5908 16.0938 17.6922 15.4523 17.3591 14.994C17.0259 14.5357 16.3844 14.4343 15.9261 14.7675C15.4678 15.1006 15.3664 15.7422 15.6996 16.2005Z" fill="white"/>
<path d="M10.6996 22.2005C11.0327 22.6588 11.6743 22.7602 12.1326 22.427C12.5908 22.0939 12.6923 21.4523 12.3591 20.994C12.0259 20.5357 11.3844 20.4343 10.9261 20.7675C10.4678 21.1006 10.3664 21.7422 10.6996 22.2005Z" fill="white"/>
<path d="M24.025 22.05C24.5901 22.05 25.05 21.5902 25.05 21.025C25.05 20.4598 24.5903 20 24.025 20C23.4599 20 23 20.4598 23 21.025C23 21.5901 23.4599 22.05 24.025 22.05ZM24.025 20.2929C24.4286 20.2929 24.7571 20.6214 24.7571 21.0251C24.7571 21.4288 24.4285 21.7573 24.025 21.7573C23.6212 21.7573 23.2929 21.4288 23.2929 21.0251C23.293 20.6214 23.6213 20.2929 24.025 20.2929Z" fill="white"/>
<path d="M9 11L9 27" stroke="white" stroke-linecap="round"/>
<path d="M25 27.5C25.2761 27.5 25.5 27.2761 25.5 27C25.5 26.7239 25.2761 26.5 25 26.5V27.5ZM25 27V26.5L9 26.5V27V27.5L25 27.5V27Z" fill="white"/>
</svg>
