<svg width="36" height="36" viewBox="0 0 36 36" fill="none" xmlns="http://www.w3.org/2000/svg">
<path d="M17.1172 1.35938C17.7131 1.06622 18.4198 1.08788 19 1.42285L31.8564 8.8457L31.9697 8.91602C32.5213 9.28553 32.8564 9.90743 32.8564 10.5771V25.4229C32.8564 26.0926 32.5213 26.7145 31.9697 27.084L31.8564 27.1543L19 34.5771C18.4198 34.9121 17.7131 34.9338 17.1172 34.6406L17 34.5771L4.14355 27.1543C3.52493 26.797 3.14363 26.1372 3.14355 25.4229V10.5771C3.14363 9.86277 3.52493 9.20296 4.14355 8.8457L17 1.42285L17.1172 1.35938Z" fill="black" stroke="black" stroke-width="2"/>
<path d="M20.54 25L19.35 23.7807L21.56 21.5163L19.35 19.2519L20.54 18.0327L22.75 20.297L24.96 18.0327L26.15 19.2519L23.94 21.5163L26.15 23.7807L24.96 25L22.75 22.7356L20.54 25ZM22.2188 17.1617L19.2013 14.07L20.3913 12.8507L22.1975 14.7014L25.81 11L27 12.2411L22.2188 17.1617ZM10 22.3872V20.6454H17.65V22.3872H10ZM10 15.4199V13.6781H17.65V15.4199H10Z" fill="white"/>
</svg>
