<svg width="36" height="36" viewBox="0 0 36 36" fill="none" xmlns="http://www.w3.org/2000/svg">
<path d="M17.1172 1.35938C17.7131 1.06622 18.4198 1.08788 19 1.42285L31.8564 8.8457L31.9697 8.91602C32.5213 9.28553 32.8564 9.90743 32.8564 10.5771V25.4229C32.8564 26.0926 32.5213 26.7145 31.9697 27.084L31.8564 27.1543L19 34.5771C18.4198 34.9121 17.7131 34.9338 17.1172 34.6406L17 34.5771L4.14355 27.1543C3.52493 26.797 3.14363 26.1372 3.14355 25.4229V10.5771C3.14363 9.86277 3.52493 9.20296 4.14355 8.8457L17 1.42285L17.1172 1.35938Z" fill="black" stroke="black" stroke-width="2"/>
<path d="M17.0463 18.0353C16.7692 18.0353 16.5117 18.1115 16.2809 18.234V15.8174H13.756C13.8368 16.037 13.8839 16.2757 13.8839 16.5266C13.8839 17.5778 13.1031 18.4303 12.1402 18.4303C11.1769 18.4303 10.3965 17.5778 10.3965 16.5266C10.3965 16.2753 10.4432 16.037 10.5244 15.8174H8V23.7288H16.281V21.3113C16.5118 21.4338 16.7693 21.5097 17.0464 21.5097C17.9755 21.5097 18.728 20.7318 18.728 19.7728C18.728 18.8131 17.9755 18.0352 17.0464 18.0352L17.0463 18.0353Z" fill="white"/>
<path d="M25.5827 15.4478C25.7056 15.217 25.7815 14.9599 25.7815 14.6824C25.7815 13.7533 25.0028 13 24.0449 13C23.0845 13 22.3066 13.7533 22.3066 14.6824C22.3066 14.9599 22.3824 15.217 22.5058 15.4478H20.0892V17.9722C20.3079 17.8922 20.5475 17.8443 20.7979 17.8443C21.8491 17.8443 22.702 18.6247 22.702 19.5884C22.702 20.5513 21.8491 21.3321 20.7979 21.3321C20.5471 21.3321 20.3079 21.2854 20.0892 21.2038V23.729L28 23.729V15.4476L25.5827 15.4478Z" fill="white"/>
</svg>
