<svg width="36" height="36" viewBox="0 0 36 36" fill="none" xmlns="http://www.w3.org/2000/svg">
<path d="M17.1172 1.35938C17.7131 1.06622 18.4198 1.08788 19 1.42285L31.8564 8.8457L31.9697 8.91602C32.5213 9.28553 32.8564 9.90743 32.8564 10.5771V25.4229C32.8564 26.0926 32.5213 26.7145 31.9697 27.084L31.8564 27.1543L19 34.5771C18.4198 34.9121 17.7131 34.9338 17.1172 34.6406L17 34.5771L4.14355 27.1543C3.52493 26.797 3.14363 26.1372 3.14355 25.4229V10.5771C3.14363 9.86277 3.52493 9.20296 4.14355 8.8457L17 1.42285L17.1172 1.35938Z" fill="black" stroke="black" stroke-width="2"/>
<path d="M8 25V22.8333H14.5V25H8ZM8 19.5833V17.4167H21V19.5833H8ZM8 14.1667V12H27.5V14.1667H8Z" fill="white"/>
</svg>
