<svg width="36" height="36" viewBox="0 0 36 36" fill="none" xmlns="http://www.w3.org/2000/svg">
<path d="M17.1172 1.35938C17.7131 1.06622 18.4198 1.08788 19 1.42285L31.8564 8.8457L31.9697 8.91602C32.5213 9.28553 32.8564 9.90743 32.8564 10.5771V25.4229C32.8564 26.0926 32.5213 26.7145 31.9697 27.084L31.8564 27.1543L19 34.5771C18.4198 34.9121 17.7131 34.9338 17.1172 34.6406L17 34.5771L4.14355 27.1543C3.52493 26.797 3.14363 26.1372 3.14355 25.4229V10.5771C3.14363 9.86277 3.52493 9.20296 4.14355 8.8457L17 1.42285L17.1172 1.35938Z" fill="black" stroke="black" stroke-width="2"/>
<path d="M11.06 21.6842C10.9491 21.5733 10.8936 21.4069 10.9121 21.2589C11.0045 20.205 11.2449 19.188 11.6147 18.2081C12.077 16.9877 13.1494 16.0817 14.4067 15.8043C14.8875 16.0448 15.4237 16.1742 15.9969 16.1742C16.5701 16.1742 17.1063 16.0447 17.587 15.8043C18.678 16.0448 19.6209 16.7473 20.1572 17.7273C20.3051 17.45 20.5825 17.2466 20.8968 17.1726C20.3605 16.2481 19.51 15.527 18.5115 15.1387C19.1772 14.4916 19.584 13.5855 19.584 12.5871C19.584 10.6086 17.9754 9 15.9969 9C14.0185 9 12.4098 10.6086 12.4098 12.5871C12.4098 13.5856 12.8166 14.4916 13.4823 15.1387C12.262 15.6194 11.245 16.5994 10.7643 17.8752C10.3575 18.9291 10.1171 20.0386 10.0062 21.1665C9.96923 21.5732 10.0986 21.9801 10.376 22.2944C10.6533 22.5902 11.0416 22.7751 11.4484 22.7751H16.5517L16.5516 21.8691H11.4854C11.319 21.8691 11.1711 21.8136 11.0601 21.6841L11.06 21.6842ZM13.3343 12.6056C13.3343 11.1264 14.5362 9.92453 16.0154 9.92453C17.4946 9.92453 18.6964 11.1264 18.6964 12.6056C18.6964 14.0848 17.4946 15.2867 16.0154 15.2867C14.5362 15.2867 13.3343 14.0663 13.3343 12.6056Z" fill="white"/>
<path d="M25.7967 21.4993L24.9831 21.4069C24.9091 21.148 24.8166 20.8891 24.6688 20.6673L25.1865 20.0386C25.2605 19.9461 25.2605 19.7982 25.1681 19.7243L24.3545 18.9107C24.262 18.8183 24.1326 18.8183 24.0402 18.8922L23.4115 19.41C23.1896 19.2806 22.9308 19.1696 22.6719 19.0957L22.5794 18.2821C22.561 18.1527 22.4685 18.0603 22.339 18.0603H21.1741C21.0447 18.0603 20.9523 18.1527 20.9337 18.2821L20.8413 19.0957C20.5824 19.1697 20.3235 19.2621 20.1017 19.41L19.473 18.8922C19.3806 18.8183 19.2326 18.8183 19.1587 18.9107L18.3451 19.7243C18.2527 19.8167 18.2527 19.9461 18.3266 20.0386L18.8444 20.6673C18.715 20.8891 18.604 21.148 18.5301 21.4069L17.698 21.4993C17.5686 21.5178 17.4762 21.6102 17.4762 21.7397V22.9046C17.4762 23.034 17.5686 23.1265 17.698 23.145L18.5116 23.2375C18.5856 23.4964 18.6781 23.7552 18.8259 23.9771L18.3082 24.6058C18.2342 24.6982 18.2342 24.8462 18.3267 24.9201L19.1402 25.7336C19.2327 25.8261 19.3621 25.8261 19.4545 25.7521L20.0832 25.2344C20.3236 25.3638 20.5639 25.4748 20.8228 25.5487L20.9153 26.3622C20.9337 26.4916 21.0262 26.5841 21.1557 26.5841H22.3206C22.45 26.5841 22.5424 26.4916 22.561 26.3622L22.6534 25.5487C22.9123 25.4747 23.1712 25.3822 23.393 25.2344L24.0217 25.7521C24.1141 25.8261 24.2621 25.8261 24.336 25.7336L25.1496 24.9201C25.242 24.8276 25.242 24.6982 25.1681 24.6058L24.6503 23.9771C24.7797 23.7552 24.8907 23.4964 24.9646 23.2375L25.7782 23.145C25.9076 23.1265 26 23.0341 26 22.9046V21.7397C26 21.6103 25.9076 21.5178 25.7967 21.4993ZM21.7473 23.9585C20.8413 23.9585 20.1017 23.2189 20.1017 22.3129C20.1017 21.4069 20.8413 20.6673 21.7473 20.6673C22.6534 20.6673 23.3929 21.4069 23.3929 22.3129C23.3929 23.2374 22.6533 23.9585 21.7473 23.9585Z" fill="white"/>
</svg>
