<svg xmlns="http://www.w3.org/2000/svg" width="36" height="36" fill="none"><path fill="#000" fill-rule="evenodd" d="M17.688 21.422a.44.44 0 0 0 .63 0l2.48-2.48a.45.45 0 0 0-.32-.765h-1.59V7.333a.889.889 0 1 0-1.777 0v10.844h-1.593a.44.44 0 0 0-.31.756zM10.889 25.111h14.223a.889.889 0 0 0 0-1.778H10.889a.889.889 0 1 0 0 1.778M18 26.889a.89.89 0 0 0-.889.889v.889a.889.889 0 1 0 1.778 0v-.89A.89.89 0 0 0 18 26.89" clip-rule="evenodd"/><rect width="30" height="30" x="3" y="3" stroke="#000" stroke-width="2" rx="3"/></svg>