<svg xmlns="http://www.w3.org/2000/svg" width="36" height="36" fill="none"><path fill="#000" stroke="#000" stroke-width="2" d="M31.856 8.845 19 1.423a2 2 0 0 0-2 0L4.144 8.845a2 2 0 0 0-1 1.732v14.846a2 2 0 0 0 1 1.732L17 34.577a2 2 0 0 0 2 0l12.856-7.422a2 2 0 0 0 1-1.732V10.577a2 2 0 0 0-1-1.732Z"/><mask id="a" width="18" height="18" x="9" y="9" mask-type="alpha" maskUnits="userSpaceOnUse"><path fill="#fff" fill-rule="evenodd" d="M9 9h18v18H9z" clip-rule="evenodd"/></mask><g mask="url(#a)"><path fill="#fff" fill-rule="evenodd" d="M26.979 9.41a.41.41 0 0 0-.39-.39c-.392-.02-9.651-.434-13.699 3.614-2.519 2.519-2.841 6.417-.965 9.289l-2.632 2.632a1 1 0 0 0 0 1.415l.738.737a1 1 0 0 0 1.415 0l2.632-2.632c2.872 1.876 6.769 1.555 9.289-.965C27.415 19.062 27 9.804 26.979 9.41" clip-rule="evenodd"/></g></svg>