<?xml version="1.0" encoding="utf-8"?>
<!-- Generator: Adobe Illustrator 27.7.0, SVG Export Plug-In . SVG Version: 6.00 Build 0)  -->
<svg version="1.1" id="Layer_1" xmlns="http://www.w3.org/2000/svg" xmlns:xlink="http://www.w3.org/1999/xlink" x="0px" y="0px"
	 viewBox="0 0 36 36" style="enable-background:new 0 0 36 36;" xml:space="preserve">
<style type="text/css">
	.st0{fill:none;stroke:#000000;stroke-width:2;}
</style>
<path class="st0" d="M31.9,8.8L19,1.4c-0.6-0.4-1.4-0.4-2,0L4.1,8.8c-0.6,0.4-1,1-1,1.7v14.8c0,0.7,0.4,1.4,1,1.7L17,34.6
	c0.6,0.4,1.4,0.4,2,0l12.9-7.4c0.6-0.4,1-1,1-1.7V10.6C32.9,9.9,32.5,9.2,31.9,8.8z"/>
<path d="M13.6,24.2l2-3.2h-1.2v-2.4l-2,3.2h1.2V24.2z M10.8,16.2h6.3V11h-6.3V16.2z M10.8,25h6.3v-7.1h-6.3V25z M9.1,26.7V11
	c0-0.4,0.2-0.8,0.5-1.2c0.3-0.3,0.7-0.5,1.2-0.5h6.3c0.4,0,0.8,0.2,1.2,0.5c0.3,0.3,0.5,0.7,0.5,1.2v6.8h1.6c0.3,0,0.6,0.1,0.9,0.4
	c0.2,0.2,0.4,0.5,0.4,0.9v5.2c0,0.3,0.1,0.6,0.4,0.8c0.3,0.2,0.6,0.3,0.9,0.3c0.3,0,0.7-0.1,0.9-0.3c0.3-0.2,0.4-0.4,0.4-0.8v-8.8
	h-0.4c-0.2,0-0.4-0.1-0.6-0.2c-0.2-0.2-0.2-0.4-0.2-0.6v-2.5h0.6v-1.4h0.9v1.4h0.9v-1.4h0.9v1.4h0.6v2.5c0,0.2-0.1,0.4-0.2,0.6
	c-0.2,0.2-0.4,0.2-0.6,0.2h-0.5v8.8c0,0.7-0.3,1.3-0.8,1.8c-0.6,0.5-1.2,0.7-1.9,0.7c-0.7,0-1.3-0.2-1.8-0.7
	c-0.5-0.5-0.8-1.1-0.8-1.7v-5.2c0,0,0,0.1,0,0.1c0,0,0,0,0.1,0h-1.6v7.5H9.1z M17.1,25h-6.3H17.1z"/>
</svg>
