<svg xmlns="http://www.w3.org/2000/svg" width="36" height="36" fill="none"><path fill="#000" stroke="#000" stroke-width="2" d="M31.856 8.845 19 1.423a2 2 0 0 0-2 0L4.144 8.845a2 2 0 0 0-1 1.732v14.846a2 2 0 0 0 1 1.732L17 34.577a2 2 0 0 0 2 0l12.856-7.422a2 2 0 0 0 1-1.732V10.577a2 2 0 0 0-1-1.732Z"/><path fill="#fff" fill-rule="evenodd" d="M27.002 20.335 22.977 18l4.025-2.335c.477-.276.64-.888.364-1.366l-1.493-2.598a.993.993 0 0 0-1.36-.366l-4.025 2.335V9c0-.552-.445-1-.995-1h-2.986a1 1 0 0 0-.995 1v4.67l-4.026-2.335a.995.995 0 0 0-1.36.366l-1.493 2.598c-.274.478-.11 1.09.365 1.366L13.023 18l-4.025 2.335a1.004 1.004 0 0 0-.365 1.366l1.493 2.598a.995.995 0 0 0 1.36.366l4.026-2.335V27c0 .552.446 1 .995 1h2.986c.55 0 .995-.448.995-1v-4.67l4.026 2.335a.993.993 0 0 0 1.36-.366l1.492-2.598a1 1 0 0 0-.364-1.366" clip-rule="evenodd"/></svg>