<svg xmlns="http://www.w3.org/2000/svg" width="36" height="36" fill="none"><path fill="#000" fill-rule="evenodd" d="M14.5 23.337h7V17.65h-7zm1.458-8.458c0-.545.213-1.058.598-1.444A2.03 2.03 0 0 1 18 12.837c.545 0 1.058.212 1.444.598s.598.899.598 1.444v1.02h-4.084zm6.417 1.02h-.583v-1.02a3.78 3.78 0 0 0-1.11-2.681 3.8 3.8 0 0 0-1.813-1.01 1 1 0 0 0 .006-.101V6.711a.875.875 0 0 0-1.75 0v4.376q0 .05.006.1-.31.073-.608.198a3.8 3.8 0 0 0-2.315 3.494v1.02h-.583a.875.875 0 0 0-.875.876v7.438c0 .483.39.875.875.875h3.5v1.75h-1.567a.433.433 0 0 0-.306.744l2.44 2.45a.433.433 0 0 0 .622 0l2.441-2.442a.443.443 0 0 0-.315-.752h-1.565v-1.75h3.5a.875.875 0 0 0 .875-.876v-7.437a.875.875 0 0 0-.875-.875" clip-rule="evenodd"/><rect width="32" height="32" x="2" y="2" stroke="#000" stroke-width="2" rx="16"/></svg>