<svg xmlns="http://www.w3.org/2000/svg" width="36" height="36" fill="none"><path fill="#000" stroke="#000" stroke-width="2" d="M31.856 8.845 19 1.423a2 2 0 0 0-2 0L4.144 8.845a2 2 0 0 0-1 1.732v14.846a2 2 0 0 0 1 1.732L17 34.577a2 2 0 0 0 2 0l12.856-7.422a2 2 0 0 0 1-1.732V10.577a2 2 0 0 0-1-1.732Z"/><path fill="#fff" fill-rule="evenodd" d="M27.661 24.967 13.825 11.13l-2.659 2.658 13.836 13.836a1 1 0 0 0 1.414 0l1.245-1.245a1 1 0 0 0 0-1.413" clip-rule="evenodd"/><mask id="a" width="8" height="8" x="14" y="8" mask-type="alpha" maskUnits="userSpaceOnUse"><path fill="#fff" fill-rule="evenodd" d="M14.711 8h7.04v7.04h-7.04z" clip-rule="evenodd"/></mask><g mask="url(#a)"><path fill="#fff" fill-rule="evenodd" d="M21.458 13.088a1 1 0 0 0 0-1.413l-3.382-3.382a1 1 0 0 0-1.413 0l-1.952 1.95 4.795 4.797z" clip-rule="evenodd"/></g><path fill="#fff" fill-rule="evenodd" d="M11.71 21.422a1 1 0 0 0 1.415 0l1.95-1.951-4.795-4.796-1.951 1.952a1 1 0 0 0 0 1.413z" clip-rule="evenodd"/><mask id="b" width="11" height="2" x="8" y="26" mask-type="alpha" maskUnits="userSpaceOnUse"><path fill="#fff" fill-rule="evenodd" d="M8 26.001h10.995V28H8z" clip-rule="evenodd"/></mask><g mask="url(#b)"><path fill="#fff" fill-rule="evenodd" d="M17.995 26.001H9A1 1 0 1 0 9 28h8.995a1 1 0 1 0 0-1.999" clip-rule="evenodd"/></g></svg>