<svg xmlns="http://www.w3.org/2000/svg" width="36" height="36" fill="none"><path fill="#000" stroke="#000" stroke-width="2" d="M31.856 8.845 19 1.423a2 2 0 0 0-2 0L4.144 8.845a2 2 0 0 0-1 1.732v14.846a2 2 0 0 0 1 1.732L17 34.577a2 2 0 0 0 2 0l12.856-7.422a2 2 0 0 0 1-1.732V10.577a2 2 0 0 0-1-1.732Z"/><mask id="a" width="18" height="18" x="9" y="9" mask-type="alpha" maskUnits="userSpaceOnUse"><path fill="#fff" fill-rule="evenodd" d="M9 9h17.842v18H9z" clip-rule="evenodd"/></mask><g mask="url(#a)"><path fill="#fff" fill-rule="evenodd" d="M17.842 9A9 9 0 0 0 9 16.312h8.842v-1.636c0-.537.644-.799 1.025-.43l3.327 3.326a.59.59 0 0 1 0 .847l-3.34 3.326c-.368.382-1.012.119-1.012-.417v-1.64H9A9.002 9.002 0 0 0 26.842 18a9 9 0 0 0-9-9" clip-rule="evenodd"/></g></svg>