<svg xmlns="http://www.w3.org/2000/svg" xml:space="preserve" viewBox="0 0 36 36"><path d="M31.9 8.8 19 1.4c-.6-.4-1.4-.4-2 0L4.1 8.8c-.6.4-1 1-1 1.7v14.8c0 .7.4 1.4 1 1.7L17 34.6c.6.4 1.4.4 2 0l12.9-7.4c.6-.4 1-1 1-1.7V10.6c0-.7-.4-1.4-1-1.8z" style="fill:none;stroke:#000;stroke-width:2"/><path d="m13.6 24.2 2-3.2h-1.2v-2.4l-2 3.2h1.2zm-2.8-8h6.3V11h-6.3zm0 8.8h6.3v-7.1h-6.3zm-1.7 1.7V11c0-.4.2-.8.5-1.2.3-.3.7-.5 1.2-.5h6.3c.4 0 .8.2 1.2.5.3.3.5.7.5 1.2v6.8h1.6c.3 0 .6.1.9.4.2.2.4.5.4.9v5.2c0 .3.1.6.4.8q.45.3.9.3c.3 0 .7-.1.9-.3.3-.2.4-.4.4-.8v-8.8h-.4c-.2 0-.4-.1-.6-.2-.2-.2-.2-.4-.2-.6v-2.5h.6v-1.4h.9v1.4h.9v-1.4h.9v1.4h.6v2.5c0 .2-.1.4-.2.6-.2.2-.4.2-.6.2h-.5v8.8c0 .7-.3 1.3-.8 1.8-.6.5-1.2.7-1.9.7s-1.3-.2-1.8-.7-.8-1.1-.8-1.7v-5.2.1h.1-1.6v7.5H9.1zm8-1.7h-6.3z"/></svg>