<svg xmlns="http://www.w3.org/2000/svg" xml:space="preserve" viewBox="0 0 36 36"><path d="M31.9 8.8 19 1.4c-.6-.4-1.4-.4-2 0L4.1 8.8c-.6.4-1 1-1 1.7v14.8c0 .7.4 1.4 1 1.7L17 34.6c.6.4 1.4.4 2 0l12.9-7.4c.6-.4 1-1 1-1.7V10.6c0-.7-.4-1.4-1-1.8z" style="fill:#36b2e6;stroke:#36b2e6;stroke-width:2"/><path d="M18 18c-1.1 0-2.1-.4-2.8-1.1s-1.1-1.6-1.1-2.8.4-2.1 1.1-2.8 1.6-1.1 2.8-1.1c1.1 0 2.1.4 2.8 1.1s1.1 1.6 1.1 2.8-.4 2.1-1.1 2.8S19.1 18 18 18m-8 10.5v-2.6c0-.7.2-1.2.5-1.7s.7-.8 1.2-1.1c1.1-.5 2.2-.9 3.2-1.1s2.1-.4 3.1-.4 2.1.1 3.1.4 2.1.6 3.2 1.1c.5.2 1 .6 1.3 1.1s.5 1 .5 1.7v2.6zm1.7-1.7h12.6v-.9c0-.3-.1-.5-.2-.7s-.3-.4-.5-.5c-1-.5-2-.8-2.9-1q-1.35-.3-2.7-.3t-2.7.3c-.9.2-1.8.5-2.9 1-.2.1-.4.3-.5.5s-.2.4-.2.7zM18 16.2q.9 0 1.5-.6t.6-1.5-.6-1.5T18 12t-1.5.6c-.6.6-.6.9-.6 1.5q0 .9.6 1.5c.6.6.9.6 1.5.6m-4.9 4.6c-.5 0-.9-.2-1.2-.5s-.5-.8-.5-1.2V16h1.7v3h3.1v1.7h-3.1zm6.7 0V19h3.1v-3.1h1.8V19c0 .5-.2.9-.5 1.2s-.8.5-1.2.5h-3.2zm-8.4-8.4V9.3c0-.5.2-.9.5-1.2s.8-.5 1.2-.5h3.1v1.8h-3.1v3.1h-1.7zm11.5 0V9.3h-3.1V7.5h3.1c.5 0 .9.2 1.2.5s.5.8.5 1.2v3.1h-1.7z"/></svg>