<?xml version="1.0" encoding="utf-8"?>
<!-- Generator: Adobe Illustrator 27.4.1, SVG Export Plug-In . SVG Version: 6.00 Build 0)  -->
<svg version="1.1" id="Layer_1" xmlns="http://www.w3.org/2000/svg" xmlns:xlink="http://www.w3.org/1999/xlink" x="0px" y="0px"
	 viewBox="0 0 36 36" style="enable-background:new 0 0 36 36;" xml:space="preserve">
<style type="text/css">
	.st0{fill:#36B2E6;stroke:#36B2E6;stroke-width:2;}
</style>
<path class="st0" d="M31.9,8.8L19,1.4c-0.6-0.4-1.4-0.4-2,0L4.1,8.8c-0.6,0.4-1,1-1,1.7v14.8c0,0.7,0.4,1.4,1,1.7L17,34.6
	c0.6,0.4,1.4,0.4,2,0l12.9-7.4c0.6-0.4,1-1,1-1.7V10.6C32.9,9.9,32.5,9.2,31.9,8.8z"/>
<path d="M18,18c-1.1,0-2.1-0.4-2.8-1.1c-0.7-0.7-1.1-1.6-1.1-2.8s0.4-2.1,1.1-2.8c0.7-0.7,1.6-1.1,2.8-1.1c1.1,0,2.1,0.4,2.8,1.1
	c0.7,0.7,1.1,1.6,1.1,2.8s-0.4,2.1-1.1,2.8C20.1,17.6,19.1,18,18,18z M10,28.5v-2.6c0-0.7,0.2-1.2,0.5-1.7c0.3-0.5,0.7-0.8,1.2-1.1
	c1.1-0.5,2.2-0.9,3.2-1.1c1-0.2,2.1-0.4,3.1-0.4s2.1,0.1,3.1,0.4c1,0.3,2.1,0.6,3.2,1.1c0.5,0.2,1,0.6,1.3,1.1
	c0.3,0.5,0.5,1,0.5,1.7v2.6H10z M11.7,26.8h12.6v-0.9c0-0.3-0.1-0.5-0.2-0.7c-0.1-0.2-0.3-0.4-0.5-0.5c-1-0.5-2-0.8-2.9-1
	c-0.9-0.2-1.8-0.3-2.7-0.3c-0.9,0-1.8,0.1-2.7,0.3c-0.9,0.2-1.8,0.5-2.9,1c-0.2,0.1-0.4,0.3-0.5,0.5c-0.1,0.2-0.2,0.4-0.2,0.7V26.8z
	 M18,16.2c0.6,0,1.1-0.2,1.5-0.6c0.4-0.4,0.6-0.9,0.6-1.5c0-0.6-0.2-1.1-0.6-1.5C19.1,12.2,18.6,12,18,12c-0.6,0-1.1,0.2-1.5,0.6
	s-0.6,0.9-0.6,1.5c0,0.6,0.2,1.1,0.6,1.5S17.4,16.2,18,16.2z M13.1,20.8c-0.5,0-0.9-0.2-1.2-0.5c-0.3-0.3-0.5-0.8-0.5-1.2v-3.1h1.7
	V19h3.1v1.7H13.1z M19.8,20.8V19h3.1v-3.1h1.8V19c0,0.5-0.2,0.9-0.5,1.2c-0.3,0.3-0.8,0.5-1.2,0.5H19.8z M11.4,12.4V9.3
	c0-0.5,0.2-0.9,0.5-1.2c0.3-0.3,0.8-0.5,1.2-0.5h3.1v1.8h-3.1v3.1H11.4z M22.9,12.4V9.3h-3.1V7.5h3.1c0.5,0,0.9,0.2,1.2,0.5
	c0.3,0.3,0.5,0.8,0.5,1.2v3.1H22.9z"/>
</svg>
