<svg xmlns="http://www.w3.org/2000/svg" width="36" height="36" fill="none"><path fill="#000" stroke="#000" stroke-width="2" d="M31.856 8.845 19 1.423a2 2 0 0 0-2 0L4.144 8.845a2 2 0 0 0-1 1.732v14.846a2 2 0 0 0 1 1.732L17 34.577a2 2 0 0 0 2 0l12.856-7.422a2 2 0 0 0 1-1.732V10.577a2 2 0 0 0-1-1.732Z"/><mask id="a" width="18" height="18" x="9" y="9" mask-type="alpha" maskUnits="userSpaceOnUse"><path fill="#fff" fill-rule="evenodd" d="M9 9h18v18H9z" clip-rule="evenodd"/></mask><g mask="url(#a)"><path fill="#fff" fill-rule="evenodd" d="M25.714 15H21v-4.714C21 9.576 20.425 9 19.714 9h-3.428C15.575 9 15 9.576 15 10.286V15h-4.714C9.575 15 9 15.576 9 16.286v3.428c0 .71.575 1.286 1.286 1.286H15v4.714c0 .71.575 1.286 1.286 1.286h3.428c.71 0 1.286-.576 1.286-1.286V21h4.714c.71 0 1.286-.576 1.286-1.286v-3.428c0-.71-.575-1.286-1.286-1.286" clip-rule="evenodd"/></g></svg>