<svg xmlns="http://www.w3.org/2000/svg" width="36" height="36" fill="none"><path stroke="#000" stroke-width="2" d="M31.856 8.845 19 1.423a2 2 0 0 0-2 0L4.144 8.845a2 2 0 0 0-1 1.732v14.846a2 2 0 0 0 1 1.732L17 34.577a2 2 0 0 0 2 0l12.856-7.422a2 2 0 0 0 1-1.732V10.577a2 2 0 0 0-1-1.732Z"/><path fill="#000" fill-rule="evenodd" d="M22.83 10H26c1.1 0 2 .9 2 2v12c0 1.1-.9 2-2 2H10c-1.1 0-2-.9-2-2V12c0-1.1.9-2 2-2h3.17L15 8h6zM10 24h16V12h-4.05l-1.83-2h-4.24l-1.83 2H10zm8-11c-2.76 0-5 2.24-5 5s2.24 5 5 5 5-2.24 5-5-2.24-5-5-5m-3 5c0 1.65 1.35 3 3 3s3-1.35 3-3-1.35-3-3-3-3 1.35-3 3" clip-rule="evenodd"/></svg>