<svg xmlns="http://www.w3.org/2000/svg" width="36" height="36" fill="none"><path stroke="#000" stroke-width="2" d="M31.856 8.845 19 1.423a2 2 0 0 0-2 0L4.144 8.845a2 2 0 0 0-1 1.732v14.846a2 2 0 0 0 1 1.732L17 34.577a2 2 0 0 0 2 0l12.856-7.422a2 2 0 0 0 1-1.732V10.577a2 2 0 0 0-1-1.732Z"/><path fill="#000" fill-rule="evenodd" d="M13 18c0-2.76 2.24-5 5-5s5 2.24 5 5-2.24 5-5 5-5-2.24-5-5m2 0c0 1.65 1.35 3 3 3s3-1.35 3-3-1.35-3-3-3-3 1.35-3 3M16.972 8.843v1.025a1.025 1.025 0 1 0 2.051 0V8.843a1.025 1.025 0 0 0-2.051 0M17.998 25.253c-.567 0-1.026.46-1.026 1.025v1.026a1.025 1.025 0 0 0 2.05 0v-1.026c0-.565-.458-1.025-1.024-1.025M25.177 18.074c0 .566.46 1.025 1.025 1.025h1.026a1.025 1.025 0 0 0 0-2.05h-1.026c-.566 0-1.025.459-1.025 1.025M10.819 18.074c0-.566-.46-1.025-1.025-1.025H8.767a1.025 1.025 0 0 0 0 2.05h1.027c.566 0 1.025-.46 1.025-1.025M11.47 12.998c.201.2.463.3.725.3a1.027 1.027 0 0 0 .726-1.751l-.726-.725a1.025 1.025 0 1 0-1.45 1.45zM24.525 23.15a1.025 1.025 0 1 0-1.451 1.451l.725.725c.2.2.462.3.726.3a1.025 1.025 0 0 0 .725-1.751zM23.799 13.298c.263 0 .525-.1.726-.3l.725-.725a1.025 1.025 0 1 0-1.451-1.451l-.725.726a1.026 1.026 0 0 0 .725 1.75M11.47 23.15l-.724.725a1.025 1.025 0 1 0 1.45 1.451l.725-.725a1.027 1.027 0 0 0-1.45-1.45" clip-rule="evenodd"/></svg>