<svg xmlns="http://www.w3.org/2000/svg" width="36" height="36" fill="none"><path fill="#000" stroke="#000" stroke-width="2" d="M31.856 8.845 19 1.423a2 2 0 0 0-2 0L4.144 8.845a2 2 0 0 0-1 1.732v14.846a2 2 0 0 0 1 1.732L17 34.577a2 2 0 0 0 2 0l12.856-7.422a2 2 0 0 0 1-1.732V10.577a2 2 0 0 0-1-1.732Z"/><path fill="#fff" fill-rule="evenodd" d="M25 14a2 2 0 0 1 1.6.8L29 18v5h-2c0 1.66-1.34 3-3 3s-3-1.34-3-3h-6c0 1.66-1.34 3-3 3s-3-1.34-3-3H7V12c0-1.1.9-2 2-2h12a2 2 0 0 1 2 2v2zm-14.5 9c0 .83.67 1.5 1.5 1.5s1.5-.67 1.5-1.5-.67-1.5-1.5-1.5-1.5.67-1.5 1.5m14.513-7.5a1 1 0 0 1 .787.383L27.46 18H23v-2.5zM22.5 23c0 .83.67 1.5 1.5 1.5s1.5-.67 1.5-1.5-.67-1.5-1.5-1.5-1.5.67-1.5 1.5" clip-rule="evenodd"/></svg>