<svg xmlns="http://www.w3.org/2000/svg" width="36" height="36" fill="none"><path fill="#000" stroke="#000" stroke-width="2" d="M31.856 8.845 19 1.423a2 2 0 0 0-2 0L4.144 8.845a2 2 0 0 0-1 1.732v14.846a2 2 0 0 0 1 1.732L17 34.577a2 2 0 0 0 2 0l12.856-7.422a2 2 0 0 0 1-1.732V10.577a2 2 0 0 0-1-1.732Z"/><mask id="a" width="18" height="18" x="9" y="9" mask-type="alpha" maskUnits="userSpaceOnUse"><path fill="#fff" fill-rule="evenodd" d="M9 9h17.381v18H9.001z" clip-rule="evenodd"/></mask><g mask="url(#a)"><path fill="#fff" fill-rule="evenodd" d="M25.337 10.663 22.95 13.05l1.414-1.415A8.97 8.97 0 0 0 18 9a8.976 8.976 0 0 0-6.364 2.636A8.97 8.97 0 0 0 9 18c0 1.215.238 2.393.708 3.504a9 9 0 0 0 1.928 2.86 9 9 0 0 0 2.86 1.928A8.9 8.9 0 0 0 18 27a8.95 8.95 0 0 0 3.504-.708 9 9 0 0 0 2.86-1.928 9 9 0 0 0 1.327-1.686 1 1 0 0 0-.45-1.432l-1.848-.821a1 1 0 0 0-1.238.359q-.27.401-.62.752A4.97 4.97 0 0 1 18 23a4.97 4.97 0 0 1-3.536-1.464A4.97 4.97 0 0 1 13 18c0-1.335.52-2.591 1.464-3.535A4.97 4.97 0 0 1 18 13c1.335 0 2.591.52 3.535 1.465l-.973.974a.598.598 0 0 0 .427 1.026l4.785.009a.6.6 0 0 0 .607-.608V11.09c-.008-.54-.659-.813-1.044-.428" clip-rule="evenodd"/></g></svg>