<svg xmlns="http://www.w3.org/2000/svg" width="32" height="36" fill="none"><path stroke="#000" stroke-width="2" d="M17 1.423a2 2 0 0 0-2 0L2.144 8.845a2 2 0 0 0-1 1.732v14.846a2 2 0 0 0 1 1.732L15 34.577a2 2 0 0 0 2 0l12.856-7.422a2 2 0 0 0 1-1.732V10.577a2 2 0 0 0-1-1.732z"/><path fill="#000" d="M15.5 27q-2.077 0-3.979-.78a10 10 0 0 1-3.364-2.266l1.346-1.346a8.5 8.5 0 0 0 6.02 2.503 8.4 8.4 0 0 0 3.247-.637 8.4 8.4 0 0 0 2.75-1.842l1.323 1.322a10.3 10.3 0 0 1-3.376 2.267A10.3 10.3 0 0 1 15.5 27m0-3.778a6.533 6.533 0 0 1-4.675-1.936l1.322-1.322q.685.684 1.547 1.027a4.9 4.9 0 0 0 1.806.342q.945 0 1.806-.342a4.55 4.55 0 0 0 1.547-1.027l1.322 1.322a6.53 6.53 0 0 1-4.675 1.936M8.889 11.89v.944H22.11v-.944zm2.928 2.833.283.945h6.8l.283-.945zm.283 2.834q-.615 0-1.11-.366a1.87 1.87 0 0 1-.684-.957l-.473-1.51H8.89q-.78 0-1.334-.556A1.82 1.82 0 0 1 7 12.833V10h17v2.833q0 .78-.555 1.334-.555.555-1.334.555h-.944l-.614 1.606a1.95 1.95 0 0 1-.685.885 1.77 1.77 0 0 1-1.062.343z"/></svg>