<svg xmlns="http://www.w3.org/2000/svg" width="32" height="36" fill="none"><path stroke="#000" stroke-width="2" d="M17 1.423a2 2 0 0 0-2 0L2.144 8.845a2 2 0 0 0-1 1.732v14.846a2 2 0 0 0 1 1.732L15 34.577a2 2 0 0 0 2 0l12.856-7.422a2 2 0 0 0 1-1.732V10.577a2 2 0 0 0-1-1.732z"/><path fill="#000" d="M6.692 11v1.186H5.507c0-.655.53-1.186 1.185-1.186"/><path fill="#000" d="M6.684 11H7.87v1.186H6.684z"/><path fill="#000" d="M6.684 12.185H7.87v1.186H6.684zM7.87 12.185h1.186v1.186H7.87z"/><path fill="#000" d="M9.055 12.185h1.186v1.186H9.055z"/><path fill="#000" d="M10.24 12.185h1.186v1.186H10.24z"/><path fill="#000" d="M11.425 12.185h1.186v1.186h-1.186z"/><path fill="#000" d="M12.61 12.185h1.186v1.186H12.61zM13.796 12.185h1.185c0 .655-.53 1.186-1.185 1.186z"/><rect width="1.186" height="1.186" x="16.166" y="12.185" fill="#000" rx=".593"/><rect width="1.186" height="1.186" x="18.536" y="12.185" fill="#000" rx=".593"/><rect width="1.186" height="1.186" x="19.721" y="13.37" fill="#000" rx=".593"/><rect width="1.186" height="1.186" x="19.721" y="15.741" fill="#000" rx=".593"/><rect width="1.186" height="1.186" x="19.721" y="18.111" fill="#000" rx=".593"/><rect width="1.186" height="1.186" x="19.721" y="20.482" fill="#000" rx=".593"/><rect width="1.186" height="1.186" x="17.351" y="22.852" fill="#000" rx=".593"/><rect width="1.186" height="1.186" x="14.981" y="22.852" fill="#000" rx=".593"/><path fill="#000" d="M13.796 22.852c.654 0 1.185.53 1.185 1.185h-1.185zM12.61 22.852h1.186v1.186H12.61z"/><path fill="#000" d="M11.425 22.852h1.186v1.186h-1.186z"/><path fill="#000" d="M10.24 22.852h1.186v1.186H10.24z"/><path fill="#000" d="M9.055 22.852h1.186v1.186H9.055z"/><path fill="#000" d="M7.87 22.852h1.186v1.186H7.87z"/><rect width="1.186" height="1.186" x="19.721" y="22.852" fill="#000" rx=".593"/><path fill="#000" d="M6.684 13.37H7.87v1.186H6.684zM6.684 14.556H7.87v1.186H6.684z"/><path fill="#000" d="M6.684 15.741H7.87v1.186H6.684z"/><path fill="#000" d="M6.684 16.926H7.87v1.186H6.684z"/><path fill="#000" d="M6.684 18.111H7.87v1.186H6.684z"/><path fill="#000" d="M6.684 19.296H7.87v1.186H6.684zM6.684 20.482H7.87v1.186H6.684z"/><path fill="#000" d="M6.684 21.667H7.87v1.186H6.684z"/><path fill="#000" d="M6.684 22.852H7.87v1.186H6.684z"/><path fill="#000" d="M6.684 24.037H7.87v1.186H6.684zM7.87 11h1.186v1.186H7.87z"/><path fill="#000" d="M9.055 11h1.186v1.186H9.055z"/><path fill="#000" d="M10.24 11h1.186v1.186H10.24z"/><path fill="#000" d="M11.425 11h1.186v1.186h-1.186z"/><path fill="#000" d="M12.61 11h1.186v1.186H12.61zM13.796 11c.654 0 1.185.53 1.185 1.186h-1.185z"/><rect width="1.186" height="1.186" x="14.981" y="11" fill="#000" rx=".593"/><rect width="1.186" height="1.186" x="17.351" y="11" fill="#000" rx=".593"/><rect width="1.186" height="1.186" x="19.721" y="11" fill="#000" rx=".593"/><rect width="1.186" height="1.186" x="20.907" y="12.185" fill="#000" rx=".593"/><rect width="1.186" height="1.186" x="23.278" y="16.926" fill="#000" rx=".593"/><rect width="1.186" height="1.186" x="24.463" y="15.741" fill="#000" rx=".593"/><rect width="1.186" height="1.186" x="24.463" y="18.111" fill="#000" rx=".593"/><rect width="1.186" height="1.186" x="24.463" y="20.482" fill="#000" rx=".593"/><rect width="1.186" height="1.186" x="25.649" y="14.556" fill="#000" rx=".593"/><rect width="1.186" height="1.186" x="25.649" y="16.926" fill="#000" rx=".593"/><rect width="1.186" height="1.186" x="25.649" y="19.296" fill="#000" rx=".593"/><rect width="1.186" height="1.186" x="25.649" y="21.667" fill="#000" rx=".593"/><rect width="1.186" height="1.186" x="23.278" y="19.296" fill="#000" rx=".593"/><path fill="#000" d="M22.093 16.334a.593.593 0 1 1 1.186 0 .593.593 0 0 1-1.186 0"/><rect width="1.186" height="1.186" x="22.093" y="18.111" fill="#000" rx=".593"/><rect width="1.186" height="1.186" x="20.907" y="14.556" fill="#000" rx=".593"/><rect width="1.186" height="1.186" x="20.907" y="16.926" fill="#000" rx=".593"/><rect width="1.186" height="1.186" x="20.907" y="19.296" fill="#000" rx=".593"/><rect width="1.186" height="1.186" x="20.907" y="21.667" fill="#000" rx=".593"/><path fill="#000" d="M6.692 12.185v1.186H5.506v-1.186zM7.87 24.037h1.186v1.186H7.87z"/><path fill="#000" d="M6.691 13.37v1.186H5.505V13.37zM9.055 24.037h1.186v1.186H9.055z"/><path fill="#000" d="M6.69 14.555v1.186H5.504v-1.186zM10.24 24.037h1.186v1.186H10.24z"/><path fill="#000" d="M6.69 15.74v1.187H5.504V15.74zM11.425 24.037h1.186v1.186h-1.186z"/><path fill="#000" d="M6.69 16.925v1.186H5.502v-1.186zM12.61 24.037h1.186v1.186H12.61zM6.689 18.111v1.186H5.503v-1.186zM13.796 24.037h1.185c0 .655-.53 1.186-1.185 1.186z"/><path fill="#000" d="M6.688 19.296v1.186H5.502v-1.186zM6.687 20.482v1.186H5.501v-1.186z"/><rect width="1.186" height="1.186" x="16.166" y="24.037" fill="#000" rx=".593"/><path fill="#000" d="M6.686 21.667v1.186H5.5v-1.186z"/><path fill="#000" d="M6.686 22.851v1.186H5.5v-1.186z"/><rect width="1.186" height="1.186" x="18.536" y="24.037" fill="#000" rx=".593"/><path fill="#000" d="M6.686 24.037v1.186c-.655 0-1.186-.531-1.186-1.186z"/><rect width="1.186" height="1.186" x="20.907" y="24.037" fill="#000" rx=".593"/><path fill="#000" d="M24.464 15.125v.03a.585.585 0 1 1-1.17-.014v-.03a.585.585 0 0 1 1.17.014M24.463 13.963a.593.593 0 1 1 1.186 0 .593.593 0 0 1-1.186 0M25.649 12.778a.593.593 0 1 1 1.185 0 .593.593 0 0 1-1.185 0"/></svg>