<svg xmlns="http://www.w3.org/2000/svg" width="36" height="36" fill="none"><path stroke="#000" stroke-width="2" d="M31.856 8.845 19 1.423a2 2 0 0 0-2 0L4.144 8.845a2 2 0 0 0-1 1.732v14.846a2 2 0 0 0 1 1.732L17 34.577a2 2 0 0 0 2 0l12.856-7.422a2 2 0 0 0 1-1.732V10.577a2 2 0 0 0-1-1.732Z"/><path fill="#000" fill-rule="evenodd" d="M18 13.833h8.333V25.5H9.667v-15H18zm-6.667 10H13v-1.666h-1.667zM13 20.5h-1.667v-1.667H13zm-1.667-3.333H13V15.5h-1.667zM13 13.833h-1.667v-1.666H13zm1.667 10h1.666v-1.666h-1.666zm1.666-3.333h-1.666v-1.667h1.666zm-1.666-3.333h1.666V15.5h-1.666zm1.666-3.334h-1.666v-1.666h1.666zm1.667 10h6.667V15.5H18v1.667h1.667v1.666H18V20.5h1.667v1.667H18zm5-6.666h-1.667v1.666H23zM21.333 20.5H23v1.667h-1.667z" clip-rule="evenodd"/></svg>