<svg xmlns="http://www.w3.org/2000/svg" width="36" height="36" fill="none"><path stroke="#000" stroke-width="2" d="M31.856 8.845 19 1.423a2 2 0 0 0-2 0L4.144 8.845a2 2 0 0 0-1 1.732v14.846a2 2 0 0 0 1 1.732L17 34.577a2 2 0 0 0 2 0l12.856-7.422a2 2 0 0 0 1-1.732V10.577a2 2 0 0 0-1-1.732Z"/><path fill="#000" d="m22.167 8.842-8.334-.009c-.916 0-1.666.75-1.666 1.667v15c0 .917.75 1.667 1.666 1.667h8.334c.916 0 1.666-.75 1.666-1.667v-15c0-.917-.75-1.658-1.666-1.658m0 14.991h-8.334V12.167h8.334z"/></svg>