<svg xmlns="http://www.w3.org/2000/svg" xml:space="preserve" viewBox="0 0 36 36"><path d="M31.9 8.8 19 1.4c-.6-.4-1.4-.4-2 0L4.1 8.8c-.6.4-1 1-1 1.7v14.8c0 .7.4 1.4 1 1.7L17 34.6c.6.4 1.4.4 2 0l12.9-7.4c.6-.4 1-1 1-1.7V10.6c0-.7-.4-1.4-1-1.8z" style="fill:#36b2e6;stroke:#36b2e6;stroke-width:2"/><path d="M9 13.5v-2.9c0-.4.2-.8.5-1.1s.7-.5 1.1-.5h2.9v1.6h-2.9v2.9zM13.5 27h-2.9c-.4 0-.8-.2-1.1-.5s-.5-.7-.5-1.1v-2.9h1.6v2.9h2.9zm9 0v-1.6h2.9v-2.9H27v2.9c0 .4-.2.8-.5 1.1s-.7.5-1.1.5zm2.9-13.5v-2.9h-2.9V9h2.9c.4 0 .8.2 1.1.5s.5.7.5 1.1v2.9zm-6.1 1.9c-.5 0-.9-.2-1.2-.5s-.5-.7-.5-1.2.2-.9.5-1.2.7-.5 1.2-.5.9.2 1.2.5.5.7.5 1.2-.2.9-.5 1.2-.7.5-1.2.5m-.8 7.8h-3.4l1-4.9-1.9.9v2.9h-1.6v-3.9l3.6-1.5c.5-.2.9-.4 1.1-.4.2-.1.4-.1.7-.1s.6.1.8.2.5.3.6.6l.9 1.5c.4.6.9 1.2 1.5 1.6s1.4.6 2.2.6v1.6c-1.1 0-1.9-.2-2.7-.6-.7-.4-1.4-1.1-2-1.9z"/></svg>