<?xml version="1.0" encoding="utf-8"?>
<!-- Generator: Adobe Illustrator 27.4.1, SVG Export Plug-In . SVG Version: 6.00 Build 0)  -->
<svg version="1.1" id="Layer_1" xmlns="http://www.w3.org/2000/svg" xmlns:xlink="http://www.w3.org/1999/xlink" x="0px" y="0px"
	 viewBox="0 0 36 36" style="enable-background:new 0 0 36 36;" xml:space="preserve">
<style type="text/css">
	.st0{fill:#36B2E6;stroke:#36B2E6;stroke-width:2;}
</style>
<path class="st0" d="M31.9,8.8L19,1.4c-0.6-0.4-1.4-0.4-2,0L4.1,8.8c-0.6,0.4-1,1-1,1.7v14.8c0,0.7,0.4,1.4,1,1.7L17,34.6
	c0.6,0.4,1.4,0.4,2,0l12.9-7.4c0.6-0.4,1-1,1-1.7V10.6C32.9,9.9,32.5,9.2,31.9,8.8z"/>
<path d="M9,13.5v-2.9c0-0.4,0.2-0.8,0.5-1.1C9.8,9.2,10.2,9,10.6,9h2.9v1.6h-2.9v2.9H9z M13.5,27h-2.9c-0.4,0-0.8-0.2-1.1-0.5
	C9.2,26.2,9,25.8,9,25.4v-2.9h1.6v2.9h2.9V27z M22.5,27v-1.6h2.9v-2.9H27v2.9c0,0.4-0.2,0.8-0.5,1.1c-0.3,0.3-0.7,0.5-1.1,0.5H22.5z
	 M25.4,13.5v-2.9h-2.9V9h2.9c0.4,0,0.8,0.2,1.1,0.5c0.3,0.3,0.5,0.7,0.5,1.1v2.9H25.4z M19.3,15.4c-0.5,0-0.9-0.2-1.2-0.5
	c-0.3-0.3-0.5-0.7-0.5-1.2c0-0.5,0.2-0.9,0.5-1.2c0.3-0.3,0.7-0.5,1.2-0.5c0.5,0,0.9,0.2,1.2,0.5c0.3,0.3,0.5,0.7,0.5,1.2
	c0,0.5-0.2,0.9-0.5,1.2C20.2,15.2,19.8,15.4,19.3,15.4z M18.5,23.2h-3.4l1-4.9l-1.9,0.9v2.9h-1.6v-3.9l3.6-1.5
	c0.5-0.2,0.9-0.4,1.1-0.4c0.2-0.1,0.4-0.1,0.7-0.1c0.3,0,0.6,0.1,0.8,0.2c0.2,0.1,0.5,0.3,0.6,0.6l0.9,1.5c0.4,0.6,0.9,1.2,1.5,1.6
	c0.6,0.4,1.4,0.6,2.2,0.6v1.6c-1.1,0-1.9-0.2-2.7-0.6c-0.7-0.4-1.4-1.1-2-1.9L18.5,23.2z"/>
</svg>
