<svg xmlns="http://www.w3.org/2000/svg" width="36" height="36" fill="none"><path fill="#000" fill-rule="evenodd" d="M12.166 20.562h1.667v-1.667h-1.667v-1.666h1.667v-1.667h-1.667v-1.667h1.667v-1.667h10v10.001h-1.666v1.667H20.5v-1.667h-1.668v1.667h-1.666v-1.667H15.5v1.667h-1.667v-1.667h-1.667zm-1.667-9.167v13.334c0 .461.374.834.834.834h13.335c.46 0 .833-.373.833-.834V11.395a.833.833 0 0 0-.833-.834H11.333a.834.834 0 0 0-.834.834" clip-rule="evenodd"/><path fill="#000" fill-rule="evenodd" d="M13.833 15.562H15.5v-1.667h-1.667zM15.5 17.229h1.667v-1.667H15.5zM17.166 18.896h1.667v-1.667h-1.667zM18.834 20.563h1.667v-1.667h-1.667zM20.501 22.229h1.666v-1.667h-1.666z" clip-rule="evenodd"/><path fill="#000" fill-rule="evenodd" d="M17.167 22.229h1.667v-1.667h-1.667zM15.5 20.563h1.667v-1.667H15.5zM13.833 18.896H15.5v-1.667h-1.667zM13.833 22.229H15.5v-1.667h-1.667z" clip-rule="evenodd"/><rect width="32" height="32" x="2" y="2" stroke="#000" stroke-width="2" rx="16"/></svg>