<svg xmlns="http://www.w3.org/2000/svg" width="36" height="36" fill="none"><path fill="#000" stroke="#000" stroke-width="2" d="M31.856 8.845 19 1.423a2 2 0 0 0-2 0L4.144 8.845a2 2 0 0 0-1 1.732v14.846a2 2 0 0 0 1 1.732L17 34.577a2 2 0 0 0 2 0l12.856-7.422a2 2 0 0 0 1-1.732V10.577a2 2 0 0 0-1-1.732Z"/><mask id="a" width="17" height="18" x="9" y="9" mask-type="alpha" maskUnits="userSpaceOnUse"><path fill="#fff" fill-rule="evenodd" d="M9 9.809h16.949v16.948H9z" clip-rule="evenodd"/></mask><g mask="url(#a)"><path fill="#fff" fill-rule="evenodd" d="M10.006 9.809a1 1 0 0 0-1.006 1v14.95c0 .55.447.998.999.998h14.949c.89 0 1.335-1.075.706-1.704l-14.95-14.95a.98.98 0 0 0-.698-.294m2.489 7.028 6.426 6.425h-6.426z" clip-rule="evenodd"/></g><mask id="b" width="11" height="11" x="16" y="10" mask-type="alpha" maskUnits="userSpaceOnUse"><path fill="#fff" fill-rule="evenodd" d="M16.882 10.586h10.033V20.62H16.882z" clip-rule="evenodd"/></mask><g mask="url(#b)"><path fill="#fff" fill-rule="evenodd" d="m25.934 17.552.976 2.927a.106.106 0 0 1-.134.134l-2.927-.976a1.06 1.06 0 0 1-.414-.255l-6.553-6.553 2.243-2.243 6.553 6.553c.116.116.204.257.256.413" clip-rule="evenodd"/></g><path fill="#fff" fill-rule="evenodd" d="M15.76 9.464a1.587 1.587 0 0 0 0 2.243l.375.374 2.243-2.243-.374-.374a1.587 1.587 0 0 0-2.243 0" clip-rule="evenodd"/></svg>