<svg width="36" height="36" viewBox="0 0 36 36" fill="none" xmlns="http://www.w3.org/2000/svg">
<rect x="2" y="2" width="32" height="32" rx="16" stroke="black" stroke-width="2"/>
<path fill-rule="evenodd" clip-rule="evenodd" d="M19.2007 16.8976H20.5655C20.621 16.8968 20.6749 16.918 20.7132 16.9578C20.7538 16.9969 20.7765 17.05 20.7757 17.1063V25.1562L20.714 25.3039H20.7132C20.6749 25.3438 20.621 25.3657 20.5655 25.3641H19.2007C19.1452 25.3657 19.0913 25.3438 19.053 25.3039C19.0124 25.2656 18.9897 25.2117 18.9905 25.1562V17.1063C18.9889 17.0508 19.0108 16.9969 19.0507 16.9578C19.0905 16.9195 19.1437 16.8976 19.1984 16.8976H19.2007ZM15.3271 18.6368H16.6918C16.7473 18.636 16.8012 18.6587 16.8395 18.6985C16.8801 18.7376 16.9028 18.7908 16.902 18.8471V25.1562C16.902 25.2086 16.8809 25.2602 16.8434 25.2977C16.8059 25.3352 16.7543 25.3563 16.7019 25.3563H15.3372C15.2817 25.3571 15.2278 25.336 15.1887 25.2962L15.127 25.1484V18.8471C15.1262 18.7908 15.1481 18.7376 15.1887 18.6986C15.2278 18.6587 15.2809 18.636 15.3372 18.6368L15.3271 18.6368ZM11.451 19.6373H12.8157C12.8712 19.6365 12.9252 19.6592 12.9635 19.699C13.0041 19.7381 13.0268 19.7913 13.026 19.8475V25.1562L12.9643 25.304H12.9635C12.9252 25.3438 12.8712 25.3657 12.8157 25.3642H11.451C11.3955 25.3657 11.3416 25.3438 11.3033 25.304L11.2415 25.1562L11.2408 19.8554C11.24 19.7999 11.2627 19.7459 11.3033 19.7076C11.3416 19.667 11.3955 19.6443 11.451 19.6451L11.451 19.6373ZM22.7183 9.19627C22.587 9.20799 22.49 9.32367 22.5018 9.45576C22.5135 9.58707 22.6292 9.684 22.7605 9.67227L24.3613 9.53235C21.1394 13.4584 15.8954 16.7218 10.9071 17.1618C10.7789 17.1767 10.6852 17.2908 10.6969 17.4198C10.7078 17.5488 10.8204 17.6449 10.9494 17.6363C16.0558 17.1759 21.402 13.8688 24.7036 9.85289L24.8396 11.4075C24.8545 11.5365 24.9694 11.6311 25.0991 11.6194C25.2289 11.6076 25.3258 11.4951 25.318 11.3653L25.1296 9.2143C25.1171 9.08299 25.0014 8.98606 24.8693 8.99623L22.7183 9.19627ZM9.23997 26.5246C9.10787 26.5246 9 26.6317 9 26.7645C9 26.8966 9.10786 27.0045 9.23997 27.0045H26.76C26.8921 27.0045 27 26.8966 27 26.7645C27 26.6317 26.8921 26.5246 26.76 26.5246H9.23997ZM23.0769 14.1405H24.4417C24.5519 14.1405 24.6418 14.2296 24.6418 14.3406V25.1458L24.5816 25.2935C24.5425 25.3333 24.4886 25.3552 24.4331 25.3537H23.0683C23.0136 25.3568 22.9605 25.3365 22.9206 25.299C22.8807 25.2607 22.8589 25.2083 22.8589 25.1536V14.3484C22.8581 14.2929 22.88 14.239 22.9206 14.2007C22.9613 14.1585 23.0183 14.1366 23.0769 14.1405Z" fill="black"/>
</svg>
