<svg width="34" height="34" viewBox="0 0 34 34" fill="none" xmlns="http://www.w3.org/2000/svg">
<rect x="1" y="1" width="32" height="32" rx="16" stroke="black" stroke-width="2"/>
<path d="M11.5969 18.3679C11.9843 18.9008 12.7304 19.0187 13.2632 18.6313C13.7962 18.2439 13.9141 17.4978 13.5267 16.9649C13.1393 16.432 12.3932 16.3141 11.8603 16.7015C11.3274 17.0889 11.2095 17.835 11.5969 18.3679Z" fill="black"/>
<path d="M15.0329 16.8431C14.5785 17.1737 14.4783 17.8107 14.8088 18.2653C15.1393 18.7196 15.7756 18.8202 16.2302 18.49C16.6849 18.1595 16.786 17.5227 16.4557 17.068C16.1251 16.6133 15.4877 16.5125 15.0329 16.8431Z" stroke="black" stroke-width="0.35"/>
<path d="M17.1573 18.3679C17.5447 18.9008 18.2908 19.0187 18.8236 18.6313C19.3566 18.2439 19.4745 17.4978 19.0871 16.9649C18.6997 16.432 17.9536 16.3141 17.4207 16.7015C16.8878 17.0889 16.7699 17.835 17.1573 18.3679Z" fill="black"/>
<path d="M19.9375 18.3679C20.3249 18.9008 21.071 19.0187 21.6039 18.6313C22.1368 18.2439 22.2547 17.4978 21.8673 16.9649C21.4799 16.432 20.7338 16.3141 20.2009 16.7015C19.668 17.0889 19.5501 17.835 19.9375 18.3679Z" fill="black"/>
<path d="M12.0329 20.8431C11.5785 21.1737 11.4783 21.8107 11.8088 22.2653C12.1393 22.7196 12.7756 22.8202 13.2302 22.49C13.6849 22.1595 13.786 21.5227 13.4557 21.068C13.1251 20.6133 12.4877 20.5125 12.0329 20.8431Z" stroke="black" stroke-width="0.35"/>
<path d="M14.3771 22.3679C14.7645 22.9007 15.5106 23.0187 16.0435 22.6313C16.5764 22.2439 16.6943 21.4978 16.3069 20.9649C15.9195 20.432 15.1734 20.314 14.6405 20.7015C14.1076 21.0889 13.9897 21.8349 14.3771 22.3679Z" fill="black"/>
<path d="M17.1573 22.3679C17.5447 22.9007 18.2908 23.0187 18.8236 22.6313C19.3566 22.2439 19.4745 21.4978 19.0871 20.9649C18.6997 20.432 17.9536 20.314 17.4207 20.7015C16.8878 21.0889 16.7699 21.8349 17.1573 22.3679Z" fill="black"/>
<path d="M19.9375 22.3679C20.3249 22.9007 21.071 23.0187 21.6039 22.6313C22.1368 22.2439 22.2547 21.4978 21.8673 20.9649C21.4799 20.432 20.7338 20.314 20.2009 20.7015C19.668 21.0889 19.5501 21.8349 19.9375 22.3679Z" fill="black"/>
<path d="M11.5969 26.3679C11.9843 26.9008 12.7304 27.0187 13.2632 26.6313C13.7962 26.2439 13.9141 25.4978 13.5267 24.9649C13.1393 24.432 12.3932 24.3141 11.8603 24.7015C11.3274 25.0889 11.2095 25.835 11.5969 26.3679Z" fill="black"/>
<path d="M14.3771 26.3679C14.7645 26.9008 15.5106 27.0187 16.0435 26.6313C16.5764 26.2439 16.6943 25.4978 16.3069 24.9649C15.9195 24.432 15.1734 24.3141 14.6405 24.7015C14.1076 25.0889 13.9897 25.835 14.3771 26.3679Z" fill="black"/>
<path d="M17.1573 26.3679C17.5447 26.9008 18.2908 27.0187 18.8236 26.6313C19.3566 26.2439 19.4745 25.4978 19.0871 24.9649C18.6997 24.432 17.9536 24.3141 17.4207 24.7015C16.8878 25.0889 16.7699 25.835 17.1573 26.3679Z" fill="black"/>
<path d="M20.3034 24.8431C19.849 25.1737 19.7487 25.8107 20.0792 26.2653C20.4098 26.7197 21.0461 26.8203 21.5007 26.49C21.9553 26.1595 22.0565 25.5227 21.7262 25.068C21.3956 24.6133 20.7581 24.5125 20.3034 24.8431Z" stroke="black" stroke-width="0.35"/>
<path d="M16.4743 6C14.5009 6 12.8954 7.60544 12.8954 9.57884C12.8954 11.5522 14.5009 13.1577 16.4743 13.1577C18.4477 13.1577 20.0531 11.5522 20.0531 9.57884C20.0531 7.60544 18.4477 6 16.4743 6ZM16.4743 12.882C14.6528 12.882 13.1708 11.4 13.1708 9.57851C13.1708 7.75701 14.6528 6.27504 16.4743 6.27504C18.2957 6.27504 19.7777 7.75701 19.7777 9.57851C19.7777 11.4 18.2957 12.882 16.4743 12.882Z" fill="black"/>
<path d="M16.4745 9.96014C17.2377 9.96014 17.7565 9.34117 17.7565 8.57772C17.7565 7.81417 17.2377 7.19543 16.4745 7.19543C15.7109 7.19543 15.192 7.81416 15.192 8.57772C15.192 9.34114 15.7109 9.96014 16.4745 9.96014Z" fill="black"/>
<path d="M17.5099 9.86948C17.2362 10.1153 16.8778 10.2606 16.4745 10.2606C16.0709 10.2606 15.7123 10.1153 15.4386 9.86948C14.7875 10.2255 14.338 10.9014 14.304 11.6875C14.8546 12.254 15.6238 12.6072 16.4743 12.6072C17.3248 12.6072 18.094 12.254 18.6448 11.6875C18.6108 10.9014 18.161 10.2255 17.5099 9.86948Z" fill="black"/>
<path d="M14.4925 12.5237C14.5056 12.47 14.4727 12.4159 14.419 12.4028C14.3654 12.3898 14.3113 12.4227 14.2982 12.4763L14.4925 12.5237ZM10.9661 21.5707C11.0051 21.5317 11.0051 21.4683 10.9661 21.4293L10.3297 20.7929C10.2906 20.7538 10.2273 20.7538 10.1883 20.7929C10.1492 20.832 10.1492 20.8953 10.1883 20.9343L10.754 21.5L10.1883 22.0657C10.1492 22.1047 10.1492 22.1681 10.1883 22.2071C10.2273 22.2462 10.2906 22.2462 10.3297 22.2071L10.9661 21.5707ZM9.3954 14.5533L9.3954 14.4533L9.2954 14.5533L9.3954 14.5533ZM13.8954 14.5533L13.8954 14.6533L13.9925 14.577L13.8954 14.5533ZM9.3954 21.5L9.2954 21.5L9.3954 21.6L9.3954 21.5ZM14.3954 12.5L14.2982 12.4763L13.7982 14.5297L13.8954 14.5533L13.9925 14.577L14.4925 12.5237L14.3954 12.5ZM13.8954 14.5533L13.8954 14.4533L9.3954 14.4533L9.3954 14.5533L9.3954 14.6533L13.8954 14.6533L13.8954 14.5533ZM9.3954 14.5533L9.2954 14.5533L9.2954 21.5L9.3954 21.5L9.4954 21.5L9.4954 14.5533L9.3954 14.5533ZM9.3954 21.5L9.3954 21.6L10.8954 21.6L10.8954 21.5L10.8954 21.4L9.3954 21.4L9.3954 21.5Z" fill="black"/>
<path d="M18.4924 12.4757C18.479 12.4222 18.4247 12.3896 18.3711 12.403C18.3175 12.4164 18.2849 12.4707 18.2983 12.5243L18.4924 12.4757ZM22.3247 25.9293C22.2856 25.9683 22.2856 26.0317 22.3247 26.0707L22.9611 26.7071C23.0001 26.7462 23.0634 26.7462 23.1025 26.7071C23.1415 26.6681 23.1415 26.6047 23.1025 26.5657L22.5368 26L23.1025 25.4343C23.1415 25.3953 23.1415 25.3319 23.1025 25.2929C23.0634 25.2538 23.0001 25.2538 22.9611 25.2929L22.3247 25.9293ZM23.8954 14.5L23.9954 14.5L23.8954 14.4L23.8954 14.5ZM18.8954 14.5L18.7983 14.5243L18.8954 14.6L18.8954 14.5ZM23.8954 26L23.8954 26.1L23.9954 26L23.8954 26ZM18.3954 12.5L18.2983 12.5243L18.7983 14.5243L18.8954 14.5L18.9924 14.4757L18.4924 12.4757L18.3954 12.5ZM18.8954 14.5L18.8954 14.6L23.8954 14.6L23.8954 14.5L23.8954 14.4L18.8954 14.4L18.8954 14.5ZM23.8954 14.5L23.7954 14.5L23.7954 26L23.8954 26L23.9954 26L23.9954 14.5L23.8954 14.5ZM23.8954 26L23.8954 25.9L22.3954 25.9L22.3954 26L22.3954 26.1L23.8954 26.1L23.8954 26Z" fill="black"/>
<path d="M16.4954 13C16.4954 12.9448 16.4506 12.9 16.3954 12.9C16.3402 12.9 16.2954 12.9448 16.2954 13L16.4954 13ZM15.8059 16.0447C15.8306 16.0941 15.8907 16.1141 15.9401 16.0894L16.7451 15.687C16.7945 15.6623 16.8145 15.6022 16.7898 15.5528C16.7651 15.5034 16.705 15.4834 16.6556 15.5081L15.9401 15.8658L15.5823 15.1503C15.5576 15.1009 15.4976 15.0809 15.4482 15.1056C15.3988 15.1303 15.3788 15.1903 15.4035 15.2397L15.8059 16.0447ZM16.3954 14.5L16.4903 14.5316L16.4954 14.5L16.3954 14.5ZM16.3954 13L16.2954 13L16.2954 14.5L16.3954 14.5L16.4954 14.5L16.4954 13L16.3954 13ZM16.3954 14.5L16.3005 14.4684L15.8005 15.9684L15.8954 16L15.9903 16.0316L16.4903 14.5316L16.3954 14.5Z" fill="black"/>
</svg>
