<svg width="34" height="34" viewBox="0 0 34 34" fill="none" xmlns="http://www.w3.org/2000/svg">
<rect x="1" y="1" width="32" height="32" rx="16" stroke="black" stroke-width="2"/>
<path fill-rule="evenodd" clip-rule="evenodd" d="M14.506 11.4944C15.3777 12.5901 16.9902 13.514 18.7493 14.059V15.1672C17.1852 14.7273 15.642 13.9966 14.5051 13.0175C12.8393 14.4531 10.3018 15.3539 8.10277 15.588C8.41693 19.7882 10.6869 23.8887 14.5051 25.8193C17.4174 24.3462 19.4291 21.6108 20.3591 18.5318C20.6449 18.7651 20.9599 18.9626 21.2982 19.1184C20.1457 22.6764 17.6766 25.5767 14.5049 27C10.0643 25.0052 7 20.1174 7 14.5831C9.76759 14.5831 13.0991 13.2608 14.5058 11.4944L14.506 11.4944ZM20.0067 10.7645V10.1179C20.0067 8.39639 21.4025 7 23.1249 7C24.8465 7 26.243 8.39568 26.243 10.1179V10.7645H25.2564V10.1179C25.2564 8.9405 24.3022 7.98637 23.124 7.98637C21.9465 7.98637 20.9923 8.94043 20.9923 10.1179V10.7645H20.0056H20.0067ZM19.7784 11.2644C19.4876 11.2644 19.2492 11.5019 19.2492 11.7927V15.1397C19.2492 17.2793 20.9842 19.0142 23.1242 19.0142C25.2641 19.0142 27 17.2794 27 15.1397V11.7927C27 11.5019 26.7617 11.2644 26.4708 11.2644H19.7784ZM24.1918 13.7174C24.2893 13.62 24.4476 13.62 24.5451 13.7174C24.6426 13.8149 24.6426 13.9733 24.5451 14.0707L22.8868 15.7289C22.7893 15.8264 22.631 15.8264 22.5335 15.7289L21.7044 14.8998C21.6069 14.8023 21.6069 14.644 21.7044 14.5465C21.8019 14.449 21.9602 14.449 22.0577 14.5465L22.7102 15.1989L24.1918 13.7174ZM14.5063 16.7946C13.603 16.7946 12.8713 17.527 12.8713 18.4302C12.8713 19.3335 13.6038 20.0651 14.5063 20.0651C15.4096 20.0651 16.1413 19.3326 16.1413 18.4302C16.1413 17.527 15.4088 16.7946 14.5063 16.7946ZM12.1789 23.5321V22.7497C12.1789 22.6114 12.2905 22.4997 12.4289 22.4997C12.5672 22.4997 12.6789 22.6114 12.6789 22.7497V23.9929C13.2355 24.4745 13.8455 24.8995 14.5064 25.2544C15.1672 24.8986 15.7764 24.4737 16.3339 23.9929V22.7497C16.3339 22.6114 16.4456 22.4997 16.5839 22.4997C16.7222 22.4997 16.8339 22.6114 16.8339 22.7497V23.5321C17.2889 23.0847 17.7039 22.5972 18.0764 22.079C17.9414 20.9724 17.0097 20.1034 15.8771 20.0667C15.5063 20.3775 15.0279 20.565 14.5063 20.565C13.9847 20.565 13.5063 20.3775 13.1355 20.0667C12.003 20.1034 11.0714 20.9733 10.9363 22.079C11.3088 22.5972 11.7237 23.0847 12.1787 23.5321H12.1789Z" fill="black"/>
</svg>
