<svg width="36" height="36" viewBox="0 0 36 36" fill="none" xmlns="http://www.w3.org/2000/svg">
<rect x="2" y="2" width="32" height="32" rx="16" stroke="black" stroke-width="2"/>
<path d="M25.8407 20.6018L25.8559 21.4693C25.8559 23.4519 24.5391 25.142 22.6299 25.3072V26.2197H23.9733C24.15 26.2197 24.2933 26.4401 24.2933 26.6197C24.2933 26.7993 24.15 27 23.9733 27H20.56C20.3833 27 20.24 26.7993 20.24 26.6197C20.24 26.4401 20.3833 26.2197 20.56 26.2197H21.9467V25.3072C20.0375 25.142 18.6299 23.4518 18.6299 21.4694V20.6018C18.6299 20.4222 18.9532 20.3072 19.1299 20.3072C19.3066 20.3072 19.5463 20.4222 19.5463 20.6018V21.4694C19.5463 23.2045 20.56 24.4537 22.2667 24.4537C23.9733 24.4537 24.8407 23.2045 24.8407 21.4694V20.6018C24.8407 20.4222 25.1641 20.3072 25.3407 20.3072C25.5174 20.3072 25.8407 20.4213 25.8407 20.6018ZM22.1299 15.8072C23.2474 15.8072 24.1299 16.863 24.1299 17.9991V21.4694C24.1299 22.6055 23.2474 23.8072 22.1299 23.8072C21.0124 23.8072 20.1299 22.6055 20.1299 21.4694V17.9991C20.1299 16.8622 21.0124 15.8072 22.1299 15.8072ZM22.1299 16.8072C21.3666 16.8072 21.1299 18.0312 21.1299 18.8072V20.8072C21.1299 21.5833 21.3666 22.8072 22.1299 22.8072C22.8932 22.8072 23.1299 21.5833 23.1299 20.8072V18.8072C23.1299 18.0303 22.8932 16.8072 22.1299 16.8072ZM19.1733 26.5103C19.1733 26.6899 19.03 27 18.8533 27H11.1708C10.5242 27 10 26.4663 10 25.8097V10.1912C10 9.53374 10.525 9.00085 11.1708 9.00085L19.7067 9C19.7283 9 19.7492 9.00254 19.7708 9.00678C19.7858 9.00932 19.7983 9.01525 19.8117 9.01949C19.8183 9.02203 19.8242 9.02372 19.8308 9.02626C19.8458 9.03304 19.8583 9.03897 19.8717 9.04829C19.8758 9.05083 19.8825 9.05253 19.8867 9.05676C19.9033 9.06778 19.9208 9.08303 19.9358 9.09828L23.3492 12.5685C23.3642 12.5837 23.3767 12.6007 23.39 12.6185C23.3925 12.6227 23.3942 12.6295 23.3983 12.6337C23.4067 12.6464 23.4133 12.66 23.42 12.6752C23.4225 12.682 23.4242 12.6879 23.4267 12.6947C23.4308 12.7074 23.435 12.721 23.4392 12.7362C23.4433 12.7583 23.4458 12.7794 23.4458 12.8015V14.1028C23.4458 14.2824 23.3025 14.4281 23.1258 14.4281C22.9492 14.4281 22.7591 14.2824 22.7591 14.1028V13.3254H20.5575C19.9108 13.3254 19.28 12.5854 19.28 11.9288V10H11.1708C10.8767 10 10.943 9.89466 10.943 10.1912V25.8902C10.943 26.1893 10.8792 26.0139 11.1708 26.0139H18.2526C18.6375 26.0139 19.1733 26.1254 19.1733 26.5103ZM20.5575 12.4685H22.3475L20.0266 10.1089V11.9288C20.0266 12.2253 20.2658 12.4685 20.5575 12.4685ZM12.4533 13.3254H17.5733C17.75 13.3254 17.8933 12.9734 17.8933 12.7938C17.8933 12.6142 17.75 12.3254 17.5733 12.3254H12.4533C12.2766 12.3254 12.2591 12.6142 12.2591 12.7938C12.2591 12.9734 12.2766 13.3254 12.4533 13.3254ZM19.7591 15.8254C19.7591 15.6458 19.4357 15.3254 19.2591 15.3254H15.7591H12.4533C12.2766 15.3254 12.2591 15.6458 12.2591 15.8254C12.2591 16.005 12.2766 16.3254 12.4533 16.3254H15.7591H19.2591C19.4357 16.3254 19.7591 16.005 19.7591 15.8254ZM17.7591 17.8072H14.7591H12.4533C12.2766 17.8072 12.2591 18.1276 12.2591 18.3072C12.2591 18.4868 12.2766 18.8072 12.4533 18.8072H14.7591H17.7591C17.9357 18.8072 18.2591 18.4868 18.2591 18.3072C18.2591 18.1268 17.9357 17.8072 17.7591 17.8072ZM17.2591 20.8072H14.7591H12.4533C12.2766 20.8072 12.2591 21.1276 12.2591 21.3072C12.2591 21.4868 12.2766 21.8072 12.4533 21.8072H14.7591H17.2591C17.4357 21.8072 17.7591 21.4868 17.7591 21.3072C17.7591 21.1268 17.4357 20.8072 17.2591 20.8072Z" fill="black"/>
</svg>
