<svg width="36" height="36" viewBox="0 0 36 36" fill="none" xmlns="http://www.w3.org/2000/svg">
<rect x="2" y="2" width="32" height="32" rx="16" stroke="black" stroke-width="2"/>
<path d="M14.4217 23.6386C14.4217 24.5365 13.6932 25.2651 12.7952 25.2651C11.8972 25.2651 11.1687 24.5365 11.1687 23.6386C11.1687 23.459 11.3144 23.3133 11.494 23.3133C11.6736 23.3133 11.8193 23.459 11.8193 23.6386C11.8193 24.1765 12.2572 24.6145 12.7952 24.6145C13.3331 24.6145 13.7711 24.1765 13.7711 23.6386C13.7711 23.459 13.9168 23.3133 14.0964 23.3133C14.276 23.3133 14.4217 23.459 14.4217 23.6386ZM16.5904 23.2048C16.5904 25.2972 14.8876 27 12.7952 27C10.7028 27 9 25.2973 9 23.2048C9 21.1124 10.7028 19.4097 12.7952 19.4097C14.8876 19.4097 16.5904 21.1124 16.5904 23.2048ZM15.9398 23.2048C15.9398 21.4699 14.5301 20.0603 12.7952 20.0603C11.0602 20.0603 9.6506 21.4699 9.6506 23.2048C9.6506 24.9398 11.0602 26.3494 12.7952 26.3494C14.5301 26.3494 15.9398 24.9398 15.9398 23.2048ZM27 23.2048C27 25.2972 25.2972 27 23.2048 27C21.1124 27 19.4096 25.2973 19.4096 23.2048C19.4096 21.1124 21.1124 19.4097 23.2048 19.4097C25.2972 19.4097 27 21.1124 27 23.2048ZM26.3494 23.2048C26.3494 21.4699 24.9398 20.0603 23.2048 20.0603C21.4699 20.0603 20.0602 21.4699 20.0602 23.2048C20.0602 24.9398 21.4699 26.3494 23.2048 26.3494C24.9398 26.3494 26.3494 24.9398 26.3494 23.2048ZM11.1687 22.1205C11.1687 21.8215 11.4118 21.5783 11.7108 21.5783C12.0099 21.5783 12.253 21.8215 12.253 22.1205C12.253 22.4195 12.0099 22.6627 11.7108 22.6627C11.4118 22.6627 11.1687 22.4195 11.1687 22.1205ZM14.4217 22.1205C14.4217 22.4195 14.1786 22.6627 13.8795 22.6627C13.5805 22.6627 13.3373 22.4195 13.3373 22.1205C13.3373 21.8215 13.5805 21.5783 13.8795 21.5783C14.1786 21.5783 14.4217 21.8215 14.4217 22.1205ZM23.2048 23.3133C22.3068 23.3133 21.5783 24.0418 21.5783 24.9398C21.5783 25.1194 21.724 25.2651 21.9036 25.2651C22.0832 25.2651 22.2289 25.1194 22.2289 24.9398C22.2289 24.4018 22.6669 23.9639 23.2048 23.9639C23.7428 23.9639 24.1807 24.4018 24.1807 24.9398C24.1807 25.1194 24.3264 25.2651 24.506 25.2651C24.6856 25.2651 24.8313 25.1194 24.8313 24.9398C24.8313 24.0418 24.1028 23.3133 23.2048 23.3133ZM21.5783 22.1205C21.5783 21.8215 21.8214 21.5783 22.1205 21.5783C22.4195 21.5783 22.6627 21.8215 22.6627 22.1205C22.6627 22.4195 22.4195 22.6627 22.1205 22.6627C21.8214 22.6627 21.5783 22.4195 21.5783 22.1205ZM24.8313 22.1205C24.8313 22.4195 24.5882 22.6627 24.2892 22.6627C23.9901 22.6627 23.747 22.4195 23.747 22.1205C23.747 21.8215 23.9901 21.5783 24.2892 21.5783C24.5882 21.5783 24.8313 21.8215 24.8313 22.1205ZM19.6265 18C19.6265 18.898 18.898 19.6265 18 19.6265C17.102 19.6265 16.3735 18.898 16.3735 18C16.3735 17.2147 16.9326 16.5582 17.6747 16.4057V12.6969C16.853 12.7469 16.0524 12.9875 15.3434 13.4017C13.7042 14.3455 12.6867 16.1091 12.6867 18C12.6867 18.1796 12.541 18.3253 12.3614 18.3253H9.3253C9.14571 18.3253 9 18.1796 9 18C9 14.7987 10.7222 11.8127 13.4957 10.208C14.8579 9.41848 16.4149 9 18 9C19.5875 9 21.1446 9.41848 22.5043 10.208C25.2779 11.8125 27 14.7987 27 18C27 18.1796 26.8543 18.3253 26.6747 18.3253H23.6386C23.459 18.3253 23.3133 18.1796 23.3133 18C23.3133 16.1093 22.2958 14.3455 20.6592 13.4026C19.9476 12.9884 19.1479 12.7478 18.3253 12.6978V16.4066C19.0674 16.5583 19.6265 17.2148 19.6265 18.0001V18ZM22.4543 10.9434L21.259 13.0105C22.8423 14.0431 23.8485 15.784 23.9528 17.6756H26.3409C26.2341 14.9377 24.7728 12.409 22.4543 10.9434ZM14.7385 13.0096L13.5432 10.9425C11.227 12.4089 9.7657 14.9375 9.65727 17.6747H12.0453C12.1487 15.784 13.1551 14.0447 14.7385 13.0096H14.7385ZM17.6747 12.0472V11.494C17.6747 11.3144 17.8204 11.1687 18 11.1687C18.1796 11.1687 18.3253 11.3144 18.3253 11.494V12.0472C19.1538 12.093 19.9628 12.3098 20.698 12.6851L21.8933 10.618C20.6997 9.98689 19.3638 9.65058 17.9998 9.65058C16.6376 9.65058 15.3 9.98689 14.1072 10.618L15.3026 12.6851C16.037 12.3098 16.846 12.093 17.6747 12.0472H17.6747ZM18.9759 18C18.9759 17.4621 18.5379 17.0241 18 17.0241C17.4621 17.0241 17.0241 17.4621 17.0241 18C17.0241 18.538 17.4621 18.9759 18 18.9759C18.5379 18.9759 18.9759 18.538 18.9759 18Z" fill="black"/>
</svg>
