<svg xmlns="http://www.w3.org/2000/svg" width="36" height="36" fill="none"><path fill="#000" fill-rule="evenodd" d="M18 29.556a.89.89 0 0 1-.889-.89V26a.889.889 0 0 1 1.778 0v2.667a.89.89 0 0 1-.889.889" clip-rule="evenodd"/><path fill="#000" fill-rule="evenodd" d="M17.11 27.067h-1.591a.44.44 0 0 0-.311.755l2.48 2.489a.44.44 0 0 0 .63 0l2.48-2.48a.45.45 0 0 0-.32-.764h-1.59M16.667 23.334a.9.9 0 0 1-.556-.195l-4.445-3.555a.89.89 0 0 1 1.111-1.39l3.688 2.95 6.573-9.86a.888.888 0 1 1 1.48.986l-7.111 10.668a.89.89 0 0 1-.74.396M18 10.889a.89.89 0 0 1-.889-.89V6.446a.889.889 0 1 1 1.778 0V10a.89.89 0 0 1-.889.889" clip-rule="evenodd"/><rect width="32" height="32" x="2" y="2" stroke="#000" stroke-width="2" rx="16"/></svg>