<svg xmlns="http://www.w3.org/2000/svg" width="36" height="36" fill="none"><path fill="#000" fill-rule="evenodd" d="M20.479 27.067h-1.563v-.178a.889.889 0 1 0-1.779 0v.178H15.52a.44.44 0 0 0-.312.755l2.48 2.489a.44.44 0 0 0 .631 0l2.48-2.48a.45.45 0 0 0-.32-.764M18.026 10a.89.89 0 0 0 .89-.889V6.444a.889.889 0 0 0-1.779 0v2.667c0 .491.398.889.89.889M14.444 16.667a.89.89 0 0 0-.889.888v3.557a.889.889 0 1 0 1.778 0v-3.556a.89.89 0 0 0-.889-.89M21.556 16.667a.89.89 0 0 0-.89.888v3.557a.889.889 0 1 0 1.779 0v-3.556a.89.89 0 0 0-.89-.89M18 16.667a.89.89 0 0 0-.889.888v3.56a.889.889 0 1 0 1.778 0v-3.56a.89.89 0 0 0-.889-.889M24.223 22.889H11.778a.889.889 0 1 0 0 1.778h12.445a.89.89 0 0 0 0-1.778M11.778 15.778h12.445a.888.888 0 0 0 .349-1.706l-6.222-2.667a.9.9 0 0 0-.7 0l-6.222 2.667a.889.889 0 0 0 .35 1.706" clip-rule="evenodd"/><rect width="32" height="32" x="2" y="2" stroke="#000" stroke-width="2" rx="16"/></svg>