<svg xmlns="http://www.w3.org/2000/svg" width="36" height="36" fill="none"><path fill="#000" fill-rule="evenodd" d="M18 21.893a2.03 2.03 0 0 1-1.443-.598 2.04 2.04 0 0 1-.598-1.443H14.25a3.733 3.733 0 0 0 1.098 2.652 3.73 3.73 0 0 0 1.797 1v2.357h-1.53a.423.423 0 0 0-.3.726L17.7 28.98a.423.423 0 0 0 .606 0l2.384-2.384a.432.432 0 0 0-.307-.735h-1.528v-2.357a3.7 3.7 0 0 0 1.797-1 3.73 3.73 0 0 0 1.098-2.652 3.741 3.741 0 0 0-1.098-2.652A3.75 3.75 0 0 0 18 16.1a2.03 2.03 0 0 1-1.443-.597 2.03 2.03 0 0 1-.598-1.444c0-.545.212-1.058.598-1.443A2.03 2.03 0 0 1 18 12.019c.545 0 1.058.212 1.443.598.386.385.598.898.598 1.443h1.709a3.736 3.736 0 0 0-1.098-2.652 3.74 3.74 0 0 0-1.797-1V7.746a.855.855 0 0 0-1.71 0v2.662a3.7 3.7 0 0 0-1.797 1 3.74 3.74 0 0 0-1.098 2.652 3.73 3.73 0 0 0 1.098 2.652A3.75 3.75 0 0 0 18 17.81c.545 0 1.058.213 1.443.598.386.386.598.898.598 1.444s-.212 1.058-.598 1.443a2.03 2.03 0 0 1-1.443.598" clip-rule="evenodd"/><rect width="30" height="30" x="3" y="3" stroke="#000" stroke-width="2" rx="3"/></svg>