<svg xmlns="http://www.w3.org/2000/svg" width="36" height="36" fill="none"><path fill="#000" stroke="#000" stroke-width="2" d="M31.856 8.845 19 1.423a2 2 0 0 0-2 0L4.144 8.845a2 2 0 0 0-1 1.732v14.846a2 2 0 0 0 1 1.732L17 34.577a2 2 0 0 0 2 0l12.856-7.422a2 2 0 0 0 1-1.732V10.577a2 2 0 0 0-1-1.732Z"/><mask id="a" width="18" height="21" x="9" y="8" mask-type="alpha" maskUnits="userSpaceOnUse"><path fill="#fff" fill-rule="evenodd" d="M9 8h18v20.011H9z" clip-rule="evenodd"/></mask><g mask="url(#a)"><path fill="#fff" fill-rule="evenodd" d="M25.997 20.474h-8.044c-.554 0-1.002.45-1.002 1.003v.507c0 .553.448 1.003 1.002 1.003h2.031q-.14.102-.289.195a4.93 4.93 0 0 1-2.613.747 4.91 4.91 0 0 1-3.494-1.447 4.92 4.92 0 0 1-1.447-3.494c0-1.396.584-2.706 1.591-3.635l1.293 1.293a1.004 1.004 0 0 0 1.418 0L17.69 15.4a1.003 1.003 0 0 0 0-1.417l-5.688-5.689a1.004 1.004 0 0 0-1.418 0L9.338 9.54a1 1 0 0 0 0 1.418l2.174 2.174a8.079 8.079 0 0 0-.145 11.57q.436.436.926.796h-2.1c-.553 0-1.002.45-1.002 1.003v.507c0 .554.45 1.003 1.002 1.003h13.07c.552 0 1.002-.449 1.002-1.003v-.507c0-.553-.45-1.003-1.003-1.003H21.87a8.1 8.1 0 0 0 2.236-2.51h1.892c.554 0 1.003-.45 1.003-1.004v-.507c0-.554-.449-1.003-1.003-1.003" clip-rule="evenodd"/></g></svg>