<svg width="48" height="48" viewBox="0 0 48 48" fill="none" xmlns="http://www.w3.org/2000/svg">
<path d="M7.89388 30.251L7.91438 17.3025L17.0843 8.16179L30.0319 8.1819L39.1735 17.3522L39.1534 30.2998L29.9831 39.4414L17.0346 39.4209L7.89388 30.251Z" stroke="black" stroke-width="2"/>
<path d="M33.9286 24.0285L31.8382 24.0257L14.7858 24.0032L12.6954 24.0003C12.4135 23.9998 12.1847 24.228 12.1845 24.51C12.184 24.7916 12.4122 25.0206 12.6941 25.0209L33.9275 25.0487C34.2093 25.0493 34.4381 24.821 34.4383 24.5391C34.4387 24.2576 34.2106 24.0288 33.9286 24.0285Z" fill="black"/>
<path d="M23.2365 26.1754L20.8879 30.243C20.622 30.7039 20.9545 31.28 21.4867 31.28H26.1839C26.7161 31.28 27.0486 30.7039 26.7826 30.243L24.4341 26.1754C24.3009 25.9449 24.0682 25.8298 23.8353 25.8298C23.6024 25.8299 23.3697 25.9451 23.2365 26.1754ZM25.8737 30.4099H21.7969L23.8353 26.8793L25.8737 30.4099Z" fill="black"/>
<path d="M17.2828 20.9089C17.2828 19.4502 16.1002 18.2675 14.6414 18.2675C13.1826 18.2675 12 19.4501 12 20.9089C12 22.3677 13.1826 23.5503 14.6414 23.5503C16.1001 23.5501 17.2828 22.3677 17.2828 20.9089Z" fill="black"/>
<path d="M34.1358 20.8354C34.1358 19.4172 32.9861 18.2675 31.5679 18.2675C30.1497 18.2675 29 19.4172 29 20.8354C29 22.2535 30.1497 23.4033 31.5679 23.4033C32.9861 23.4033 34.1358 22.2537 34.1358 20.8354ZM31.5679 22.5329C30.632 22.5329 29.8705 21.7714 29.8705 20.8355C29.8705 19.8996 30.632 19.1381 31.5679 19.1381C32.5038 19.1381 33.2653 19.8996 33.2653 20.8355C33.2653 21.7716 32.5038 22.5329 31.5679 22.5329Z" fill="black"/>
</svg>
