<svg width="48" height="48" viewBox="0 0 48 48" fill="none" xmlns="http://www.w3.org/2000/svg">
<path d="M7.89388 30.1841L7.91438 17.2356L17.0843 8.09493L30.0319 8.11504L39.1735 17.2853L39.1534 30.2329L29.9831 39.3745L17.0346 39.354L7.89388 30.1841Z" stroke="black" stroke-width="2"/>
<path d="M29.5802 17.6147C29.5219 17.4798 29.3906 17.3923 29.2448 17.3923H26.167C25.9664 17.3923 25.8096 17.5564 25.8096 17.7606V22.2058C25.8096 22.4064 25.9737 22.5705 26.1743 22.5705C26.3749 22.5705 26.539 22.4064 26.539 22.2058V20.4554H29.2449C29.3907 20.4554 29.522 20.3752 29.5803 20.2403C29.6387 20.1053 29.6095 19.9522 29.5074 19.8464L28.6249 18.9275L29.5074 18.0085C29.6095 17.9064 29.6387 17.7496 29.5803 17.6147L29.5802 17.6147ZM27.8591 19.1792L28.3915 19.7262H26.539V18.1217H28.3915L27.8591 18.676C27.7242 18.8146 27.7242 19.037 27.8591 19.1793V19.1792Z" fill="black"/>
<path d="M27.6694 15C25.8716 15 24.2889 15.9336 23.4028 17.3922H19.6212C19.5227 17.3922 19.4315 17.4251 19.3623 17.4943L16.113 20.7471C16.0438 20.8164 16 20.9039 16 21.0024V31.1693C16 32.1758 16.8314 33 17.8378 33H26.5643C27.5708 33 28.3986 32.1722 28.3986 31.1693V24.9737C30.8054 24.6236 32.6907 22.534 32.6907 20.0142C32.6907 17.2464 30.4371 15 27.6693 15L27.6694 15ZM19.2456 18.6248V19.7589C19.2456 20.2403 18.8627 20.6378 18.3813 20.6378H17.2581L19.2456 18.6248ZM26.5644 32.2706H17.8379C17.2362 32.2706 16.7294 31.771 16.7294 31.1693V21.3671H18.3813C19.2674 21.3671 19.9748 20.6451 19.9748 19.7589V18.1216H23.0308C22.7901 18.7051 22.6552 19.3469 22.6552 20.018C22.6552 21.2578 23.1074 22.3882 23.8513 23.2634H20.5657C20.3651 23.2634 20.201 23.4275 20.201 23.6281C20.201 23.8287 20.3651 23.9928 20.5657 23.9928H24.6171C25.4595 24.6492 26.4988 25.0212 27.6657 25.0248V31.1694C27.6694 31.7711 27.1662 32.2707 26.5645 32.2707L26.5644 32.2706ZM27.6694 24.2953C25.3062 24.2953 23.3845 22.3735 23.3845 20.0105C23.3845 17.6476 25.3064 15.7221 27.6694 15.7221C30.0323 15.7221 31.9578 17.6476 31.9578 20.0105C31.9578 22.3735 30.0359 24.2953 27.6694 24.2953Z" fill="black"/>
<path d="M19.0925 23.2633H18.0167C17.8161 23.2633 17.652 23.4274 17.652 23.628C17.652 23.8285 17.8161 23.9926 18.0167 23.9926H19.0925C19.2931 23.9926 19.4572 23.8285 19.4572 23.628C19.4572 23.4274 19.2931 23.2633 19.0925 23.2633Z" fill="black"/>
<path d="M26.3858 26.1806H20.5693C20.3688 26.1806 20.2047 26.3447 20.2047 26.5453C20.2047 26.7459 20.3688 26.91 20.5693 26.91H26.3858C26.5864 26.91 26.7505 26.7459 26.7505 26.5453C26.7505 26.3447 26.5864 26.1806 26.3858 26.1806Z" fill="black"/>
<path d="M19.0925 26.1806H18.0167C17.8161 26.1806 17.652 26.3447 17.652 26.5453C17.652 26.7459 17.8161 26.91 18.0167 26.91H19.0925C19.2931 26.91 19.4572 26.7459 19.4572 26.5453C19.4572 26.3447 19.2931 26.1806 19.0925 26.1806Z" fill="black"/>
<path d="M26.3858 29.0979H20.5693C20.3688 29.0979 20.2047 29.262 20.2047 29.4626C20.2047 29.6632 20.3688 29.8273 20.5693 29.8273H26.3858C26.5864 29.8273 26.7505 29.6632 26.7505 29.4626C26.7505 29.262 26.5864 29.0979 26.3858 29.0979Z" fill="black"/>
<path d="M19.0925 29.0979H18.0167C17.8161 29.0979 17.652 29.262 17.652 29.4626C17.652 29.6632 17.8161 29.8273 18.0167 29.8273H19.0925C19.2931 29.8273 19.4572 29.6632 19.4572 29.4626C19.4572 29.262 19.2931 29.0979 19.0925 29.0979Z" fill="black"/>
</svg>
