<svg width="35" height="34" viewBox="0 0 35 34" fill="none" xmlns="http://www.w3.org/2000/svg">
<path d="M23.6191 0.046875L23.8174 0.0566406C24.2751 0.10286 24.7056 0.307085 25.0332 0.635742L33.5898 9.21875C33.9172 9.54732 34.1183 9.97797 34.1631 10.4355L34.1729 10.6328L34.1533 22.7529C34.1526 23.217 33.9914 23.6651 33.6992 24.0205L33.5654 24.167L24.9824 32.7236C24.6538 33.0511 24.2224 33.2521 23.7646 33.2969L23.5674 33.3066L11.4473 33.2871C10.9171 33.2861 10.4085 33.0747 10.0342 32.6992L1.47754 24.1162C1.10327 23.7406 0.892806 23.2314 0.893555 22.7012L0.913086 10.5811C0.914048 10.0508 1.1264 9.54234 1.50195 9.16797L10.085 0.611328L10.2314 0.478516C10.5876 0.18774 11.0352 0.0267823 11.499 0.0273438L23.6191 0.046875ZM2.91309 10.584L2.89355 22.7041L11.4502 31.2871L23.5703 31.3066L32.1533 22.75L32.1729 10.6299L23.6162 2.04688L11.4961 2.02734L2.91309 10.584ZM25.7695 8.13379C26.4484 8.13386 27 8.69518 27 9.38379L26.999 20.5908C26.9988 21.2802 26.4465 21.8398 25.7686 21.8398H21.7617L22.6055 23.3115C22.6883 23.4567 22.6903 23.6292 22.6084 23.7734C22.5265 23.9186 22.3749 24.0078 22.2119 24.0078H13.6035C13.4407 24.0077 13.2889 23.9176 13.207 23.7734C13.1252 23.6292 13.1264 23.4566 13.21 23.3115L14.0547 21.8398H13.0049C12.6929 21.9823 12.3672 22.0856 12.0361 22.1484V22.6787C12.2374 22.6912 12.3975 22.8613 12.3975 23.0684V26.9697C12.3975 27.6113 11.8836 28.1336 11.252 28.1338C10.6201 28.1338 10.1055 27.6115 10.1055 26.9697V23.0684C10.1055 22.8605 10.2657 22.6913 10.4668 22.6787V22.1484C9.65214 21.9944 8.87325 21.5978 8.24414 20.959C6.58563 19.2744 6.58563 16.534 8.24414 14.8496C8.42367 14.6673 8.61509 14.5038 8.81641 14.3613V9.38477C8.81641 8.6953 9.36892 8.13489 10.0469 8.13477H25.7695V8.13379ZM10.7344 24.4014V26.9688C10.7344 27.2582 10.9661 27.4941 11.252 27.4941H11.2529C11.5377 27.4939 11.7705 27.2589 11.7705 26.9688V24.4014H10.7344ZM10.7344 23.3135V23.7637H11.7705V23.3135H10.7344ZM14.7803 21.8389L13.9023 23.3691H21.9141L21.0352 21.8389H14.7803ZM11.2529 22.2217C11.2006 22.2217 11.148 22.2195 11.0957 22.2178V22.6768H11.4092V22.2178C11.3571 22.2195 11.305 22.2217 11.2529 22.2217ZM13.8154 15.2988C12.4011 13.8634 10.101 13.8632 8.6875 15.2988C7.27422 16.7344 7.27429 19.0712 8.6875 20.5068C9.39419 21.2247 10.3238 21.584 11.252 21.584C12.1808 21.584 13.1086 21.2246 13.8154 20.5068C14.5004 19.8112 14.8779 18.8866 14.8779 17.9033C14.8779 16.92 14.5005 15.9946 13.8154 15.2988ZM14.8047 20.2803C14.6469 20.521 14.4645 20.7491 14.2588 20.958C14.1744 21.0428 14.0876 21.1243 13.998 21.2012H25.7695V21.2021C26.1023 21.2021 26.3728 20.9269 26.373 20.5898V20.2803H14.8047ZM11.252 14.7549C12.0797 14.755 12.8578 15.0821 13.4434 15.6768C14.029 16.2716 14.3516 17.0624 14.3516 17.9033C14.3515 18.7441 14.0289 19.5342 13.4434 20.1289C12.8578 20.7237 12.0798 21.0517 11.252 21.0518C10.424 21.0518 9.64524 20.7237 9.05957 20.1289C8.47411 19.5342 8.15144 18.744 8.15137 17.9033C8.15137 17.0624 8.47394 16.2716 9.05957 15.6768C9.64522 15.0819 10.424 14.7549 11.252 14.7549ZM11.2529 15.3916C10.5923 15.3916 9.97104 15.6525 9.50391 16.127H9.50488C8.54102 17.1058 8.54113 18.6987 9.50488 19.6777C10.4687 20.6567 12.0371 20.6567 13.001 19.6777C13.9648 18.6988 13.9649 17.1059 13.001 16.127C12.5339 15.6527 11.9133 15.3917 11.2529 15.3916ZM10.0469 8.77148C9.71411 8.77168 9.44434 9.04668 9.44434 9.38379V13.9922C9.66135 13.8895 9.88592 13.8059 10.1143 13.7422V9.83105C10.1144 9.655 10.2544 9.5127 10.4277 9.5127H25.3896C25.563 9.5127 25.703 9.655 25.7031 9.83105L25.7041 18.6992C25.7039 18.8752 25.5639 19.0176 25.3906 19.0176H15.3643C15.3085 19.2318 15.2356 19.4408 15.1484 19.6426H26.374V9.38379C26.374 9.04653 26.1026 8.77148 25.7705 8.77148H10.0469ZM24.3203 15.7119C24.3308 15.8881 24.1999 16.0402 24.0273 16.0508L21.8662 16.1875C21.8592 16.1884 21.8518 16.1885 21.8457 16.1885C21.7457 16.1884 21.652 16.1397 21.5928 16.0576L20.8018 14.9541L19.4795 15.6367C19.3315 15.7125 19.15 15.6586 19.0664 15.5137L18.0801 13.8066L16.7344 15.7109C16.6751 15.7949 16.5793 15.8464 16.4766 15.8438C16.3746 15.842 16.2782 15.79 16.2207 15.7041L15.5 14.6328L14.5791 15.2119C15.1795 15.974 15.5059 16.9129 15.5059 17.9033C15.5059 18.0643 15.496 18.2234 15.4795 18.3809H25.0762V10.1504H10.7412V13.6162C11.9439 13.4702 13.1971 13.8442 14.1436 14.7363L15.4238 13.9307C15.5666 13.8414 15.7526 13.8811 15.8477 14.0215L16.4863 14.9697L17.8516 13.0371C17.9134 12.9496 18.0148 12.899 18.1211 12.9043C18.2274 12.9087 18.3229 12.9686 18.377 13.0615L19.459 14.9316L20.7568 14.2627C20.8945 14.192 21.0617 14.2328 21.1523 14.3594L21.998 15.541L23.9883 15.4141C24.1607 15.4035 24.3096 15.5369 24.3203 15.7119Z" fill="black"/>
</svg>
