<svg width="35" height="34" viewBox="0 0 35 34" fill="none" xmlns="http://www.w3.org/2000/svg">
<path d="M23.6191 0.114258L23.8174 0.123047C24.2751 0.169258 24.7056 0.37348 25.0332 0.702148L33.5898 9.28516C33.9172 9.61365 34.1182 10.0444 34.1631 10.502L34.1729 10.7002L34.1533 22.8193C34.1526 23.2834 33.9913 23.7315 33.6992 24.0869L33.5654 24.2334L24.9824 32.79C24.6538 33.1175 24.2224 33.3185 23.7646 33.3633L23.5674 33.373L11.4473 33.3545C10.917 33.3535 10.4085 33.1412 10.0342 32.7656L1.47754 24.1826C1.10339 23.8072 0.892933 23.2986 0.893555 22.7686L0.913086 10.6484C0.913921 10.118 1.12629 9.60886 1.50195 9.23438L10.085 0.677734L10.2314 0.545898C10.5876 0.255123 11.0352 0.0941649 11.499 0.0947266L23.6191 0.114258ZM2.91309 10.6514L2.89355 22.7705L11.4502 31.3545L23.5703 31.373L32.1533 22.8164L32.1729 10.6973L23.6162 2.11426L11.4961 2.09473L2.91309 10.6514ZM21.6689 8C24.4368 8 26.6904 10.2468 26.6904 13.0146C26.6902 15.5343 24.8051 17.6236 22.3984 17.9736V24.1689C22.3984 25.1718 21.5709 25.9999 20.5645 26H11.8379C10.8315 26 10 25.1754 10 24.1689V14.002C10.0001 13.9037 10.0441 13.8163 10.1133 13.7471L13.3623 10.4941C13.4316 10.425 13.5227 10.3926 13.6211 10.3926H17.4023C18.2884 8.93404 19.8713 8.00017 21.6689 8ZM13.9746 12.7588C13.9746 13.6449 13.267 14.3672 12.3809 14.3672H10.7295V24.1689C10.7295 24.7706 11.2362 25.2705 11.8379 25.2705H20.5645C21.1662 25.2705 21.6697 24.7706 21.666 24.1689V18.0244C20.4992 18.0208 19.4595 17.6495 18.6172 16.9932H14.5654C14.365 16.993 14.2012 16.8284 14.2012 16.6279C14.2013 16.4275 14.365 16.2638 14.5654 16.2637H17.8516C17.1076 15.3885 16.6553 14.2575 16.6553 13.0176C16.6553 12.3467 16.7907 11.7054 17.0312 11.1221H13.9746V12.7588ZM13.0928 22.0977C13.2932 22.0978 13.457 22.2624 13.457 22.4629C13.4569 22.6632 13.2931 22.827 13.0928 22.8271H12.0166C11.8162 22.8271 11.6525 22.6633 11.6523 22.4629C11.6523 22.2624 11.8161 22.0977 12.0166 22.0977H13.0928ZM20.3857 22.0977C20.5863 22.0977 20.75 22.2623 20.75 22.4629C20.7499 22.6633 20.5862 22.8271 20.3857 22.8271H14.5693C14.3689 22.8271 14.2052 22.6633 14.2051 22.4629C14.2051 22.2623 14.3688 22.0977 14.5693 22.0977H20.3857ZM13.0928 19.1807C13.2931 19.1808 13.4568 19.3446 13.457 19.5449C13.457 19.7454 13.2932 19.91 13.0928 19.9102H12.0166C11.8161 19.9101 11.6523 19.7455 11.6523 19.5449C11.6525 19.3446 11.8162 19.1807 12.0166 19.1807H13.0928ZM20.3857 19.1807C20.5862 19.1807 20.7498 19.3445 20.75 19.5449C20.75 19.7455 20.5863 19.9102 20.3857 19.9102H14.5693C14.3688 19.9102 14.2051 19.7455 14.2051 19.5449C14.2053 19.3445 14.3689 19.1807 14.5693 19.1807H20.3857ZM21.6689 8.72168C19.3062 8.7219 17.3848 10.6479 17.3848 13.0107C17.3849 15.3735 19.3061 17.2947 21.6689 17.2949C24.0354 17.2949 25.9579 15.3736 25.958 13.0107C25.958 10.6478 24.0319 8.72168 21.6689 8.72168ZM13.0928 16.2637C13.2932 16.2638 13.457 16.4275 13.457 16.6279C13.457 16.8284 13.2932 16.992 13.0928 16.9922H12.0166C11.8161 16.9921 11.6523 16.8285 11.6523 16.6279C11.6524 16.4274 11.8161 16.2637 12.0166 16.2637H13.0928ZM23.2451 10.3926C23.3907 10.3927 23.5217 10.4797 23.5801 10.6143C23.6384 10.7491 23.6099 10.9067 23.5078 11.0088L22.625 11.9277L23.5078 12.8467C23.6097 12.9524 23.6384 13.1054 23.5801 13.2402C23.5218 13.375 23.3909 13.455 23.2451 13.4551H20.5391V15.2061C20.5389 15.4065 20.3743 15.5703 20.1738 15.5703C19.9736 15.5701 19.8097 15.4064 19.8096 15.2061V10.7607C19.8096 10.5565 19.9664 10.3926 20.167 10.3926H23.2451ZM11.2578 13.6377H12.3809C12.8622 13.6377 13.2451 13.2402 13.2451 12.7588V11.625L11.2578 13.6377ZM20.5391 12.7266H22.3916L21.8594 12.1797C21.7244 12.0375 21.7244 11.8144 21.8594 11.6758L22.3916 11.1221H20.5391V12.7266Z" fill="black"/>
</svg>
