<svg width="48" height="48" viewBox="0 0 48 48" fill="none" xmlns="http://www.w3.org/2000/svg">
<path d="M7.89388 30.3179L7.91438 17.3694L17.0843 8.22868L30.0319 8.2488L39.1735 17.4191L39.1534 30.3667L29.9831 39.5083L17.0346 39.4878L7.89388 30.3179Z" stroke="black" stroke-width="2"/>
<path d="M23.7143 32.0487H17.2857V16.6201H24.3571V18.5487C24.3571 18.8897 24.4926 19.2167 24.7337 19.4578C24.9748 19.6989 25.3019 19.8344 25.6429 19.8344H27.5714V23.0487C27.5714 23.2784 27.694 23.4906 27.8928 23.6054C28.0917 23.7203 28.3368 23.7203 28.5357 23.6054C28.7346 23.4906 28.8571 23.2784 28.8571 23.0487V19.1915C28.8581 19.0207 28.791 18.8565 28.6707 18.7351L25.4564 15.5208C25.3351 15.4005 25.1709 15.3334 25 15.3344H17.2857C16.9447 15.3344 16.6177 15.4699 16.3766 15.711C16.1355 15.9521 16 16.2791 16 16.6201V32.0487C16 32.3897 16.1355 32.7167 16.3766 32.9578C16.6177 33.1989 16.9447 33.3344 17.2857 33.3344H23.7143C23.944 33.3344 24.1562 33.2119 24.271 33.013C24.3859 32.8141 24.3859 32.569 24.271 32.3701C24.1562 32.1712 23.944 32.0487 23.7143 32.0487ZM25.6429 17.5266L26.665 18.5488H25.6429V17.5266Z" fill="black"/>
<path d="M24.1 22.065C24.2673 21.7781 24.3559 21.4522 24.3571 21.12C24.3571 20.431 23.9896 19.7943 23.3929 19.4498C22.7961 19.1053 22.061 19.1053 21.4643 19.4498C20.8676 19.7943 20.5 20.431 20.5 21.12C20.5012 21.4522 20.5899 21.7781 20.7571 22.065C20.1985 22.4173 19.8588 23.031 19.8571 23.6915C19.8571 23.9211 19.9797 24.1333 20.1786 24.2482C20.3775 24.363 20.6225 24.363 20.8214 24.2482C21.0203 24.1334 21.1429 23.9212 21.1429 23.6915C21.1429 23.521 21.2106 23.3574 21.3312 23.2369C21.4517 23.1163 21.6152 23.0486 21.7857 23.0486H23.0714C23.2419 23.0486 23.4054 23.1163 23.526 23.2369C23.6466 23.3574 23.7143 23.521 23.7143 23.6915C23.7143 23.9211 23.8368 24.1333 24.0357 24.2482C24.2346 24.363 24.4797 24.363 24.6786 24.2482C24.8775 24.1334 25 23.9212 25 23.6915C24.9983 23.031 24.6587 22.4173 24.1 22.065ZM22.4286 20.4772C22.5991 20.4772 22.7626 20.5449 22.8831 20.6655C23.0037 20.786 23.0714 20.9495 23.0714 21.12C23.0714 21.2905 23.0037 21.454 22.8831 21.5746C22.7626 21.6952 22.5991 21.7629 22.4286 21.7629C22.2581 21.7629 22.0946 21.6952 21.974 21.5746C21.8534 21.4541 21.7857 21.2905 21.7857 21.12C21.7857 20.9495 21.8534 20.786 21.974 20.6655C22.0945 20.5449 22.2581 20.4772 22.4286 20.4772Z" fill="black"/>
<path d="M32.3354 27.5487L30.034 25.2409C29.7928 24.9995 29.4656 24.8638 29.1243 24.8638C28.7831 24.8638 28.4558 24.9995 28.2147 25.2409L24.6212 28.8344C24.3798 29.0755 24.2441 29.4028 24.2441 29.744C24.2441 30.0853 24.3798 30.4125 24.6212 30.6537L26.929 32.9551C27.1701 33.1965 27.4974 33.3322 27.8386 33.3322C28.1799 33.3322 28.5071 33.1965 28.7483 32.9551L32.3354 29.368C32.5768 29.1268 32.7125 28.7996 32.7125 28.4583C32.7125 28.1171 32.5768 27.7898 32.3354 27.5487ZM25.534 29.7409L26.2283 29.0466L28.536 31.3481L27.8353 32.0488L25.534 29.7409ZM29.4425 30.4416L27.1411 28.1339L29.1211 26.1539L31.4289 28.4553L29.4425 30.4416Z" fill="black"/>
<path d="M25 26.263C25 26.0925 24.9323 25.929 24.8117 25.8084C24.6912 25.6878 24.5276 25.6201 24.3571 25.6201H19.2143C18.9846 25.6201 18.7724 25.7427 18.6575 25.9415C18.5427 26.1404 18.5427 26.3855 18.6575 26.5844C18.7724 26.7833 18.9846 26.9058 19.2143 26.9058H24.3571C24.5276 26.9058 24.6912 26.8381 24.8117 26.7175C24.9323 26.597 25 26.4335 25 26.263Z" fill="black"/>
<path d="M19.2143 28.1915C18.9846 28.1915 18.7724 28.3141 18.6575 28.513C18.5427 28.7119 18.5427 28.9569 18.6575 29.1558C18.7724 29.3547 18.9846 29.4773 19.2143 29.4773H22.4286C22.6583 29.4773 22.8705 29.3547 22.9853 29.1558C23.1002 28.9569 23.1002 28.7119 22.9853 28.513C22.8705 28.3141 22.6583 28.1915 22.4286 28.1915H19.2143Z" fill="black"/>
</svg>
