<svg width="48" height="48" viewBox="0 0 48 48" fill="none" xmlns="http://www.w3.org/2000/svg">
<path d="M7.89388 30.1172L7.91438 17.1687L17.0843 8.02803L30.0319 8.04815L39.1735 17.2184L39.1534 30.166L29.9831 39.3076L17.0346 39.2871L7.89388 30.1172Z" stroke="black" stroke-width="2"/>
<path d="M31.7695 15.1346H16.0471C15.369 15.1346 14.8165 15.6949 14.8165 16.3844V21.3616C14.6152 21.5041 14.4234 21.667 14.2439 21.8493C12.5854 23.5338 12.5854 26.2741 14.2439 27.9586C14.8731 28.5977 15.6523 28.9943 16.4672 29.1483V29.6785C16.2659 29.6909 16.1055 29.8599 16.1055 30.0679V33.9698C16.1055 34.6115 16.6197 35.1338 17.2516 35.1338C17.8834 35.1338 18.3976 34.6115 18.3976 33.9698V30.0679C18.3976 29.8608 18.2373 29.6909 18.036 29.6785V29.1483C18.3671 29.0854 18.6931 28.9827 19.0051 28.8403H20.0544L19.2099 30.3114C19.1262 30.4565 19.1254 30.6291 19.2073 30.7734C19.2892 30.9177 19.4409 31.008 19.6038 31.008H28.2118C28.3748 31.008 28.5265 30.9186 28.6084 30.7734C28.6903 30.6291 28.6886 30.4565 28.6058 30.3114L27.7613 28.8403H31.7685C32.4466 28.8403 32.9991 28.2799 32.9991 27.5904L33 16.3836C33 15.6949 32.4483 15.1338 31.7694 15.1338L31.7695 15.1346ZM15.4441 16.3835C15.4441 16.0463 15.7143 15.7719 16.0472 15.7719H31.7706C32.1027 15.7719 32.3737 16.0463 32.3737 16.3835V26.6424H21.1486C21.2358 26.4406 21.3081 26.2317 21.3639 26.0175H31.3907C31.5641 26.0175 31.7045 25.8749 31.7045 25.6988L31.7036 16.8312C31.7036 16.6551 31.5633 16.5126 31.3898 16.5126H16.4276C16.2542 16.5126 16.1139 16.6551 16.1139 16.8312V20.742C15.8855 20.8057 15.6616 20.8898 15.4445 20.9925L15.4441 16.3835ZM30.3212 22.7124C30.3107 22.5371 30.1608 22.4035 29.9883 22.4141L27.9985 22.5407L27.1522 21.359C27.0616 21.2324 26.8943 21.1917 26.7566 21.2625L25.4588 21.9317L24.3773 20.0614C24.3232 19.9684 24.2274 19.9091 24.1211 19.9047C24.0147 19.8994 23.9136 19.9499 23.8518 20.0375L22.4861 21.9698L21.8481 21.0218C21.7531 20.8811 21.5666 20.8412 21.4237 20.9306L20.1434 21.7361C19.197 20.8439 17.9437 20.4704 16.741 20.6164V17.1502H31.0759V25.3812H21.4795C21.4961 25.2236 21.5056 25.0643 21.5056 24.9032C21.5056 23.9128 21.1797 22.9736 20.5792 22.2114L21.4995 21.6325L22.2212 22.7045C22.2787 22.7903 22.3745 22.8417 22.4765 22.8434C22.5793 22.8461 22.6752 22.7948 22.7345 22.7107L24.0801 20.8067L25.0667 22.5132C25.1503 22.6584 25.3316 22.7124 25.4798 22.6363L26.8019 21.9538L27.5924 23.0576C27.6516 23.1399 27.7458 23.1886 27.846 23.1886C27.8521 23.1886 27.8591 23.1886 27.866 23.1877L30.0274 23.0505C30.2 23.0399 30.3316 22.8885 30.3211 22.7124L30.3212 22.7124ZM14.6878 22.299C16.1014 20.8633 18.4015 20.8633 19.8158 22.299C20.5008 22.9948 20.8782 23.9197 20.8782 24.903C20.8782 25.8864 20.5008 26.8114 19.8158 27.507C19.109 28.2249 18.1808 28.5843 17.2519 28.5843C16.3237 28.5843 15.3947 28.2249 14.688 27.507C13.2744 26.0713 13.2744 23.7345 14.688 22.2988L14.6878 22.299ZM17.7703 30.3131V30.7636H16.734V30.3131H17.7703ZM17.2517 34.4946C16.9658 34.4946 16.734 34.2582 16.734 33.9688V31.4018H17.7702V33.9688C17.7702 34.2591 17.5375 34.4946 17.2525 34.4946H17.2517ZM17.4086 29.6767H17.0957V29.2182C17.148 29.22 17.2003 29.2217 17.2526 29.2217C17.3049 29.2217 17.3571 29.22 17.4094 29.2182V29.6767H17.4086ZM27.9139 30.3689H19.902L20.7805 28.8385H27.0354L27.9139 30.3689ZM31.7695 28.2011H19.9978C20.0875 28.1241 20.1747 28.0426 20.2592 27.9577C20.4649 27.7488 20.647 27.5213 20.8048 27.2805H32.3727V27.5894C32.3727 27.9267 32.1026 28.202 31.7696 28.202L31.7695 28.2011ZM19.4435 27.1292C20.0292 26.5343 20.3517 25.7439 20.3517 24.903C20.3517 24.0621 20.0292 23.2717 19.4435 22.6769C18.8579 22.0821 18.0796 21.7546 17.2516 21.7546C16.4237 21.7546 15.6454 22.0821 15.0598 22.6769C14.4741 23.2717 14.1516 24.0621 14.1516 24.903C14.1516 25.7439 14.4741 26.5344 15.0598 27.1292C15.6454 27.724 16.4237 28.0515 17.2516 28.0515C18.0796 28.0515 18.8579 27.724 19.4435 27.1292ZM15.5043 23.1274C15.9714 22.653 16.592 22.3919 17.2526 22.3919C17.9132 22.3919 18.5337 22.653 19.0009 23.1274C19.9648 24.1064 19.9648 25.699 19.0009 26.6779C18.037 27.6568 16.4689 27.6568 15.5051 26.6779C14.5412 25.6989 14.5412 24.1063 15.5051 23.1274H15.5043Z" fill="black"/>
</svg>
