<svg width="48" height="48" viewBox="0 0 48 48" fill="none" xmlns="http://www.w3.org/2000/svg">
<path d="M7.89388 29.9835L7.91438 17.035L17.0843 7.89429L30.0319 7.9144L39.1735 17.0847L39.1534 30.0323L29.9831 39.1739L17.0346 39.1534L7.89388 29.9835Z" stroke="black" stroke-width="2"/>
<path d="M26.4485 29.4214H19.7765C19.6727 29.4214 19.5768 29.4767 19.5249 29.5666C19.4731 29.6564 19.4731 29.7671 19.5249 29.857C19.5769 29.9468 19.6727 30.0022 19.7765 30.0022H26.4485C26.5523 30.0022 26.6482 29.9468 26.7001 29.857C26.7519 29.7671 26.7519 29.6564 26.7001 29.5666C26.6481 29.4767 26.5523 29.4214 26.4485 29.4214Z" fill="black"/>
<path d="M19.7766 28.7366H23.3212C23.425 28.7366 23.5209 28.6812 23.5727 28.5913C23.6247 28.5014 23.6247 28.3908 23.5727 28.3009C23.5209 28.211 23.425 28.1557 23.3212 28.1557H19.7766C19.6728 28.1557 19.577 28.211 19.5251 28.3009C19.4732 28.3908 19.4732 28.5014 19.5251 28.5913C19.577 28.6812 19.6729 28.7366 19.7766 28.7366Z" fill="black"/>
<path d="M26.4485 30.6868H19.7765C19.6727 30.6868 19.5768 30.7422 19.5249 30.832C19.4731 30.922 19.4731 31.0326 19.5249 31.1225C19.5769 31.2124 19.6727 31.2677 19.7765 31.2677H26.4485C26.5523 31.2677 26.6482 31.2124 26.7001 31.1225C26.7519 31.0326 26.7519 30.922 26.7001 30.832C26.6481 30.7422 26.5523 30.6868 26.4485 30.6868Z" fill="black"/>
<path d="M31.3382 17.9074C31.3361 17.9014 31.335 17.8952 31.3326 17.8894C31.3268 17.876 31.32 17.8631 31.3123 17.8507C31.31 17.8468 31.3084 17.8426 31.3059 17.8389C31.2953 17.823 31.2832 17.8082 31.2697 17.7947L28.559 15.084C28.5454 15.071 28.5304 15.0592 28.5145 15.049C28.5112 15.0467 28.5074 15.0453 28.5038 15.0432C28.4915 15.0352 28.4786 15.0283 28.4651 15.0223C28.4599 15.0201 28.4543 15.0192 28.4488 15.0172C28.4366 15.0125 28.4239 15.0087 28.4111 15.0056C28.392 15.0019 28.3725 15 28.353 15H19.4202C19.3432 15 19.2693 15.0306 19.2149 15.0851C19.1604 15.1395 19.1298 15.2134 19.1298 15.2904V17.1298H17.2904C17.2134 17.1298 17.1395 17.1604 17.0851 17.2149C17.0306 17.2693 17 17.3432 17 17.4202V32.7096C17 32.7866 17.0306 32.8605 17.0851 32.9149C17.1395 32.9694 17.2134 33 17.2904 33H28.9346C29.0117 33 29.0855 32.9694 29.14 32.9149C29.1944 32.8605 29.2251 32.7866 29.2251 32.7096V30.8702H31.0644C31.1415 30.8702 31.2153 30.8396 31.2698 30.7851C31.3242 30.7307 31.3549 30.6568 31.3549 30.5798V18.0011C31.3549 17.9816 31.353 17.9622 31.3492 17.943C31.3463 17.931 31.3426 17.919 31.3382 17.9074ZM28.6442 15.9915L30.3633 17.7107L28.6442 17.7106V15.9915ZM17.5808 32.4197V17.7112H25.9335V20.1314C25.9335 20.2084 25.9641 20.2823 26.0186 20.3368C26.073 20.3913 26.1469 20.4218 26.2239 20.4218H28.6442V32.4197L17.5808 32.4197ZM28.2335 19.841H26.5144V18.122L28.2335 19.841ZM29.225 30.2899V20.1314C29.225 20.1119 29.2232 20.0925 29.2194 20.0733C29.2164 20.0611 29.2128 20.049 29.2084 20.0371C29.2063 20.0311 29.2051 20.0249 29.2028 20.0191C29.197 20.0057 29.1902 19.9928 29.1824 19.9804C29.1801 19.9765 29.1786 19.9723 29.176 19.9686C29.1654 19.9527 29.1533 19.938 29.1398 19.9245L26.4292 17.2138C26.4157 17.2003 26.4009 17.1882 26.385 17.1776C26.3818 17.1753 26.3779 17.1739 26.3744 17.1718C26.362 17.1638 26.3491 17.1568 26.3356 17.1509C26.3304 17.1488 26.3248 17.1478 26.3194 17.1459L26.3194 17.1458C26.3068 17.141 26.2938 17.1372 26.2807 17.1342C26.2615 17.1304 26.2421 17.1286 26.2226 17.1286H19.7107V15.5797H28.0634V17.9999C28.0634 18.0769 28.094 18.1508 28.1485 18.2053C28.2029 18.2597 28.2768 18.2903 28.3538 18.2903H30.774V30.2899L29.225 30.2899Z" fill="black"/>
<path d="M21.1003 27.1802H25.1249C25.202 27.1802 25.2759 27.1496 25.3303 27.0951C25.3848 27.0407 25.4154 26.9668 25.4154 26.8898V23.6961C25.4154 23.6191 25.3848 23.5452 25.3303 23.4908C25.2759 23.4363 25.202 23.4057 25.1249 23.4057H21.9481V22.6967C21.9678 22.3977 22.1004 22.1174 22.3191 21.9125C22.5379 21.7076 22.8262 21.5936 23.1259 21.5934C23.4256 21.5932 23.7141 21.7069 23.933 21.9116C24.0085 21.9829 24.1163 22.0086 24.2159 21.9789C24.3155 21.9492 24.3916 21.8686 24.4156 21.7675C24.4397 21.6665 24.408 21.5602 24.3325 21.4889C24.0033 21.1776 23.5657 21.0071 23.1127 21.0135C22.6582 21.006 22.2193 21.1789 21.8921 21.4944C21.5649 21.8099 21.3762 22.2422 21.3672 22.6967V23.4057H21.1004C21.0233 23.4057 20.9495 23.4363 20.895 23.4908C20.8406 23.5452 20.8099 23.6191 20.8099 23.6961V26.8897C20.8099 26.9668 20.8406 27.0406 20.895 27.0951C20.9495 27.1496 21.0233 27.1802 21.1004 27.1802L21.1003 27.1802ZM24.8344 26.5993H21.3908V23.9866H24.8345L24.8344 26.5993Z" fill="black"/>
<path d="M23.1126 26.0101C23.1896 26.0101 23.2635 25.9796 23.3179 25.9251C23.3724 25.8706 23.403 25.7967 23.403 25.7197V25.3211C23.403 25.2173 23.3476 25.1214 23.2578 25.0696C23.1679 25.0177 23.0572 25.0177 22.9674 25.0696C22.8775 25.1214 22.8221 25.2173 22.8221 25.3211V25.7198V25.7197C22.8221 25.7967 22.8528 25.8706 22.9072 25.9251C22.9617 25.9796 23.0355 26.0101 23.1126 26.0101Z" fill="black"/>
</svg>
