<svg width="35" height="34" viewBox="0 0 35 34" fill="none" xmlns="http://www.w3.org/2000/svg">
<path d="M23.6191 0.180664L23.8174 0.19043C24.2097 0.230058 24.5821 0.385385 24.8867 0.635742L25.0332 0.769531L33.5898 9.35254C33.9171 9.68111 34.1183 10.1118 34.1631 10.5693L34.1729 10.7666L34.1533 22.8867C34.1526 23.3508 33.9914 23.7989 33.6992 24.1543L33.5654 24.3008L24.9824 32.8574C24.6538 33.1849 24.2224 33.3859 23.7646 33.4307L23.5674 33.4404L11.4473 33.4209C10.9171 33.42 10.4085 33.2084 10.0342 32.833L1.47754 24.25C1.10327 23.8744 0.892805 23.3652 0.893555 22.835L0.913086 10.7148C0.914049 10.1846 1.1264 9.67613 1.50195 9.30176L10.085 0.745117L10.2314 0.612305C10.5876 0.321512 11.0352 0.160551 11.499 0.161133L23.6191 0.180664ZM2.91309 10.7178L2.89355 22.8379L11.4502 31.4209L23.5703 31.4404L32.1533 22.8838L32.1729 10.7637L23.6162 2.18066L11.4961 2.16113L2.91309 10.7178ZM17.4229 18.54C17.6278 18.5401 17.833 18.6418 17.9502 18.8447L20.0186 22.4268C20.2525 22.8324 19.9595 23.3395 19.4912 23.3398H15.3545C14.8858 23.3398 14.5929 22.8326 14.8271 22.4268L16.8955 18.8447C17.0128 18.642 17.2178 18.5401 17.4229 18.54ZM15.627 22.5732H19.2178L17.4229 19.4648L15.627 22.5732ZM9.45312 16.9316L24.4697 16.9512L26.3115 16.9541C26.5595 16.9546 26.7599 17.1557 26.7598 17.4033C26.7595 17.6516 26.5578 17.853 26.3096 17.8525L7.61133 17.8281C7.36304 17.8279 7.16171 17.6259 7.16211 17.3779C7.16238 17.1297 7.36411 16.9282 7.6123 16.9287L9.45312 16.9316ZM9.32617 11.8809C10.6108 11.8809 11.6523 12.9224 11.6523 14.207C11.6522 15.4915 10.6106 16.5329 9.32617 16.5332C8.0416 16.5332 7.00015 15.4916 7 14.207C7 12.9224 8.04155 11.8809 9.32617 11.8809ZM24.2324 11.8809C25.4811 11.881 26.4929 12.893 26.4932 14.1416C26.4932 15.3905 25.4812 16.4032 24.2324 16.4033C22.9835 16.4033 21.9707 15.3905 21.9707 14.1416C21.9709 12.8929 22.9837 11.8809 24.2324 11.8809ZM24.2324 12.6475C23.4084 12.6475 22.7376 13.3176 22.7373 14.1416C22.7373 14.9658 23.4082 15.6367 24.2324 15.6367C25.0565 15.6366 25.7266 14.9659 25.7266 14.1416C25.7263 13.3177 25.0563 12.6476 24.2324 12.6475Z" fill="black"/>
</svg>
