<svg width="35" height="34" viewBox="0 0 35 34" fill="none" xmlns="http://www.w3.org/2000/svg">
<path d="M23.6191 0.248047L23.8174 0.256836C24.2751 0.303044 24.7056 0.507266 25.0332 0.835938L33.5898 9.41895C33.9172 9.74744 34.1182 10.1782 34.1631 10.6357L34.1729 10.834L34.1533 22.9531C34.1526 23.4172 33.9913 23.8653 33.6992 24.2207L33.5654 24.3672L24.9824 32.9238C24.6538 33.2513 24.2224 33.4523 23.7646 33.4971L23.5674 33.5068L11.4482 33.4883C10.9178 33.4874 10.4087 33.2751 10.0342 32.8994L1.47754 24.3164C1.10339 23.941 0.892935 23.4324 0.893555 22.9023L0.913086 10.7822C0.913921 10.2518 1.12629 9.74265 1.50195 9.36816L10.085 0.811523L10.2314 0.679688C10.5876 0.388915 11.0353 0.227957 11.499 0.228516L23.6191 0.248047ZM2.91309 10.7852L2.89355 22.9043L11.4502 31.4883L23.5703 31.5068L32.1533 22.9502L32.1729 10.8311L23.6162 2.24805L11.4961 2.22852L2.91309 10.7852ZM19 8.33398C19.1707 8.33297 19.3348 8.4004 19.4561 8.52051L22.6709 11.7354C22.7911 11.8566 22.8584 12.0207 22.8574 12.1914V16.0488C22.8574 16.2784 22.7348 16.4906 22.5361 16.6055C22.3372 16.7203 22.0915 16.7203 21.8926 16.6055C21.6939 16.4906 21.5713 16.2784 21.5713 16.0488V12.834H19.6426C19.3017 12.8339 18.9744 12.6991 18.7334 12.458C18.4923 12.217 18.3575 11.8897 18.3574 11.5488V9.62012H11.2861V25.0488H17.7139C17.9436 25.0488 18.1566 25.1712 18.2715 25.3701C18.3861 25.5688 18.3861 25.8139 18.2715 26.0127C18.1566 26.2116 17.9435 26.334 17.7139 26.334H11.2861C10.9453 26.334 10.618 26.199 10.377 25.958C10.1358 25.717 10 25.3898 10 25.0488V9.62012C10 9.27915 10.1358 8.952 10.377 8.71094C10.618 8.46992 10.9452 8.33398 11.2861 8.33398H19ZM23.124 17.8643C23.4653 17.8643 23.793 17.9998 24.0342 18.2412L26.335 20.5488C26.5763 20.7899 26.7128 21.1169 26.7129 21.458C26.7129 21.7993 26.5764 22.127 26.335 22.3682L22.748 25.9551C22.507 26.1964 22.18 26.332 21.8389 26.332C21.4976 26.332 21.1698 26.1965 20.9287 25.9551L18.6211 23.6533C18.3799 23.4122 18.2442 23.0852 18.2441 22.7441C18.2441 22.4029 18.3797 22.0751 18.6211 21.834L22.2148 18.2412C22.4559 17.9999 22.7829 17.8643 23.124 17.8643ZM19.5342 22.7412L21.835 25.0488L22.5361 24.3477L20.2285 22.0469L19.5342 22.7412ZM21.1416 21.1338L23.4424 23.4414L25.4287 21.4551L23.1211 19.1543L21.1416 21.1338ZM16.4287 21.1914C16.6583 21.1915 16.8705 21.314 16.9854 21.5127C17.1002 21.7116 17.1002 21.9574 16.9854 22.1562C16.8705 22.3549 16.6582 22.4775 16.4287 22.4775H13.2139C12.9844 22.4774 12.772 22.3549 12.6572 22.1562C12.5424 21.9574 12.5424 21.7116 12.6572 21.5127C12.772 21.314 12.9844 21.1916 13.2139 21.1914H16.4287ZM18.3574 18.6201C18.5278 18.6202 18.6911 18.6881 18.8115 18.8086C18.9321 18.9291 18.9999 19.0923 19 19.2627C19 19.4332 18.9321 19.5972 18.8115 19.7178C18.6911 19.8382 18.5277 19.9062 18.3574 19.9062H13.2139C12.9843 19.9061 12.772 19.7828 12.6572 19.584C12.5427 19.3852 12.5425 19.1401 12.6572 18.9414C12.772 18.7426 12.9844 18.6203 13.2139 18.6201H18.3574ZM15.4639 12.4502C16.0606 12.1057 16.7959 12.1058 17.3926 12.4502C17.9893 12.7947 18.3574 13.4311 18.3574 14.1201C18.3562 14.4522 18.2669 14.7785 18.0996 15.0654C18.6583 15.4177 18.9983 16.031 19 16.6914C19 16.921 18.8775 17.1332 18.6787 17.248C18.4799 17.3628 18.235 17.3628 18.0361 17.248C17.8372 17.1332 17.7139 16.9211 17.7139 16.6914C17.7139 16.5211 17.6467 16.3578 17.5264 16.2373C17.4058 16.1167 17.2418 16.0488 17.0713 16.0488H15.7861C15.6156 16.0488 15.4516 16.1167 15.3311 16.2373C15.2106 16.3578 15.1426 16.5211 15.1426 16.6914C15.1426 16.9211 15.0202 17.1332 14.8213 17.248C14.6224 17.3629 14.3776 17.3629 14.1787 17.248C13.9798 17.1332 13.8574 16.9211 13.8574 16.6914C13.8591 16.0311 14.1984 15.4177 14.7568 15.0654C14.5896 14.7785 14.5012 14.4522 14.5 14.1201C14.5 13.4313 14.8674 12.7948 15.4639 12.4502ZM16.4287 13.4775C16.2582 13.4775 16.0942 13.5445 15.9736 13.665C15.853 13.7856 15.7861 13.9496 15.7861 14.1201C15.7862 14.2904 15.8533 14.4537 15.9736 14.5742C16.0942 14.6948 16.2582 14.7627 16.4287 14.7627C16.5992 14.7627 16.7623 14.6948 16.8828 14.5742C17.0034 14.4537 17.0713 14.2906 17.0713 14.1201C17.0713 13.9496 17.0034 13.7856 16.8828 13.665C16.7623 13.5447 16.599 13.4776 16.4287 13.4775ZM19.6426 11.5488H20.665L19.6426 10.5264V11.5488Z" fill="black"/>
</svg>
