<svg width="35" height="35" viewBox="0 0 35 35" fill="none" xmlns="http://www.w3.org/2000/svg">
<path d="M23.6191 0.913086L23.8174 0.922852C24.2751 0.969071 24.7056 1.1733 25.0332 1.50195L33.5898 10.085C33.9172 10.4135 34.1183 10.8442 34.1631 11.3018L34.1729 11.499L34.1533 23.6191C34.1526 24.0833 33.9914 24.5313 33.6992 24.8867L33.5654 25.0332L24.9824 33.5898C24.6538 33.9173 24.2224 34.1183 23.7646 34.1631L23.5674 34.1729L11.4473 34.1533C10.9171 34.1524 10.4085 33.9409 10.0342 33.5654L1.47754 24.9824C1.10327 24.6069 0.892806 24.0976 0.893555 23.5674L0.913086 11.4482C0.913921 10.9178 1.12629 10.4087 1.50195 10.0342L10.085 1.47754L10.2314 1.34473C10.5876 1.05395 11.0352 0.892993 11.499 0.893555L23.6191 0.913086ZM2.91309 11.4502L2.89355 23.5703L11.4502 32.1533L23.5703 32.1729L32.1533 23.6162L32.1729 11.4961L23.6162 2.91309L11.4961 2.89355L2.91309 11.4502ZM22.4111 9.00586C22.4239 9.00888 22.437 9.01287 22.4492 9.01758C22.4545 9.01939 22.4598 9.02045 22.4648 9.02246C22.4783 9.02844 22.4916 9.035 22.5039 9.04297C22.5074 9.04509 22.5114 9.04653 22.5146 9.04883C22.5305 9.05898 22.545 9.07102 22.5586 9.08398L25.2695 11.7949C25.283 11.8084 25.2951 11.8231 25.3057 11.8389C25.3082 11.8426 25.3102 11.8467 25.3125 11.8506C25.3202 11.863 25.3272 11.8763 25.333 11.8896C25.3352 11.8953 25.3359 11.9014 25.3379 11.9072C25.3422 11.9188 25.3466 11.9313 25.3496 11.9434C25.3533 11.9624 25.3545 11.9817 25.3545 12.001V24.5801C25.3544 24.657 25.3239 24.7308 25.2695 24.7852C25.2151 24.8395 25.1414 24.8701 25.0645 24.8701H23.2246V26.71C23.2245 26.7868 23.194 26.8607 23.1396 26.915C23.0852 26.9694 23.0115 27 22.9346 27H11.29C11.2132 26.9999 11.1393 26.9694 11.085 26.915C11.0306 26.8607 11.0001 26.7868 11 26.71V11.4199C11.0001 11.343 11.0306 11.2692 11.085 11.2148C11.1393 11.1605 11.2132 11.13 11.29 11.1299H13.1299V9.29004C13.13 9.21315 13.1605 9.13932 13.2148 9.08496C13.2692 9.03061 13.343 9.00008 13.4199 9H22.3525C22.372 9 22.392 9.00211 22.4111 9.00586ZM11.5811 26.4199H22.6445V14.4219H20.2236C20.1467 14.4218 20.0729 14.3913 20.0186 14.3369C19.9642 14.2825 19.9337 14.2087 19.9336 14.1318V11.7109H11.5811V26.4199ZM20.4482 24.6865C20.552 24.6865 20.6483 24.7422 20.7002 24.832C20.752 24.9218 20.7518 25.0323 20.7002 25.1221C20.6483 25.212 20.552 25.2676 20.4482 25.2676H13.7764C13.6726 25.2675 13.5773 25.212 13.5254 25.1221C13.4736 25.0322 13.4736 24.9219 13.5254 24.832C13.5773 24.7423 13.6727 24.6866 13.7764 24.6865H20.4482ZM13.7109 11.1289H20.2227C20.242 11.1288 20.2613 11.1301 20.2803 11.1338C20.2933 11.1367 20.3067 11.1408 20.3193 11.1455C20.3248 11.1474 20.3307 11.1493 20.3359 11.1514C20.3491 11.1572 20.3619 11.1641 20.374 11.1719C20.3775 11.174 20.3815 11.1755 20.3848 11.1777C20.4006 11.1883 20.4153 11.2005 20.4287 11.2139L23.1396 13.9248C23.1531 13.9383 23.1652 13.9529 23.1758 13.9688C23.1783 13.9724 23.1803 13.9766 23.1826 13.9805C23.1903 13.9928 23.1973 14.0062 23.2031 14.0195C23.2053 14.0252 23.206 14.0313 23.208 14.0371C23.2124 14.049 23.2168 14.061 23.2197 14.0732C23.2235 14.0924 23.2246 14.1124 23.2246 14.1318V24.29H24.7744V12.29H22.3535C22.2766 12.29 22.2028 12.2595 22.1484 12.2051C22.0941 12.1507 22.0635 12.0769 22.0635 12V9.58008H13.7109V11.1289ZM20.4482 23.4209C20.552 23.4209 20.6483 23.4766 20.7002 23.5664C20.752 23.6563 20.752 23.7676 20.7002 23.8574C20.6483 23.9471 20.5519 24.002 20.4482 24.002H13.7764C13.6728 24.0019 13.5774 23.9469 13.5254 23.8574C13.4735 23.7676 13.4735 23.6563 13.5254 23.5664C13.5773 23.4768 13.6728 23.4209 13.7764 23.4209H20.4482ZM17.3213 22.1553C17.4249 22.1553 17.5204 22.2111 17.5723 22.3008C17.6242 22.3906 17.6242 22.5019 17.5723 22.5918C17.5204 22.6813 17.4248 22.7363 17.3213 22.7363H13.7764C13.6729 22.7362 13.5773 22.6813 13.5254 22.5918C13.4735 22.5019 13.4735 22.3906 13.5254 22.3008C13.5773 22.2111 13.6728 22.1554 13.7764 22.1553H17.3213ZM17.1123 15.0137C17.5653 15.0072 18.0029 15.178 18.332 15.4893C18.4075 15.5606 18.4401 15.6665 18.416 15.7676C18.392 15.8686 18.3154 15.9488 18.2158 15.9785C18.1162 16.0082 18.0081 15.9825 17.9326 15.9111C17.7138 15.7068 17.4254 15.5936 17.126 15.5938C16.8264 15.5939 16.538 15.7074 16.3193 15.9121C16.1007 16.1169 15.9681 16.3974 15.9482 16.6963V17.4053H19.125C19.202 17.4053 19.2756 17.4368 19.3301 17.4912C19.3845 17.5457 19.415 17.6193 19.415 17.6963V20.8896C19.415 20.9666 19.3845 21.0403 19.3301 21.0947C19.2756 21.1492 19.202 21.1807 19.125 21.1807L15.1006 21.1797C15.0236 21.1797 14.95 21.1491 14.8955 21.0947C14.8411 21.0403 14.8096 20.9667 14.8096 20.8896V17.6963C14.8096 17.6193 14.8411 17.5457 14.8955 17.4912C14.95 17.4368 15.0236 17.4053 15.1006 17.4053H15.3672V16.6963C15.3762 16.242 15.5655 15.8096 15.8926 15.4941C16.2197 15.179 16.6582 15.0062 17.1123 15.0137ZM15.3906 20.5996H18.834L18.835 17.9863H15.3906V20.5996ZM16.9678 19.0693C17.0575 19.0177 17.1681 19.0175 17.2578 19.0693C17.3477 19.1212 17.4033 19.2175 17.4033 19.3213V19.7197C17.4033 19.7966 17.3726 19.8703 17.3184 19.9248C17.2639 19.9793 17.1893 20.0098 17.1123 20.0098C17.0354 20.0097 16.9616 19.9792 16.9072 19.9248C16.8664 19.8839 16.8393 19.8322 16.8281 19.7764L16.8223 19.7197V19.3213C16.8223 19.2175 16.8779 19.1212 16.9678 19.0693ZM20.5146 13.8408H22.2334L20.5146 12.1221V13.8408ZM22.6445 11.7109H24.3633L22.6445 9.99121V11.7109Z" fill="black"/>
</svg>
