<svg width="48" height="48" viewBox="0 0 48 48" fill="none" xmlns="http://www.w3.org/2000/svg">
<path d="M7.89388 30.0504L7.91438 17.1019L17.0843 7.96116L30.0319 7.98128L39.1735 17.1516L39.1534 30.0992L29.9831 39.2408L17.0346 39.2203L7.89388 30.0504Z" stroke="black" stroke-width="2"/>
<path d="M28.4107 20.3084L25.9154 17.8547C25.8584 17.7987 25.7804 17.7669 25.6998 17.7669H19.3243C18.9244 17.7674 18.6005 18.0859 18.6 18.4791V30.0671C18.6 30.1463 18.6323 30.2225 18.6893 30.2791C18.7468 30.3351 18.8243 30.3669 18.9054 30.3669H18.907L27.7778 30.3316H27.7772C28.1761 30.3295 28.499 30.012 28.5 29.6198V20.5203C28.5 20.441 28.4677 20.3648 28.4107 20.3083L28.4107 20.3084ZM26.0033 18.7901L27.458 20.2205H26.1171C26.0545 20.22 26.0042 20.1706 26.0032 20.109L26.0033 18.7901ZM27.7747 29.7319L19.2104 29.7657V18.4793C19.2114 18.4177 19.2617 18.3677 19.3244 18.3672H25.3935V20.1091C25.3935 20.5019 25.7179 20.8204 26.1173 20.8209H27.8898V29.6201C27.8893 29.6822 27.8379 29.7322 27.7748 29.7316L27.7747 29.7319ZM20.1076 22.1926C20.1076 22.0265 20.2442 21.8922 20.4125 21.8922H24.0673C24.1494 21.8907 24.2285 21.9215 24.2875 21.978C24.346 22.0341 24.3789 22.1118 24.3789 22.1926C24.3789 22.2733 24.346 22.3506 24.2875 22.4071C24.2285 22.4631 24.1494 22.4939 24.0673 22.4924H20.4125C20.3319 22.4924 20.2539 22.4606 20.1969 22.4046C20.1394 22.3485 20.1076 22.2718 20.1076 22.1926ZM20.1076 20.3713C20.1076 20.2057 20.2442 20.071 20.4125 20.071H22.5048C22.6706 20.0745 22.8036 20.2078 22.8036 20.3713C22.8036 20.5344 22.6706 20.6676 22.5048 20.6711H20.4125C20.3319 20.6711 20.2539 20.6398 20.1969 20.5833C20.1394 20.5273 20.1076 20.4506 20.1076 20.3713ZM26.3317 24.0138C26.3317 24.1794 26.1951 24.3137 26.0268 24.3137H20.4124C20.3303 24.3157 20.2513 24.2849 20.1922 24.2284C20.1337 24.1718 20.1009 24.0946 20.1009 24.0138C20.1009 23.9331 20.1337 23.8558 20.1922 23.7993C20.2513 23.7428 20.3303 23.712 20.4124 23.7135H26.0268C26.1073 23.7135 26.1854 23.7453 26.2424 23.8013C26.2998 23.8579 26.3317 23.9341 26.3317 24.0138ZM26.3317 25.8351C26.3317 26.0007 26.1951 26.1349 26.0268 26.1349H20.4124C20.3303 26.1365 20.2513 26.1057 20.1922 26.0496C20.1337 25.9931 20.1009 25.9159 20.1009 25.8351C20.1009 25.7543 20.1337 25.6771 20.1922 25.6206C20.2513 25.564 20.3303 25.5333 20.4124 25.5348H26.0268C26.1073 25.5348 26.1854 25.5666 26.2424 25.6226C26.2998 25.6791 26.3317 25.7554 26.3317 25.8351ZM26.3317 27.6559C26.3317 27.8219 26.1951 27.9562 26.0268 27.9562H20.4124C20.3303 27.9577 20.2513 27.9269 20.1922 27.8704C20.1337 27.8144 20.1009 27.7366 20.1009 27.6564C20.1009 27.5756 20.1337 27.4979 20.1922 27.4419C20.2513 27.3853 20.3303 27.3545 20.4124 27.356H26.0268C26.1073 27.356 26.1854 27.3878 26.2424 27.4439C26.2998 27.5004 26.3317 27.5766 26.3317 27.6559Z" fill="black"/>
<path fill-rule="evenodd" clip-rule="evenodd" d="M31.1501 25.067V32.0668H29.7251V33.0669H31.8245C31.9767 33.0669 32.1 32.9423 32.1 32.7768V21.5669H31.15V24.067H32.1V25.067H31.1501ZM15.9504 24.067V21.5669H15.0005V20.567H15.9504V18.5669H15.0005V17.5669H15.9504V16.0669H17.3753V15.0669H18.3253V16.0669H20.2252V15.0669H21.1752V16.0669H23.0751V15.0669H24.0251V16.0669H25.925V15.0669H26.875V16.0669H28.7749V15.0669H29.7249V16.0669H31.1498V17.5669H32.0997V15.357C32.0997 15.1968 31.9814 15.0669 31.8242 15.0669H15.2766C15.1244 15.0669 15.0011 15.1915 15.0011 15.357V24.0668L15.9504 24.067ZM15.9504 25.067V32.0668H17.3753V33.0669H15.276C15.1188 33.0669 15.0005 32.937 15.0005 32.7768V25.0669L15.9504 25.067ZM32.0991 20.567V18.5669H31.1491V20.567H32.0991ZM28.7743 33.0669H26.8743V32.0669H28.7743V33.0669ZM25.9244 33.0669H24.0245V32.0669H25.9244V33.0669ZM23.0746 33.0669H21.1746V32.0669H23.0746V33.0669ZM20.2248 33.0669H18.3248V32.0669H20.2248V33.0669ZM15 27.0669V28.0669H15.95V27.0669H15ZM15 30.0669V31.0669H15.95V30.0669H15ZM31.1486 27.0669V28.0669H32.0986V27.0669H31.1486ZM31.1486 30.0669V31.0669H32.0986V30.0669H31.1486Z" fill="black"/>
</svg>
