<svg width="48" height="48" viewBox="0 0 48 48" fill="none" xmlns="http://www.w3.org/2000/svg">
<path d="M7.8939 29.9835L7.91439 17.035L17.0843 7.89427L30.0319 7.91439L39.1735 17.0847L39.1534 30.0323L29.9831 39.1739L17.0346 39.1534L7.8939 29.9835Z" stroke="black" stroke-width="2"/>
<path d="M23.6985 24.566L22.22 23.3739L23.3236 22.0957V20.9316H21.7707V19.4578C21.7715 18.9845 21.9222 18.5236 22.2012 18.1413C22.4802 17.759 22.8731 17.4748 23.3236 17.3297V16.6312L23.1536 16.1656H23.1537C22.4251 16.3557 21.7802 16.7818 21.3197 17.3775C20.8592 17.9732 20.6092 18.7048 20.6089 19.4577V20.9384H19.6776C19.4979 20.9384 19.3255 21.0098 19.1984 21.1369C19.0714 21.264 19 21.4363 19 21.616V28.7964C19 28.9761 19.0714 29.1484 19.1984 29.2755C19.3255 29.4026 19.4979 29.4739 19.6776 29.4739H23.3586V27.5042L23.8848 26.8057L22.6811 26.07L23.6985 24.566Z" fill="black"/>
<path d="M28.3224 20.5754H27.4028V19.0946C27.4026 18.2582 27.0935 17.4512 26.5349 16.8286C25.9764 16.206 25.2075 15.8115 24.376 15.7209L24.5949 16.4403V16.9409H24.5948C25.0638 17.0737 25.4767 17.3558 25.7709 17.7444C26.065 18.1332 26.2243 18.6071 26.2246 19.0946V20.5753H24.5948V22.5707L24.043 23.2086L25.4097 24.3076L24.4784 25.6789L25.745 26.4519L24.6251 27.9327V29.1108H28.3224C28.5021 29.1108 28.6745 29.0395 28.8015 28.9124C28.9286 28.7853 29 28.613 29 28.4333V21.2529C29 21.0733 28.9286 20.9009 28.8015 20.7738C28.6745 20.6468 28.5021 20.5754 28.3224 20.5754L28.3224 20.5754Z" fill="black"/>
<path d="M24.2177 14.3472V13.1831C24.2065 13.079 24.1186 13 24.014 13C23.9092 13 23.8214 13.079 23.8102 13.1831V14.3472C23.8214 14.4514 23.9092 14.5304 24.014 14.5304C24.1186 14.5304 24.2065 14.4514 24.2177 14.3472Z" fill="black"/>
<path d="M22.5762 14.8245C22.608 14.8993 22.6813 14.9479 22.7625 14.9479C22.7906 14.947 22.8183 14.9407 22.844 14.9293C22.8936 14.9079 22.9324 14.8674 22.9516 14.817C22.9709 14.7666 22.969 14.7106 22.9465 14.6615L22.4808 13.6068C22.4358 13.504 22.3159 13.4571 22.213 13.5021C22.1101 13.547 22.0633 13.6669 22.1082 13.7698L22.5762 14.8245Z" fill="black"/>
<path d="M25.163 14.9293C25.1887 14.9407 25.2163 14.947 25.2444 14.9479C25.3257 14.9479 25.399 14.8993 25.4307 14.8245L25.8964 13.7699V13.7698C25.9414 13.6669 25.8945 13.547 25.7916 13.5021C25.6887 13.4571 25.5688 13.504 25.5239 13.6068L25.0582 14.6615C25.0357 14.7109 25.0342 14.7671 25.0539 14.8176C25.0737 14.8681 25.113 14.9084 25.163 14.9293Z" fill="black"/>
</svg>
