<svg width="48" height="48" viewBox="0 0 48 48" fill="none" xmlns="http://www.w3.org/2000/svg">
<path d="M7.8939 29.9835L7.91439 17.035L17.0843 7.89427L30.0319 7.91439L39.1735 17.0847L39.1534 30.0323L29.9831 39.1739L17.0346 39.1534L7.8939 29.9835Z" stroke="black" stroke-width="2"/>
<path d="M15 16L15 32" stroke="black" stroke-width="0.8" stroke-linecap="round"/>
<path d="M33.2857 32.4C33.5066 32.4 33.6857 32.2209 33.6857 32C33.6857 31.7791 33.5066 31.6 33.2857 31.6V32.4ZM33.2857 32V31.6L15 31.6V32V32.4H33.2857V32Z" fill="black"/>
<path d="M17 22L31.8572 22" stroke="black" stroke-width="0.3" stroke-linecap="round" stroke-dasharray="0.6 0.6"/>
<line x1="17.3857" y1="30.8571" x2="17.3857" y2="32" stroke="black" stroke-width="0.2"/>
<line x1="26.5286" y1="30.8571" x2="26.5286" y2="32" stroke="black" stroke-width="0.2"/>
<line x1="28.8143" y1="30.8571" x2="28.8143" y2="32" stroke="black" stroke-width="0.2"/>
<line x1="31.1" y1="30.8571" x2="31.1" y2="32" stroke="black" stroke-width="0.2"/>
<line x1="19.6714" y1="30.8571" x2="19.6714" y2="32" stroke="black" stroke-width="0.2"/>
<line x1="24.2429" y1="30.8571" x2="24.2429" y2="32" stroke="black" stroke-width="0.2"/>
<line x1="21.9572" y1="30.8571" x2="21.9572" y2="32" stroke="black" stroke-width="0.2"/>
<path d="M26.7143 23.7143L26.7698 23.5478L26.7567 23.5445L26.7143 23.7143ZM30.7143 26.7464C30.811 26.7464 30.8893 26.6681 30.8893 26.5714L30.8893 24.9964C30.8893 24.8998 30.811 24.8214 30.7143 24.8214C30.6177 24.8214 30.5393 24.8998 30.5393 24.9964L30.5393 26.3964L29.1393 26.3964C29.0427 26.3964 28.9643 26.4748 28.9643 26.5714C28.9643 26.6681 29.0427 26.7464 29.1393 26.7464L30.7143 26.7464ZM26.0917 23.5586L26.0492 23.7284L26.0917 23.5586ZM17 23.1428V23.3178H18.7143V23.1428V22.9678H17V23.1428ZM18.7143 23.1428V23.3178H20.4286V23.1428V22.9678H18.7143V23.1428ZM20.4286 23.1428V23.3178H22.7143V23.1428V22.9678H20.4286V23.1428ZM26.0917 23.5586L26.0492 23.7284L26.6719 23.884L26.7143 23.7143L26.7567 23.5445L26.1341 23.3888L26.0917 23.5586ZM26.7143 23.7143L26.659 23.8803L26.8399 23.9406L26.8953 23.7746L26.9506 23.6086L26.7696 23.5483L26.7143 23.7143ZM29.5714 25.4286L29.4477 25.5523L30.5906 26.6952L30.7143 26.5714L30.838 26.4477L29.6952 25.3048L29.5714 25.4286ZM26.8953 23.7746L26.8399 23.9406C27.8225 24.2681 28.7153 24.8199 29.4477 25.5523L29.5714 25.4286L29.6952 25.3048C28.9244 24.534 27.9847 23.9533 26.9506 23.6086L26.8953 23.7746ZM22.7143 23.1428V23.3178C23.8386 23.3178 24.9586 23.4557 26.0492 23.7284L26.0917 23.5586L26.1341 23.3888C25.0157 23.1092 23.8672 22.9678 22.7143 22.9678V23.1428Z" fill="black"/>
</svg>
