<svg width="35" height="35" viewBox="0 0 35 35" fill="none" xmlns="http://www.w3.org/2000/svg">
<path d="M23.6191 0.913086L23.8174 0.922852C24.275 0.969116 24.7047 1.17337 25.0322 1.50195L33.5889 10.085C33.9163 10.4136 34.1183 10.8441 34.1631 11.3018L34.1729 11.499L34.1533 23.6191C34.1526 24.0832 33.9913 24.5313 33.6992 24.8867L33.5654 25.0332L24.9814 33.5898C24.6529 33.9171 24.2222 34.1183 23.7646 34.1631L23.5674 34.1729L11.4473 34.1533C10.9171 34.1524 10.4086 33.9409 10.0342 33.5654L1.47754 24.9824C1.10327 24.6069 0.892806 24.0976 0.893555 23.5674L0.913086 11.4482C0.913921 10.9179 1.12549 10.4086 1.50098 10.0342L10.085 1.47754L10.2314 1.34473C10.5876 1.05392 11.0352 0.892937 11.499 0.893555L23.6191 0.913086ZM2.91309 11.4502L2.89355 23.5703L11.4502 32.1533L23.5703 32.1729L32.1533 23.6162L32.1729 11.4961L23.6162 2.91309L11.4961 2.89355L2.91309 11.4502ZM18.1484 22.8809C18.3687 22.881 18.5889 22.9899 18.7148 23.208L20.9375 27.0576C21.1892 27.4937 20.8747 28.039 20.3711 28.0391H15.9248C15.4214 28.0387 15.1067 27.4936 15.3584 27.0576L17.5811 23.208C17.7071 22.99 17.928 22.8809 18.1484 22.8809ZM16.2188 27.2158H20.0771L18.1484 23.874L16.2188 27.2158ZM27.4785 18.0137C27.7304 17.926 28.0051 18.059 28.0928 18.3105C28.1804 18.5624 28.0477 18.8372 27.7959 18.9248L8.81738 25.5361C8.56546 25.6239 8.28973 25.49 8.20215 25.2383C8.11467 24.9865 8.24821 24.7116 8.5 24.624L10.3682 23.9727L25.6094 18.6641L27.4785 18.0137ZM10.4551 18.75C11.1299 18.7507 11.7767 18.9965 12.2539 19.4336C12.7308 19.871 12.9993 20.4643 13 21.083C13.0017 21.4495 12.713 21.7634 12.3184 21.8232C11.5524 21.9407 10.7766 21.9997 10 22C9.22512 22 8.45115 21.9417 7.68652 21.8252C7.29005 21.7661 6.99898 21.4511 7 21.083C7.00069 20.4643 7.26919 19.8711 7.74609 19.4336C8.22326 18.9966 8.87009 18.7507 9.54492 18.75H10.4551ZM9.54492 19.25C9.01464 19.2507 8.50677 19.4436 8.13184 19.7871C7.75686 20.1308 7.54564 20.5968 7.54492 21.083C7.5456 21.2058 7.64381 21.3107 7.77637 21.3301C9.25041 21.5551 10.7554 21.5551 12.2295 21.3301C12.3604 21.3094 12.4555 21.2049 12.4541 21.083C12.4534 20.5968 12.2431 20.1308 11.8682 19.7871C11.4932 19.4435 10.9854 19.2506 10.4551 19.25H9.54492ZM10 15C10.4699 15 10.9206 15.1712 11.2529 15.4756C11.5853 15.7803 11.7725 16.1941 11.7725 16.625C11.7725 17.0559 11.5853 17.4697 11.2529 17.7744C10.9206 18.0788 10.4699 18.25 10 18.25C9.52991 18.2494 9.07945 18.0781 8.74707 17.7734C8.41469 17.4688 8.22822 17.0559 8.22754 16.625C8.22754 16.1941 8.41371 15.7803 8.74609 15.4756C9.07846 15.1709 9.5299 15 10 15ZM22.5 9C22.9111 9.00001 23.25 9.33892 23.25 9.75C23.25 10.0739 23.0401 10.352 22.75 10.4561V11H23.25C23.661 11 23.9999 11.3385 24 11.75V12H24.75C25.4381 12 25.9999 12.562 26 13.25V14H26.25C26.6611 14 27 14.3389 27 14.75V15.25C26.9999 15.661 26.661 16 26.25 16H26V16.75C25.9999 17.4381 25.438 18 24.75 18H20.25C19.5619 18 19.0001 17.438 19 16.75V16H18.75C18.3389 16 18 15.6611 18 15.25V14.75C18.0001 14.3385 18.339 14 18.75 14H19V13.25C19.0001 12.5619 19.5619 12 20.25 12H21V11.75C21.0001 11.3385 21.339 11 21.75 11H22.25V10.4561C21.9599 10.352 21.75 10.0739 21.75 9.75C21.75 9.33891 22.0889 9 22.5 9ZM10 15.5C9.32271 15.5005 8.77319 16.0041 8.77246 16.625C8.77246 17.08 9.07175 17.49 9.53027 17.6641C9.98917 17.8381 10.517 17.7424 10.8682 17.4209C11.2189 17.099 11.3237 16.6149 11.1338 16.1943C10.9439 15.774 10.4963 15.5 10 15.5ZM20.25 12.5C19.83 12.5 19.5 12.8305 19.5 13.25V16.75C19.5001 17.1699 19.8301 17.4995 20.25 17.5H24.75C25.17 17.5 25.5 17.17 25.5 16.75V13.25C25.4999 12.8301 25.1699 12.5 24.75 12.5H20.25ZM23.25 16.25C23.3161 16.25 23.3799 16.2764 23.4268 16.3232C23.4736 16.3701 23.5 16.4339 23.5 16.5C23.5 16.5661 23.4736 16.6299 23.4268 16.6768C23.3799 16.7236 23.3161 16.75 23.25 16.75H21.75C21.6839 16.75 21.6201 16.7236 21.5732 16.6768C21.5264 16.6299 21.5 16.5661 21.5 16.5C21.5 16.3617 21.6117 16.25 21.75 16.25H23.25ZM18.75 14.5C18.6089 14.5 18.5 14.6094 18.5 14.75V15.25C18.5001 15.391 18.609 15.5 18.75 15.5H19V14.5H18.75ZM21 13.5C21.5494 13.5 22 13.9506 22 14.5C21.9999 15.0493 21.5493 15.5 21 15.5C20.4507 15.5 20.0001 15.0493 20 14.5C20 13.9506 20.4506 13.5 21 13.5ZM24 13.5C24.5493 13.5 25 13.9506 25 14.5C24.9999 15.0493 24.5493 15.5 24 15.5C23.4507 15.5 23.0001 15.0493 23 14.5C23 13.9506 23.4506 13.5 24 13.5ZM26 15.5H26.25C26.391 15.5 26.4999 15.391 26.5 15.25V14.75C26.5 14.6089 26.3911 14.5 26.25 14.5H26V15.5ZM21 14C20.7207 14 20.5001 14.2212 20.5 14.5C20.5 14.7794 20.7211 15 21 15C21.2794 15 21.5 14.7789 21.5 14.5C21.4999 14.2208 21.2788 14 21 14ZM24 14C23.7207 14 23.5001 14.2212 23.5 14.5C23.5 14.7794 23.7211 15 24 15C24.2794 15 24.5 14.7789 24.5 14.5C24.4999 14.2208 24.2788 14 24 14ZM21.75 11.5C21.609 11.5 21.5001 11.609 21.5 11.75V12H23.5V11.75C23.4999 11.609 23.391 11.4995 23.25 11.5H21.75ZM22.5 9.5C22.3589 9.5 22.25 9.60891 22.25 9.75C22.25 9.89109 22.3589 10 22.5 10C22.6411 9.99999 22.75 9.89108 22.75 9.75C22.75 9.60892 22.6411 9.50001 22.5 9.5Z" fill="black"/>
</svg>
