<svg width="48" height="48" viewBox="0 0 48 48" fill="none" xmlns="http://www.w3.org/2000/svg">
<path d="M7.89366 29.9835L7.91415 17.035L17.0841 7.89427L30.0317 7.91439L39.1733 17.0847L39.1531 30.0323L29.9828 39.1739L17.0344 39.1534L7.89366 29.9835Z" stroke="black" stroke-width="2"/>
<path d="M33.4781 24.0133L31.6096 24.6641L16.3682 29.973L14.4997 30.6238C14.2477 30.7114 14.1147 30.9868 14.2026 31.2388C14.2902 31.4905 14.5656 31.6238 14.8175 31.5359L33.7958 24.9251C34.0478 24.8375 34.1809 24.5621 34.093 24.3101C34.0053 24.0585 33.7301 23.9254 33.4781 24.0132L33.4781 24.0133Z" fill="black"/>
<path d="M23.5814 29.208L21.3586 33.0579C21.1068 33.4941 21.4216 34.0394 21.9253 34.0394H26.371C26.8747 34.0394 27.1895 33.4941 26.9377 33.0579L24.7149 29.208C24.5889 28.9898 24.3685 28.8809 24.1481 28.8809C23.9278 28.881 23.7074 28.9901 23.5814 29.208ZM26.0774 33.2158H22.2189L24.1481 29.8742L26.0774 33.2158Z" fill="black"/>
<path d="M15.9999 24.25C16.47 24.25 16.9211 24.0787 17.2534 23.7741C17.5858 23.4694 17.7726 23.0559 17.7726 22.625C17.7726 22.1941 17.5858 21.7806 17.2534 21.4759C16.921 21.1712 16.47 21 15.9999 21C15.5298 21 15.0787 21.1712 14.7464 21.4759C14.414 21.7806 14.2272 22.1941 14.2272 22.625C14.2278 23.0559 14.4147 23.4687 14.747 23.7734C15.0794 24.0781 15.5298 24.2494 15.9999 24.25ZM15.9999 21.5C16.4963 21.5 16.9438 21.7741 17.1337 22.1944C17.3236 22.615 17.2186 23.0988 16.8678 23.4207C16.5167 23.7422 15.989 23.8385 15.5301 23.6644C15.0715 23.4903 14.7725 23.08 14.7725 22.6251C14.7732 22.0041 15.3226 21.5005 15.9999 21.5ZM16.4547 24.75H15.5451C14.8701 24.7506 14.2234 24.9969 13.7462 25.4341C13.2692 25.8716 13.0006 26.4644 12.9999 27.0831C12.9989 27.4512 13.29 27.7659 13.6865 27.825C14.4511 27.9415 15.225 28 15.9999 28C16.7765 27.9997 17.5521 27.9406 18.3181 27.8231C18.7128 27.7634 19.0016 27.4497 18.9999 27.0831C18.9992 26.4644 18.7306 25.8715 18.2536 25.434C17.7764 24.9969 17.1297 24.7506 16.4547 24.75ZM18.4545 27.0831C18.4558 27.205 18.3604 27.3094 18.2295 27.33C16.7553 27.555 15.2505 27.555 13.7765 27.33C13.6439 27.3106 13.546 27.2059 13.5454 27.0831C13.546 26.5969 13.7567 26.1313 14.1317 25.7875C14.5067 25.4438 15.0146 25.2507 15.5451 25.25H16.455C16.9855 25.2506 17.4931 25.4438 17.8681 25.7875C18.243 26.1313 18.4538 26.5969 18.4545 27.0831Z" fill="black"/>
<path d="M28.5 15C28.0889 15 27.75 15.3389 27.75 15.75C27.75 16.0739 27.96 16.3519 28.2502 16.4559V17.0001H27.75C27.3389 17.0001 27 17.3386 27 17.7501V18H26.25C25.5619 18 24.9998 18.562 24.9998 19.2502V20.0002H24.75C24.3389 20.0002 24 20.3386 24 20.7501V21.2503C24 21.6614 24.3389 21.9998 24.75 21.9998H24.9998V22.7498C24.9998 23.4379 25.5619 24 26.25 24H30.75C31.4381 24 32.0002 23.438 32.0002 22.7498V21.9998H32.25C32.6611 21.9998 33 21.6609 33 21.2498V20.7497C33 20.3386 32.6611 20.0002 32.25 20.0002H32.0002V19.2502C32.0002 18.562 31.4381 18 30.75 18H30V17.7501C30 17.3386 29.6611 17.0001 29.25 17.0001H28.7498V16.4559C29.04 16.3519 29.25 16.0739 29.25 15.75C29.25 15.3389 28.9111 15 28.5 15ZM28.5 15.5002C28.6411 15.5002 28.7498 15.6089 28.7498 15.75C28.7498 15.8911 28.6411 15.9998 28.5 15.9998C28.3589 15.9998 28.2502 15.8911 28.2502 15.75C28.2502 15.6089 28.3589 15.5002 28.5 15.5002ZM27.75 17.5003H29.25C29.3911 17.4999 29.4998 17.6091 29.4998 17.7502V18H27.5001V17.7502C27.5001 17.6091 27.6089 17.4999 27.75 17.4999L27.75 17.5003ZM26.25 18.5002H30.75C31.17 18.5002 31.5 18.8302 31.5 19.2502V22.7503C31.5 23.1703 31.17 23.5003 30.75 23.5003H26.25C25.83 23.4999 25.5 23.1699 25.5 22.7499V19.2497C25.5 18.8302 25.83 18.5002 26.25 18.5002ZM24.75 20.5004L24.9999 20.4999V21.4997L24.75 21.5002C24.6089 21.5002 24.5002 21.391 24.5002 21.2499V20.7497C24.5002 20.6091 24.6089 20.4999 24.75 20.4999V20.5004ZM32.0002 20.4999H32.25C32.3911 20.4999 32.4998 20.6086 32.4998 20.7497V21.2499C32.4998 21.391 32.3911 21.5002 32.25 21.5002H32.0002V20.4999Z" fill="black"/>
<path d="M27.75 22.2501C27.6117 22.2501 27.5002 22.3617 27.5002 22.5C27.5002 22.5661 27.5264 22.6298 27.5733 22.6767C27.6202 22.7236 27.6839 22.7498 27.75 22.7498H29.25C29.3161 22.7498 29.3798 22.7236 29.4267 22.6767C29.4736 22.6298 29.4998 22.5661 29.4998 22.5C29.4998 22.4339 29.4736 22.3701 29.4267 22.3232C29.3798 22.2764 29.3161 22.2501 29.25 22.2501L27.75 22.2501Z" fill="black"/>
<path d="M27 19.5C26.4506 19.5 26.0002 19.9504 26.0002 20.4998C26.0002 21.0492 26.4506 21.4996 27 21.4996C27.5494 21.4996 27.9998 21.0492 27.9998 20.4998C27.9998 19.9504 27.5494 19.5 27 19.5ZM27 20.0001C27.2789 20.0001 27.5002 20.2209 27.5002 20.5003C27.5002 20.7792 27.2794 21.0004 27 21.0004C26.7211 21.0004 26.4998 20.7796 26.4998 20.5003C26.4998 20.2214 26.7206 20.0001 27 20.0001Z" fill="black"/>
<path d="M30 19.5C29.4506 19.5 29.0001 19.9504 29.0001 20.4998C29.0001 21.0492 29.4506 21.4996 30 21.4996C30.5493 21.4996 30.9998 21.0492 30.9998 20.4998C30.9998 19.9504 30.5493 19.5 30 19.5ZM30 20.0001C30.2789 20.0001 30.5001 20.2209 30.5001 20.5003C30.5001 20.7792 30.2794 21.0004 30 21.0004C29.7211 21.0004 29.4998 20.7796 29.4998 20.5003C29.4998 20.2214 29.7206 20.0001 30 20.0001Z" fill="black"/>
</svg>
