<svg width="48" height="48" viewBox="0 0 48 48" fill="none" xmlns="http://www.w3.org/2000/svg">
<path d="M7.8939 29.9835L7.91439 17.035L17.0843 7.89427L30.0319 7.91439L39.1735 17.0847L39.1534 30.0323L29.9831 39.1739L17.0346 39.1534L7.8939 29.9835Z" stroke="black" stroke-width="2"/>
<path d="M23.509 23.0001C23.461 22.9988 23.4135 23.0084 23.3718 23.0276L17.1336 25.9253C17.0545 25.9625 17.0059 26.0304 17.006 26.1039H17.0039V31.8594C16.9946 31.9018 17.0021 31.9456 17.0254 31.9844C17.0486 32.0233 17.0865 32.0554 17.1336 32.0763L23.3718 34.972C23.4112 34.9903 23.4559 35 23.5015 35C23.547 35 23.5918 34.9904 23.6312 34.9721L29.8712 32.0763C29.914 32.0564 29.9487 32.0271 29.9713 31.9919C29.994 31.9567 30.0035 31.917 29.9989 31.8776V26.1127C29.999 26.1097 29.999 26.1068 29.9989 26.1038C29.9989 26.0304 29.9504 25.9624 29.8712 25.9253L23.6311 23.0275C23.5939 23.0104 23.552 23.001 23.509 23.0001ZM23.5015 23.446L29.2264 26.1038L23.5015 28.7615L17.7785 26.1038L23.5015 23.446ZM23.4974 23.8245C23.4293 23.8255 23.3644 23.8482 23.3169 23.8873C23.2695 23.9266 23.2433 23.9792 23.2441 24.0337V24.4474C23.2462 24.5201 23.2958 24.5868 23.3749 24.6227C23.454 24.6586 23.5509 24.6586 23.63 24.6227C23.7091 24.5868 23.7588 24.5201 23.7608 24.4474V24.0337C23.7616 23.9778 23.7341 23.9239 23.6844 23.8845C23.6348 23.8451 23.5673 23.8234 23.4974 23.8245ZM23.4974 25.0658C23.4293 25.0669 23.3644 25.0895 23.3169 25.1287C23.2695 25.1679 23.2433 25.2205 23.2441 25.2751V25.6887C23.2462 25.7615 23.2958 25.8281 23.3749 25.864C23.454 25.8999 23.5509 25.8999 23.63 25.864C23.7091 25.8281 23.7588 25.7615 23.7608 25.6887V25.2751C23.7616 25.2191 23.7341 25.1652 23.6844 25.1258C23.6348 25.0864 23.5673 25.0647 23.4974 25.0658ZM23.4974 26.3071C23.4293 26.3082 23.3644 26.3308 23.3169 26.37C23.2695 26.4092 23.2433 26.4618 23.2441 26.5164V26.93C23.2462 27.0028 23.2958 27.0693 23.3749 27.1053C23.454 27.1413 23.5509 27.1413 23.63 27.1053C23.7091 27.0693 23.7588 27.0028 23.7608 26.93V26.5164C23.7616 26.4604 23.7341 26.4066 23.6844 26.3671C23.6348 26.3277 23.5673 26.306 23.4974 26.3071ZM17.5206 26.4622L23.244 29.1192V34.4344L17.5206 31.7767V26.4622ZM29.4816 26.4634V31.7775L23.7607 34.4338V29.1185L29.4816 26.4634ZM23.4993 27.5468C23.4904 27.5469 23.4815 27.5473 23.4726 27.5481C23.4088 27.554 23.3501 27.5787 23.3078 27.6174C23.2656 27.656 23.2428 27.7059 23.244 27.7573V28.1713C23.2461 28.2441 23.2957 28.3107 23.3748 28.3467C23.4539 28.3826 23.5508 28.3826 23.6299 28.3467C23.709 28.3107 23.7587 28.2441 23.7607 28.1713V27.7572C23.7619 27.7013 23.7349 27.6474 23.6856 27.6078C23.6364 27.5681 23.5692 27.5462 23.4993 27.5468ZM24.5827 29.3023C24.5074 29.3056 24.4377 29.335 24.3918 29.3828C24.3459 29.4307 24.3283 29.4922 24.3438 29.5513C24.3592 29.6103 24.4061 29.661 24.4722 29.6901L24.9182 29.8977C24.9777 29.9261 25.0489 29.9342 25.1159 29.9202C25.1829 29.9063 25.2401 29.8714 25.2748 29.8235C25.3095 29.7755 25.3187 29.7184 25.3004 29.665C25.2822 29.6115 25.2379 29.5661 25.1776 29.539L24.7315 29.3314C24.6867 29.3098 24.6348 29.2997 24.5827 29.3023ZM22.3762 29.3193C22.3271 29.3186 22.2788 29.3291 22.237 29.3496L21.7889 29.556C21.7106 29.5938 21.6631 29.6617 21.6637 29.7349C21.6644 29.8081 21.7132 29.8755 21.7921 29.9124C21.871 29.9493 21.9683 29.9501 22.0483 29.9146L22.4963 29.707C22.5631 29.6774 22.6101 29.6257 22.6248 29.5658C22.6395 29.5058 22.6202 29.4437 22.5723 29.3961C22.5243 29.3486 22.4525 29.3205 22.3762 29.3193ZM25.9234 29.9252C25.8491 29.9292 25.7804 29.9586 25.7352 30.0061C25.69 30.0536 25.6726 30.1144 25.6875 30.1729C25.7024 30.2313 25.7481 30.2818 25.8129 30.3113L26.259 30.519C26.3183 30.5502 26.391 30.5604 26.4602 30.5474C26.5292 30.5343 26.5886 30.4991 26.6243 30.45C26.6599 30.4009 26.6688 30.3422 26.6487 30.2877C26.6287 30.2332 26.5816 30.1877 26.5184 30.1619L26.0724 29.9542C26.0276 29.9328 25.9756 29.9226 25.9234 29.9252ZM21.0431 29.9414C21.0324 29.9411 21.0216 29.9413 21.0108 29.9421C20.9704 29.9445 20.9311 29.9544 20.8963 29.9712L20.4482 30.1788C20.3875 30.2058 20.3429 30.2512 20.3243 30.3048C20.3058 30.3584 20.315 30.4157 20.3498 30.4639C20.3846 30.512 20.4421 30.5469 20.5094 30.5608C20.5767 30.5746 20.6481 30.5662 20.7076 30.5375L21.1557 30.3299C21.2225 30.3009 21.2701 30.2499 21.2857 30.1904C21.3012 30.1308 21.2833 30.0688 21.2366 30.0208C21.1899 29.9728 21.119 29.9438 21.0431 29.9414ZM27.2641 30.5481C27.1897 30.5521 27.1211 30.5815 27.0759 30.629C27.0307 30.6764 27.0133 30.7372 27.0282 30.7957C27.0431 30.8542 27.0888 30.9047 27.1536 30.9342L27.5997 31.1418C27.659 31.173 27.7317 31.1833 27.8008 31.1702C27.8699 31.1572 27.9293 31.122 27.9649 31.0729C28.0006 31.0238 28.0095 30.9651 27.9894 30.9106C27.9694 30.8561 27.9223 30.8105 27.859 30.7847L27.413 30.5771C27.3682 30.5556 27.3162 30.5455 27.2641 30.5481ZM19.6919 30.5646C19.6847 30.5645 19.6775 30.5646 19.6703 30.565C19.6297 30.5674 19.5905 30.5773 19.5557 30.5941L19.1077 30.8017C19.0444 30.8275 18.9973 30.873 18.9772 30.9275C18.9572 30.982 18.9661 31.0407 19.0017 31.0898C19.0374 31.139 19.0968 31.1742 19.1659 31.1872C19.2349 31.2002 19.3077 31.1899 19.367 31.1587L19.813 30.9511C19.879 30.9211 19.9251 30.8695 19.9393 30.8099C19.9534 30.7502 19.9341 30.6886 19.8865 30.6414C19.8389 30.5942 19.7677 30.5661 19.6919 30.5646ZM28.6316 31.1693C28.5532 31.1662 28.4774 31.1918 28.4254 31.2388C28.3734 31.2859 28.351 31.3493 28.3644 31.4112C28.3779 31.4731 28.4256 31.5267 28.4944 31.557L28.9404 31.765C28.9997 31.795 29.0718 31.8043 29.1399 31.7909C29.2079 31.7775 29.2663 31.7425 29.3015 31.6939C29.3368 31.6454 29.3458 31.5874 29.3266 31.5334C29.3075 31.4794 29.2617 31.434 29.1998 31.4076L28.7537 31.1999C28.7168 31.1817 28.6748 31.1711 28.6316 31.1693ZM18.3513 31.1874C18.344 31.1873 18.3368 31.1875 18.3296 31.1878C18.2884 31.1899 18.2485 31.1999 18.2131 31.2169L17.767 31.4245C17.7038 31.4504 17.6566 31.4959 17.6366 31.5504C17.6166 31.6049 17.6254 31.6636 17.6611 31.7127C17.6968 31.7618 17.7562 31.797 17.8252 31.8101C17.8943 31.8231 17.967 31.8128 18.0263 31.7816L18.4724 31.574C18.5383 31.544 18.5845 31.4923 18.5986 31.4327C18.6127 31.3731 18.5935 31.3115 18.5458 31.2643C18.4983 31.217 18.427 31.189 18.3513 31.1874Z" fill="black"/>
<path fill-rule="evenodd" clip-rule="evenodd" d="M22.0751 15.5277C22.0751 15.8269 21.8345 16.0696 21.5375 16.0696C21.2405 16.0696 20.9999 15.8269 20.9999 15.5277C20.9979 14.9335 21.2044 14.3573 21.5832 13.9016C21.962 13.4459 22.4886 13.1399 23.0699 13.0377C23.6512 12.9352 24.2496 13.0432 24.7594 13.3428C25.2688 13.6423 25.6572 14.1135 25.8552 14.6735C26.0528 15.2334 26.048 15.8459 25.8408 16.4024C25.6335 16.9592 25.2378 17.4239 24.7233 17.7148C24.5115 17.8311 24.3356 18.0039 24.2142 18.2138C24.0932 18.424 24.0314 18.6632 24.0358 18.9063C24.0358 19.2055 23.7952 19.4479 23.4982 19.4479C23.2012 19.4479 22.9606 19.2055 22.9606 18.9063C22.9565 18.4714 23.0703 18.0437 23.2889 17.6691C23.5075 17.2945 23.8234 16.9866 24.2022 16.7788C24.4941 16.6123 24.7182 16.347 24.8354 16.0302C24.9523 15.7137 24.9547 15.3654 24.8416 15.0472C24.7288 14.7289 24.5081 14.4609 24.2184 14.2906C23.9286 14.1202 23.5883 14.0582 23.2576 14.1157C22.9273 14.1732 22.6272 14.3463 22.411 14.6046C22.1948 14.863 22.0759 15.1898 22.0752 15.5278L22.0751 15.5277ZM23.4981 19.8672C23.7257 19.8672 23.9306 20.005 24.0175 20.2169C24.1048 20.4285 24.0567 20.6719 23.8958 20.834C23.735 20.996 23.493 21.0445 23.283 20.9569C23.0729 20.8693 22.9358 20.6626 22.9358 20.4337C22.9358 20.1207 23.1877 19.8672 23.4981 19.8672Z" fill="black"/>
</svg>
