<svg width="35" height="35" viewBox="0 0 35 35" fill="none" xmlns="http://www.w3.org/2000/svg">
<path d="M23.6191 0.913086L23.8174 0.922852C24.2751 0.969071 24.7056 1.1733 25.0332 1.50195L33.5898 10.085C33.9172 10.4135 34.1183 10.8442 34.1631 11.3018L34.1729 11.499L34.1533 23.6191C34.1526 24.0833 33.9914 24.5313 33.6992 24.8867L33.5654 25.0332L24.9824 33.5898C24.6538 33.9173 24.2224 34.1183 23.7646 34.1631L23.5674 34.1729L11.4473 34.1533C10.9171 34.1524 10.4085 33.9409 10.0342 33.5654L1.47754 24.9824C1.10327 24.6069 0.892806 24.0976 0.893555 23.5674L0.913086 11.4482C0.913921 10.9178 1.12629 10.4087 1.50195 10.0342L10.085 1.47754L10.2314 1.34473C10.5876 1.05395 11.0352 0.892993 11.499 0.893555L23.6191 0.913086ZM2.91309 11.4502L2.89355 23.5703L11.4502 32.1533L23.5703 32.1729L32.1533 23.6162L32.1729 11.4961L23.6162 2.91309L11.4961 2.89355L2.91309 11.4502ZM17.5088 17C17.5516 17.0009 17.5937 17.0103 17.6309 17.0273L23.8711 19.9248C23.9501 19.9619 23.9989 20.0302 23.999 20.1035V25.8779C24.0036 25.9172 23.9943 25.9571 23.9717 25.9922C23.9491 26.0274 23.9139 26.0563 23.8711 26.0762L17.6309 28.9717C17.5915 28.99 17.5465 29 17.501 29C17.4556 28.9999 17.4113 28.9899 17.3721 28.9717L11.1338 26.0762C11.0866 26.0554 11.0486 26.0233 11.0254 25.9844C11.0022 25.9455 10.9945 25.9018 11.0039 25.8594V20.1035H11.0059C11.006 20.0302 11.0548 19.9629 11.1338 19.9258L17.3721 17.0273C17.4136 17.0083 17.4609 16.9988 17.5088 17ZM11.5205 25.7764L17.2441 28.4346V23.1191L11.5205 20.4619V25.7764ZM17.7607 23.1182V28.4336L23.4814 25.7773V20.4639L17.7607 23.1182ZM12.3516 25.1875C12.4272 25.1891 12.4984 25.2175 12.5459 25.2646C12.5933 25.3119 12.6127 25.3731 12.5986 25.4326C12.5845 25.4922 12.5385 25.5442 12.4727 25.5742L12.0264 25.7812C11.9671 25.8124 11.8943 25.8236 11.8252 25.8105C11.7562 25.7975 11.6968 25.7619 11.6611 25.7129C11.6255 25.6639 11.6168 25.6052 11.6367 25.5508C11.6567 25.4964 11.7036 25.4507 11.7666 25.4248L12.2129 25.2168C12.2483 25.1998 12.2889 25.1896 12.3301 25.1875C12.3371 25.1872 12.3445 25.1874 12.3516 25.1875ZM22.6318 25.1689C22.675 25.1709 22.7171 25.182 22.7539 25.2002L23.2002 25.4072C23.2618 25.4336 23.307 25.4794 23.3262 25.5332C23.3454 25.5872 23.337 25.6458 23.3018 25.6943C23.2666 25.7428 23.2077 25.7776 23.1396 25.791C23.0716 25.8044 22.9997 25.7946 22.9404 25.7646L22.4941 25.5566C22.4256 25.5263 22.3777 25.4729 22.3643 25.4111C22.3509 25.3493 22.3738 25.2863 22.4258 25.2393C22.4777 25.1922 22.5535 25.1659 22.6318 25.1689ZM13.6914 24.5645C13.7672 24.566 13.8391 24.5944 13.8867 24.6416C13.9341 24.6887 13.9534 24.7501 13.9395 24.8096C13.9253 24.8691 13.8792 24.9212 13.8135 24.9512L13.3672 25.1592C13.3079 25.1903 13.235 25.2005 13.166 25.1875C13.097 25.1745 13.0376 25.1389 13.002 25.0898C12.9663 25.0407 12.9575 24.9822 12.9775 24.9277C12.9975 24.8733 13.0443 24.8276 13.1074 24.8018L13.5557 24.5938C13.5903 24.5771 13.6296 24.5678 13.6699 24.5654C13.677 24.5651 13.6844 24.5643 13.6914 24.5645ZM21.2637 24.5479C21.3158 24.5453 21.3683 24.5556 21.4131 24.5771L21.8594 24.7852C21.9222 24.8109 21.9692 24.856 21.9893 24.9102C22.0093 24.9647 22.0005 25.0241 21.9648 25.0732C21.9292 25.1222 21.8697 25.1569 21.8008 25.1699C21.7317 25.183 21.6589 25.1728 21.5996 25.1416L21.1533 24.9346C21.0887 24.9051 21.0433 24.8542 21.0283 24.7959C21.0135 24.7374 21.031 24.6764 21.0762 24.6289C21.1213 24.5817 21.1895 24.5519 21.2637 24.5479ZM15.043 23.9414C15.1187 23.9439 15.1896 23.9727 15.2363 24.0205C15.283 24.0685 15.3017 24.1309 15.2861 24.1904C15.2705 24.25 15.2221 24.3011 15.1553 24.3301L14.708 24.5371C14.6486 24.5658 14.577 24.5743 14.5098 24.5605C14.4425 24.5467 14.3844 24.512 14.3496 24.4639C14.3148 24.4158 14.3057 24.3583 14.3242 24.3047C14.3427 24.2511 14.3875 24.2057 14.4482 24.1787L14.8965 23.9717C14.9313 23.9549 14.9703 23.9448 15.0107 23.9424C15.0215 23.9416 15.0323 23.9412 15.043 23.9414ZM19.9238 23.9248C19.9758 23.9223 20.0276 23.9327 20.0723 23.9541L20.5186 24.1621C20.5816 24.1879 20.6284 24.2337 20.6484 24.2881C20.6684 24.3425 20.6596 24.4011 20.624 24.4502C20.5883 24.4992 20.5289 24.5348 20.46 24.5479C20.3909 24.5608 20.318 24.5497 20.2588 24.5186L19.8125 24.3115C19.7479 24.282 19.7024 24.2312 19.6875 24.1729C19.6726 24.1144 19.6901 24.0533 19.7354 24.0059C19.7806 23.9585 19.8496 23.9288 19.9238 23.9248ZM16.376 23.3193C16.4523 23.3205 16.5243 23.3489 16.5723 23.3965C16.62 23.4439 16.6395 23.5056 16.625 23.5654C16.6103 23.6254 16.5629 23.6774 16.4961 23.707L16.0479 23.915C15.968 23.9503 15.8707 23.949 15.792 23.9121C15.7133 23.8753 15.6649 23.8083 15.6641 23.7354C15.6634 23.6622 15.7108 23.5935 15.7891 23.5557L16.2373 23.3496C16.279 23.3292 16.3271 23.3186 16.376 23.3193ZM18.583 23.3027C18.635 23.3002 18.6868 23.3096 18.7314 23.3311L19.1777 23.5391C19.238 23.5662 19.2826 23.6116 19.3008 23.665C19.319 23.7184 19.3091 23.7753 19.2744 23.8232C19.2398 23.8711 19.1831 23.906 19.1162 23.9199C19.0492 23.9339 18.9774 23.9258 18.918 23.8975L18.4717 23.6904C18.406 23.6614 18.3593 23.6105 18.3438 23.5518C18.3283 23.4927 18.3457 23.4306 18.3916 23.3828C18.4375 23.3349 18.5078 23.306 18.583 23.3027ZM11.7783 20.1035L17.501 22.7617L23.2266 20.1035L17.501 17.4463L11.7783 20.1035ZM17.499 21.5469C17.5687 21.5462 17.6363 21.5679 17.6855 21.6074C17.7347 21.647 17.7618 21.7011 17.7607 21.7568V22.1709C17.7588 22.2437 17.709 22.3107 17.6299 22.3467C17.5508 22.3826 17.4541 22.3825 17.375 22.3467C17.2959 22.3107 17.2462 22.2437 17.2441 22.1709V21.7568C17.2431 21.7056 17.2655 21.6557 17.3076 21.6172C17.3499 21.5785 17.4089 21.5538 17.4727 21.5479C17.4814 21.5471 17.4902 21.5469 17.499 21.5469ZM17.4971 20.3066C17.5669 20.3056 17.6349 20.3278 17.6846 20.3672C17.7342 20.4066 17.7615 20.4606 17.7607 20.5166V20.9297C17.7588 21.0025 17.709 21.0695 17.6299 21.1055C17.5508 21.1413 17.454 21.1413 17.375 21.1055C17.2959 21.0695 17.2462 21.0025 17.2441 20.9297V20.5166C17.2433 20.462 17.2699 20.4093 17.3174 20.3701C17.3648 20.3311 17.4292 20.3078 17.4971 20.3066ZM17.4971 19.0654C17.5669 19.0644 17.6349 19.0866 17.6846 19.126C17.7341 19.1654 17.7615 19.2195 17.7607 19.2754V19.6885C17.7588 19.7613 17.709 19.8283 17.6299 19.8643C17.5509 19.9001 17.454 19.9001 17.375 19.8643C17.2959 19.8283 17.2462 19.7613 17.2441 19.6885V19.2754C17.2433 19.2208 17.2699 19.1681 17.3174 19.1289C17.3648 19.0898 17.4291 19.0666 17.4971 19.0654ZM17.4971 17.8242C17.5669 17.8231 17.6349 17.8453 17.6846 17.8848C17.7341 17.9242 17.7615 17.9783 17.7607 18.0342V18.4473C17.7588 18.52 17.709 18.5871 17.6299 18.623C17.5509 18.6588 17.454 18.6588 17.375 18.623C17.2959 18.5871 17.2462 18.52 17.2441 18.4473V18.0342C17.2433 17.9796 17.2699 17.9269 17.3174 17.8877C17.3648 17.8486 17.4291 17.8253 17.4971 17.8242ZM17.498 13.8672C17.7256 13.8672 17.9306 14.0049 18.0176 14.2168C18.1049 14.4284 18.0564 14.6719 17.8955 14.834C17.7347 14.9958 17.4931 15.0445 17.2832 14.957C17.0732 14.8694 16.9355 14.6625 16.9355 14.4336C16.9356 14.1206 17.1877 13.8672 17.498 13.8672ZM17.0703 7.03809C17.6515 6.93569 18.2501 7.04331 18.7598 7.34277C19.269 7.64231 19.6575 8.114 19.8555 8.67383C20.053 9.23361 20.048 9.84603 19.8408 10.4023C19.6336 10.9591 19.2381 11.4239 18.7236 11.7148C18.5119 11.8312 18.3352 12.004 18.2139 12.2139C18.093 12.424 18.0317 12.6633 18.0361 12.9062C18.0361 13.2054 17.795 13.4482 17.498 13.4482C17.2011 13.4482 16.9609 13.2054 16.9609 12.9062C16.9568 12.4714 17.0705 12.0435 17.2891 11.6689C17.5076 11.2945 17.8235 10.987 18.2021 10.7793C18.4939 10.6128 18.7177 10.347 18.835 10.0303C18.9518 9.71378 18.9549 9.36511 18.8418 9.04688C18.7291 8.72891 18.5082 8.46135 18.2188 8.29102C17.9291 8.12071 17.5884 8.05784 17.2578 8.11523C16.9275 8.1727 16.6273 8.34626 16.4111 8.60449C16.1951 8.86269 16.076 9.18955 16.0752 9.52734C16.0752 9.82652 15.8341 10.0693 15.5371 10.0693C15.2403 10.0691 15 9.82639 15 9.52734C14.998 8.93328 15.2043 8.35697 15.583 7.90137C15.9618 7.4457 16.489 7.14025 17.0703 7.03809Z" fill="black"/>
</svg>
