<svg width="35" height="35" viewBox="0 0 35 35" fill="none" xmlns="http://www.w3.org/2000/svg">
<path d="M23.4699 0.913452L23.6682 0.923218C24.0604 0.962852 24.4329 1.1172 24.7375 1.36755L24.884 1.50134L33.4406 10.0844C33.7681 10.413 33.9691 10.8444 34.0139 11.3021L34.0236 11.4994L34.0041 23.6195C34.0033 24.0833 33.8419 24.5308 33.55 24.8861L33.4162 25.0326L24.8332 33.5892C24.5046 33.9167 24.0731 34.1187 23.6154 34.1635L23.4182 34.1732L11.298 34.1537C10.7677 34.1527 10.2593 33.9404 9.88495 33.5648L1.32831 24.9818C0.954119 24.6063 0.743652 24.0978 0.744324 23.5677L0.763855 11.4476C0.764729 10.9173 0.977094 10.408 1.35272 10.0336L9.93573 1.47693L10.0822 1.34509C10.4384 1.0543 10.886 0.893339 11.3498 0.893921L23.4699 0.913452ZM2.76385 11.4506L2.74432 23.5707L11.301 32.1537L23.4211 32.1732L32.0041 23.6166L32.0236 11.4965L23.467 2.91345L11.3469 2.89392L2.76385 11.4506ZM18.1486 19.8812C18.3689 19.8813 18.5891 19.9903 18.715 20.2084L20.9377 24.058C21.1894 24.4941 20.8749 25.0393 20.3713 25.0394H15.925C15.4215 25.0391 15.107 24.494 15.3586 24.058L17.5812 20.2084C17.7073 19.9904 17.9282 19.8813 18.1486 19.8812ZM16.2189 24.2162H20.0773L18.1486 20.8744L16.2189 24.2162ZM27.4787 15.0131C27.7305 14.9256 28.0052 15.0587 28.093 15.3099C28.1808 15.5619 28.048 15.8375 27.7961 15.9252L8.81757 22.5355C8.56559 22.6234 8.28994 22.4904 8.20233 22.2386C8.11463 21.9867 8.24828 21.711 8.50018 21.6234L10.3683 20.973L25.6096 15.6644L27.4787 15.0131ZM9.00018 14.0004C10.6569 14.0005 12.0002 15.3436 12.0002 17.0004C12 18.657 10.6568 20 9.00018 20.0004C7.34346 20.0004 6.00038 18.657 6.00018 17.0004C6.00018 15.3435 7.34339 14.0004 9.00018 14.0004ZM25.4308 10.0004C26.7728 10.0006 27.8603 11.0881 27.8605 12.4301C27.8605 13.7723 26.773 14.8605 25.4308 14.8607C24.0886 14.8607 23.0002 13.7723 23.0002 12.4301C23.0004 11.088 24.0887 10.0004 25.4308 10.0004ZM25.4308 10.8236C24.5452 10.8236 23.8237 11.5444 23.8234 12.4301C23.8234 13.3159 24.545 14.0375 25.4308 14.0375C26.3165 14.0372 27.0373 13.316 27.0373 12.4301C27.037 11.5446 26.3163 10.8238 25.4308 10.8236Z" fill="black"/>
</svg>
