<svg width="48" height="48" viewBox="0 0 48 48" fill="none" xmlns="http://www.w3.org/2000/svg">
<path d="M7.8939 29.9835L7.91439 17.035L17.0843 7.89429L30.0319 7.9144L39.1735 17.0847L39.1534 30.0323L29.9831 39.1739L17.0346 39.1534L7.8939 29.9835Z" stroke="black" stroke-width="2"/>
<path d="M34.4782 21.0133L32.6098 21.6641L17.3683 26.9731L15.4999 27.6238C15.2479 27.7114 15.1148 27.9868 15.2027 28.2388C15.2903 28.4905 15.5657 28.6238 15.8177 28.5359L34.796 21.9251C35.048 21.8375 35.181 21.5621 35.0931 21.3102C35.0054 21.0586 34.7302 20.9254 34.4782 21.0132L34.4782 21.0133Z" fill="black"/>
<path d="M24.5815 26.2081L22.3587 30.0579C22.1069 30.4941 22.4217 31.0394 22.9254 31.0394H27.3711C27.8748 31.0394 28.1896 30.4941 27.9378 30.0579L25.715 26.2081C25.589 25.9898 25.3686 25.881 25.1483 25.881C24.9279 25.881 24.7075 25.9901 24.5815 26.2081ZM27.0775 30.2158H23.219L25.1482 26.8742L27.0775 30.2158Z" fill="black"/>
<path d="M19 23C19 21.3432 17.6569 20 16 20C14.3432 20 13 21.3432 13 23C13 24.6569 14.3432 26 16 26C17.6568 25.9997 19 24.6569 19 23Z" fill="black"/>
<path d="M34.8609 18.4304C34.8609 17.0882 33.7727 16 32.4304 16C31.0882 16 30 17.0881 30 18.4304C30 19.7727 31.0882 20.8608 32.4304 20.8608C33.7727 20.8608 34.8609 19.7728 34.8609 18.4304ZM32.4304 20.0371C31.5446 20.0371 30.8239 19.3163 30.8239 18.4305C30.8239 17.5447 31.5446 16.8239 32.4304 16.8239C33.3162 16.8239 34.037 17.5447 34.037 18.4305C34.037 19.3166 33.3162 20.0371 32.4304 20.0371Z" fill="black"/>
</svg>
