<svg width="48" height="48" viewBox="0 0 48 48" fill="none" xmlns="http://www.w3.org/2000/svg">
<path d="M23.25 19C17.5878 19 13 24.125 13 24.125C13 24.125 17.5878 29.25 23.25 29.25C28.9122 29.25 33.5 24.125 33.5 24.125C33.5 24.125 28.9122 19 23.25 19ZM20.3517 27.6736C18.9167 27.2096 17.6514 26.4794 16.7041 25.8311C15.7993 25.2101 15.0712 24.589 14.5764 24.125C15.6367 23.1423 17.7645 21.4021 20.3659 20.5696C19.2702 21.3953 18.5703 22.6851 18.5703 24.125C18.5703 25.5649 19.2701 26.8479 20.3517 27.6736ZM23.25 27.0868C22.9956 27.0868 22.7835 26.8888 22.7835 26.6364C22.7835 26.3839 22.9885 26.186 23.25 26.186C23.5116 26.186 23.7165 26.384 23.7165 26.6364C23.7165 26.8888 23.5044 27.0868 23.25 27.0868ZM23.9004 23.2447C23.8438 23.62 23.7802 23.9954 23.7095 24.3707L23.6034 24.9371C23.5681 25.1282 23.5257 25.3124 23.4691 25.5035H23.045C22.9884 25.3124 22.946 25.1282 22.9106 24.9371L22.8046 24.3707C22.7269 23.9954 22.6703 23.62 22.6137 23.2447C22.5572 22.8694 22.5006 22.494 22.5784 22.1187C22.6986 21.7434 22.7975 21.368 22.9318 20.9927H23.6034C23.7377 21.368 23.8366 21.7434 23.9568 22.1187C24.0134 22.4873 23.9569 22.8626 23.9004 23.2447ZM26.1342 27.6805C27.2298 26.8548 27.9297 25.5649 27.9297 24.125C27.9297 22.6851 27.2298 21.4022 26.1483 20.5764C27.5833 21.0405 28.8486 21.7707 29.7959 22.419C30.7007 23.0399 31.4288 23.661 31.9236 24.125C30.8634 25.1078 28.7355 26.8479 26.1342 27.6805Z" fill="black"/>
<path d="M7.8939 29.9835L7.91439 17.035L17.0843 7.89427L30.0319 7.91439L39.1735 17.0847L39.1534 30.0323L29.9831 39.1739L17.0346 39.1534L7.8939 29.9835Z" stroke="black" stroke-width="2"/>
</svg>
