<svg xmlns="http://www.w3.org/2000/svg" width="36" height="36" fill="none"><path fill="#000" stroke="#000" stroke-width="2" d="M31.856 8.845 19 1.423a2 2 0 0 0-2 0L4.144 8.845a2 2 0 0 0-1 1.732v14.846a2 2 0 0 0 1 1.732L17 34.577a2 2 0 0 0 2 0l12.856-7.422a2 2 0 0 0 1-1.732V10.577a2 2 0 0 0-1-1.732Z"/><mask id="a" width="15" height="18" x="11" y="9" mask-type="alpha" maskUnits="userSpaceOnUse"><path fill="#fff" fill-rule="evenodd" d="M11 9h14.815v18H11z" clip-rule="evenodd"/></mask><g mask="url(#a)"><path fill="#fff" fill-rule="evenodd" d="m17.948 9.098-6.276 2.789A1.13 1.13 0 0 0 11 12.92v4.203c0 4.568 3.16 8.839 7.408 9.876 4.247-1.037 7.407-5.308 7.407-9.876V12.92c0-.447-.263-.852-.672-1.034l-6.276-2.79a1.13 1.13 0 0 0-.92 0" clip-rule="evenodd"/></g></svg>