<svg xmlns="http://www.w3.org/2000/svg" width="36" height="36" fill="none"><path fill="#000" stroke="#000" stroke-width="2" d="M31.856 8.845 19 1.423a2 2 0 0 0-2 0L4.144 8.845a2 2 0 0 0-1 1.732v14.846a2 2 0 0 0 1 1.732L17 34.577a2 2 0 0 0 2 0l12.856-7.422a2 2 0 0 0 1-1.732V10.577a2 2 0 0 0-1-1.732Z"/><path fill="#fff" d="M22 17c1.66 0 2.99-1.34 2.99-3s-1.33-3-2.99-3-3 1.34-3 3 1.34 3 3 3m-8 0c1.66 0 2.99-1.34 2.99-3s-1.33-3-2.99-3-3 1.34-3 3 1.34 3 3 3m0 2c-2.33 0-7 1.17-7 3.5V25h14v-2.5c0-2.33-4.67-3.5-7-3.5m8 0c-.29 0-.62.02-.97.05 1.16.84 1.97 1.97 1.97 3.45V25h6v-2.5c0-2.33-4.67-3.5-7-3.5"/></svg>