<svg xmlns="http://www.w3.org/2000/svg" width="36" height="36" fill="none"><path stroke="#000" stroke-width="2" d="M31.856 8.845 19 1.423a2 2 0 0 0-2 0L4.144 8.845a2 2 0 0 0-1 1.732v14.846a2 2 0 0 0 1 1.732L17 34.577a2 2 0 0 0 2 0l12.856-7.422a2 2 0 0 0 1-1.732V10.577a2 2 0 0 0-1-1.732Z"/><rect width="2.4" height="7.2" x="7.2" y="14.4" fill="#000" rx="1.2"/><rect width="2.4" height="14.4" x="12" y="10.8" fill="#000" rx="1.2"/><rect width="2.4" height="19.2" x="16.8" y="8.4" fill="#000" rx="1.2"/><rect width="2.4" height="14.4" x="21.6" y="10.8" fill="#000" rx="1.2"/><rect width="2.4" height="7.2" x="26.4" y="14.4" fill="#000" rx="1.2"/></svg>