<svg xmlns="http://www.w3.org/2000/svg" width="36" height="36" fill="none"><path fill="#000" fill-rule="evenodd" d="M18.861 24.462v-3.017a.862.862 0 1 0-1.722 0v3.017l-5.166-2.983v-5.964l5.597 3.231a.87.87 0 0 0 .86 0l5.597-3.231v5.964zM17.57 9.3l-3.334 1.924a.862.862 0 0 0 .86 1.492L18 11.041l5.166 2.981L18 17.006l-6.447-3.723a.8.8 0 0 0-.189-.084h-.002q-.009-.004-.018-.005l-.009-.003-.01-.003-.016-.004h-.004q-.129-.03-.258-.02h-.003l-.017.002h-.011q-.003.003-.008.002a.9.9 0 0 0-.31.099q0 0-.003.002l-.014.008-.013.009h-.004a.9.9 0 0 0-.245.226l-.007.01-.01.012-.001.003a.9.9 0 0 0-.113.234v.002l-.006.017-.002.01-.003.01-.004.016v.003a1 1 0 0 0-.023.206v7.941c0 .308.165.593.43.747l6.89 3.977a.87.87 0 0 0 .86 0l6.89-3.977a.86.86 0 0 0 .43-.747v-7.941a.9.9 0 0 0-.088-.39l-.002-.006-.01-.019-.003-.006-.013-.022-.012-.022-.004-.005q-.005-.01-.012-.018l-.003-.004a.85.85 0 0 0-.293-.272l-6.88-3.97a.86.86 0 0 0-.86 0" clip-rule="evenodd"/><rect width="32" height="32" x="2" y="2" stroke="#000" stroke-width="2" rx="16"/></svg>