<svg xmlns="http://www.w3.org/2000/svg" width="36" height="36" fill="none"><path fill="#000" fill-rule="evenodd" d="M12.981 12.207h-2.508a.836.836 0 1 0 0 1.673h2.508a.837.837 0 0 0 0-1.673M15.49 13.043c0 .462.375.836.837.836h9.2a.836.836 0 1 0 0-1.672h-9.2a.836.836 0 0 0-.836.836M12.981 15.553h-2.508a.836.836 0 1 0 0 1.672h2.508a.836.836 0 0 0 0-1.672M25.528 15.553h-9.2a.836.836 0 1 0 0 1.672h9.2a.836.836 0 1 0 0-1.672M12.981 18.899h-2.508a.836.836 0 1 0 0 1.672h2.508a.837.837 0 0 0 0-1.673M25.528 18.899h-9.2a.836.836 0 1 0 0 1.672h9.2a.837.837 0 0 0 0-1.673M12.981 22.244h-2.508a.836.836 0 0 0 0 1.673h2.508a.836.836 0 0 0 0-1.673M25.528 22.244h-9.2a.836.836 0 1 0 0 1.673h9.2a.837.837 0 1 0 0-1.673" clip-rule="evenodd"/><rect width="32" height="32" x="2" y="2" stroke="#000" stroke-width="2" rx="16"/></svg>