<svg xmlns="http://www.w3.org/2000/svg" width="36" height="36" fill="none"><path fill="#000" stroke="#000" stroke-width="2" d="M31.856 8.845 19 1.423a2 2 0 0 0-2 0L4.144 8.845a2 2 0 0 0-1 1.732v14.846a2 2 0 0 0 1 1.732L17 34.577a2 2 0 0 0 2 0l12.856-7.422a2 2 0 0 0 1-1.732V10.577a2 2 0 0 0-1-1.732Z"/><mask id="a" width="18" height="9" x="9" y="13" mask-type="alpha" maskUnits="userSpaceOnUse"><path fill="#fff" fill-rule="evenodd" d="M9 13h18v9H9z" clip-rule="evenodd"/></mask><g mask="url(#a)"><path fill="#fff" fill-rule="evenodd" d="M22.5 14.8c1.494 0 2.7 1.206 2.7 2.7s-1.206 2.7-2.7 2.7a2.696 2.696 0 0 1-2.7-2.7c0-1.494 1.206-2.7 2.7-2.7m-9 7.2h9c2.484 0 4.5-2.016 4.5-4.5S24.984 13 22.5 13h-9A4.5 4.5 0 0 0 9 17.5c0 2.484 2.016 4.5 4.5 4.5" clip-rule="evenodd"/></g></svg>