<svg xmlns="http://www.w3.org/2000/svg" xml:space="preserve" viewBox="0 0 36 36"><path d="M31.9 8.8 19 1.4c-.6-.4-1.4-.4-2 0L4.1 8.8c-.6.4-1 1-1 1.7v14.8c0 .7.4 1.4 1 1.7L17 34.6c.6.4 1.4.4 2 0l12.9-7.4c.6-.4 1-1 1-1.7V10.6c0-.7-.4-1.4-1-1.8z" style="fill:none;stroke:#000;stroke-width:2"/><path d="M5.9 12.1h2.3c.9 0 1.8.1 2.7 0 .3 0 .3 0 .3.3 0 .1 0 .1-.1.1s-.1.1-.1.2c0 .4 0 .9.2 1.3.1.1.1.2.2.3.2.1.3.1.5 0 .1-.1.3-.2.4-.2h.4c1.1.2 2.1.3 3.2.5.4.1.8.1 1.2.3.2.1.3.2.1.4-.1.2-.3.3-.5.3s-.3.1-.5.1c-.5.1-.6.2-.6.7 0 .1 0 .2-.2.3-.3.1-.6.3-.9.4-1.1.5-2.2 1.1-3.4 1.6v1.1c0 1.3.1 2.7.1 4v.3c0 .2.1.3.3.2q.3 0 .3-.3c.1-1.4.1-2.9.2-4.3 0-.2.1-.4.3-.4.6-.2 1.3-.5 1.9-.7.7-.3 1.4-.5 2.1-.7.1 0 .2 0 .3.1.1.2.3.3.4.4.5.3 1 .3 1.6.2.5-.1.9-.2 1.1-.7.1-.1.1-.1.2 0 1.4.5 2.8.9 4.1 1.4.2.1.3.2.3.4.1 1.4.1 2.9.2 4.3q0 .3.3.3c.2 0 .3 0 .3-.3 0-.8 0-1.6.1-2.4 0-.8 0-1.6.1-2.3 0-.3 0-.4-.3-.5-1.3-.6-2.7-1.3-4-1.9-.2-.1-.3-.2-.3-.5s-.1-.4-.4-.5c-.2-.1-.5-.1-.7-.2s-.4-.2-.6-.4c-.1-.1-.1-.3.1-.3.1-.1.3-.1.4-.1 1.4-.3 2.9-.5 4.4-.7.2 0 .3 0 .4.2s.3.1.4.1c.1-.1.2-.2.2-.3.2-.4.3-.9.3-1.3 0-.1 0-.1-.1-.1-.1-.1-.2-.3-.1-.4s.2-.1.3-.1c.5 0 1 .1 1.5 0q1.5-.3 3-.3c.1 0 .3 0 .4-.1-.1 0-.3-.1-.4-.1-1-.1-2.1-.1-3.1-.1-.6 0-1.2.1-1.7.2h-.3q-.15-.15-.3 0h-.7c-1.4-.1-2.8-.1-4.2.1-.2 0-.4 0-.5.2.2 0 .5.1.7.1 1.5 0 2.9.1 4.4 0h.1c.1.1 0 .3-.1.4-.1 0-.1.1-.2.2-.1.3-.1.3-.4.3h-4c-.2 0-.3-.1-.4-.3-.1-.3-.4-.6-.7-.7-.5-.2-1 .1-1.3.7-.1.2-.2.3-.4.3h-4c-.3 0-.3 0-.4-.3 0-.1-.1-.2-.2-.2-.2-.1-.1-.2-.1-.4s.1-.1.2-.1c.6 0 1.1.1 1.7 0 .8-.1 1.7-.2 2.5-.3.3 0 .5 0 .8-.1 0-.1-.1-.1-.1-.1-.3 0-.6-.1-.9-.1h-1.5c-.9 0-1.8 0-2.7.2h-.2c-.1-.1-.3-.1-.4 0 0 .1-.1.1-.2.1-1-.1-2-.1-3.1-.1-.6 0-1.2 0-1.8.1-.1.1-.2.1-.4.2"/></svg>