<?xml version="1.0" encoding="utf-8"?>
<!-- Generator: Adobe Illustrator 28.0.0, SVG Export Plug-In . SVG Version: 6.00 Build 0)  -->
<svg version="1.1" id="Layer_1" xmlns="http://www.w3.org/2000/svg" xmlns:xlink="http://www.w3.org/1999/xlink" x="0px" y="0px"
	 viewBox="0 0 36 36" style="enable-background:new 0 0 36 36;" xml:space="preserve">
<style type="text/css">
	.st0{fill:none;stroke:#000000;stroke-width:2;}
</style>
<path class="st0" d="M31.9,8.8L19,1.4c-0.6-0.4-1.4-0.4-2,0L4.1,8.8c-0.6,0.4-1,1-1,1.7v14.8c0,0.7,0.4,1.4,1,1.7L17,34.6
	c0.6,0.4,1.4,0.4,2,0l12.9-7.4c0.6-0.4,1-1,1-1.7V10.6C32.9,9.9,32.5,9.2,31.9,8.8z"/>
<path d="M5.9,12.1c0.2,0,0.4,0,0.6,0c0.6,0,1.1,0,1.7,0c0.9,0,1.8,0.1,2.7,0c0.3,0,0.3,0,0.3,0.3c0,0.1,0,0.1-0.1,0.1
	S11,12.6,11,12.7c0,0.4,0,0.9,0.2,1.3c0.1,0.1,0.1,0.2,0.2,0.3c0.2,0.1,0.3,0.1,0.5,0c0.1-0.1,0.3-0.2,0.4-0.2s0.3,0,0.4,0
	c1.1,0.2,2.1,0.3,3.2,0.5c0.4,0.1,0.8,0.1,1.2,0.3c0.2,0.1,0.3,0.2,0.1,0.4c-0.1,0.2-0.3,0.3-0.5,0.3s-0.3,0.1-0.5,0.1
	c-0.5,0.1-0.6,0.2-0.6,0.7c0,0.1,0,0.2-0.2,0.3c-0.3,0.1-0.6,0.3-0.9,0.4c-1.1,0.5-2.2,1.1-3.4,1.6c0,0.1,0,0.2,0,0.4s0,0.4,0,0.7
	c0,1.3,0.1,2.7,0.1,4c0,0.1,0,0.2,0,0.3c0,0.2,0.1,0.3,0.3,0.2c0.2,0,0.3-0.1,0.3-0.3c0.1-1.4,0.1-2.9,0.2-4.3
	c0-0.2,0.1-0.4,0.3-0.4c0.6-0.2,1.3-0.5,1.9-0.7c0.7-0.3,1.4-0.5,2.1-0.7c0.1,0,0.2,0,0.3,0.1c0.1,0.2,0.3,0.3,0.4,0.4
	c0.5,0.3,1,0.3,1.6,0.2c0.5-0.1,0.9-0.2,1.1-0.7c0.1-0.1,0.1-0.1,0.2,0c1.4,0.5,2.8,0.9,4.1,1.4c0.2,0.1,0.3,0.2,0.3,0.4
	c0.1,1.4,0.1,2.9,0.2,4.3c0,0.2,0.1,0.3,0.3,0.3c0.2,0,0.3,0,0.3-0.3c0-0.8,0-1.6,0.1-2.4c0-0.8,0-1.6,0.1-2.3c0-0.3,0-0.4-0.3-0.5
	c-1.3-0.6-2.7-1.3-4-1.9c-0.2-0.1-0.3-0.2-0.3-0.5s-0.1-0.4-0.4-0.5c-0.2-0.1-0.5-0.1-0.7-0.2c-0.2-0.1-0.4-0.2-0.6-0.4
	c-0.1-0.1-0.1-0.3,0.1-0.3c0.1-0.1,0.3-0.1,0.4-0.1c1.4-0.3,2.9-0.5,4.4-0.7c0.2,0,0.3,0,0.4,0.2s0.3,0.1,0.4,0.1
	c0.1-0.1,0.2-0.2,0.2-0.3c0.2-0.4,0.3-0.9,0.3-1.3c0-0.1,0-0.1-0.1-0.1c-0.1-0.1-0.2-0.3-0.1-0.4c0.1-0.1,0.2-0.1,0.3-0.1
	c0.5,0,1,0.1,1.5,0c1-0.2,2-0.3,3-0.3c0.1,0,0.3,0,0.4-0.1c-0.1,0-0.3-0.1-0.4-0.1c-1-0.1-2.1-0.1-3.1-0.1c-0.6,0-1.2,0.1-1.7,0.2
	c-0.1,0-0.2,0-0.3,0c-0.1-0.1-0.2-0.1-0.3,0c-0.1,0-0.2,0-0.4,0c-0.1,0-0.2,0-0.3,0c-1.4-0.1-2.8-0.1-4.2,0.1c-0.2,0-0.4,0-0.5,0.2
	c0.2,0,0.5,0.1,0.7,0.1c1.5,0,2.9,0.1,4.4,0c0.1,0,0.1,0,0.1,0c0.1,0.1,0,0.3-0.1,0.4c-0.1,0-0.1,0.1-0.2,0.2
	c-0.1,0.3-0.1,0.3-0.4,0.3c-1.3,0-2.7,0-4,0c-0.2,0-0.3-0.1-0.4-0.3c-0.1-0.3-0.4-0.6-0.7-0.7c-0.5-0.2-1,0.1-1.3,0.7
	c-0.1,0.2-0.2,0.3-0.4,0.3c-1.3,0-2.7,0-4,0c-0.3,0-0.3,0-0.4-0.3c0-0.1-0.1-0.2-0.2-0.2c-0.2-0.1-0.1-0.2-0.1-0.4s0.1-0.1,0.2-0.1
	c0.6,0,1.1,0.1,1.7,0c0.8-0.1,1.7-0.2,2.5-0.3c0.3,0,0.5,0,0.8-0.1c0-0.1-0.1-0.1-0.1-0.1c-0.3,0-0.6-0.1-0.9-0.1c-0.5,0-1,0-1.5,0
	c-0.9,0-1.8,0-2.7,0.2c-0.1,0-0.2,0-0.2,0c-0.1-0.1-0.3-0.1-0.4,0c0,0.1-0.1,0.1-0.2,0.1c-1-0.1-2-0.1-3.1-0.1c-0.6,0-1.2,0-1.8,0.1
	C6.2,12,6.1,12,5.9,12.1z"/>
</svg>
