<svg xmlns="http://www.w3.org/2000/svg" width="36" height="36" fill="none"><path fill="#FD0" stroke="#FD0" stroke-width="2" d="M31.856 8.845 19 1.423a2 2 0 0 0-2 0L4.144 8.845a2 2 0 0 0-1 1.732v14.846a2 2 0 0 0 1 1.732L17 34.577a2 2 0 0 0 2 0l12.856-7.422a2 2 0 0 0 1-1.732V10.577a2 2 0 0 0-1-1.732Z"/><path fill="#000" fill-rule="evenodd" d="M10 12h12c.55 0 1 .45 1 1v3.5l3.146-3.146a.5.5 0 0 1 .854.353v8.586a.5.5 0 0 1-.854.353L23 19.5V23c0 .55-.45 1-1 1H10c-.55 0-1-.45-1-1V13c0-.55.45-1 1-1m1 10h10v-8H11z" clip-rule="evenodd"/></svg>