<svg xmlns="http://www.w3.org/2000/svg" width="36" height="36" fill="none"><path stroke="#000" stroke-width="2" d="M31.856 8.845 19 1.423a2 2 0 0 0-2 0L4.144 8.845a2 2 0 0 0-1 1.732v14.846a2 2 0 0 0 1 1.732L17 34.577a2 2 0 0 0 2 0l12.856-7.422a2 2 0 0 0 1-1.732V10.577a2 2 0 0 0-1-1.732Z"/><path fill="#000" fill-rule="evenodd" d="M17 24.93A7 7 0 0 1 11 18a1 1 0 1 1 2 0 5 5 0 0 0 10 0 1 1 0 1 1 2 0 7 7 0 0 1-6 6.93V28h-2z" clip-rule="evenodd"/><rect width="4" height="10" x="16" y="10" stroke="#000" stroke-width="2" rx="2"/></svg>