<svg xmlns="http://www.w3.org/2000/svg" width="36" height="36" fill="none"><path fill="#000" stroke="#000" stroke-width="2" d="M31.856 8.845 19 1.423a2 2 0 0 0-2 0L4.144 8.845a2 2 0 0 0-1 1.732v14.846a2 2 0 0 0 1 1.732L17 34.577a2 2 0 0 0 2 0l12.856-7.422a2 2 0 0 0 1-1.732V10.577a2 2 0 0 0-1-1.732Z"/><path fill="#fff" fill-rule="evenodd" d="M12.5 25.004a2 2 0 0 0 2 2h8a2 2 0 0 0 2-2v-12h-12z" clip-rule="evenodd"/><mask id="a" width="15" height="4" x="11" y="9" mask-type="alpha" maskUnits="userSpaceOnUse"><path fill="#fff" fill-rule="evenodd" d="M11 9h15v3.004H11z" clip-rule="evenodd"/></mask><g mask="url(#a)"><path fill="#fff" fill-rule="evenodd" d="M25.058 10.004h-.932v-.06A.944.944 0 0 0 23.182 9h-9.363a.944.944 0 0 0-.944.943v.061h-.932a.943.943 0 0 0-.943.943v.114c0 .521.423.943.943.943h13.115a.943.943 0 0 0 .943-.943v-.114a.943.943 0 0 0-.943-.943" clip-rule="evenodd"/></g></svg>