<svg xmlns="http://www.w3.org/2000/svg" width="36" height="36" fill="none"><path fill="#000" stroke="#000" stroke-width="2" d="M31.856 8.845 19 1.423a2 2 0 0 0-2 0L4.144 8.845a2 2 0 0 0-1 1.732v14.846a2 2 0 0 0 1 1.732L17 34.577a2 2 0 0 0 2 0l12.856-7.422a2 2 0 0 0 1-1.732V10.577a2 2 0 0 0-1-1.732Z"/><mask id="a" width="14" height="18" x="11" y="9" mask-type="alpha" maskUnits="userSpaceOnUse"><path fill="#fff" fill-rule="evenodd" d="M11 9h13.507v18H11z" clip-rule="evenodd"/></mask><g mask="url(#a)"><path fill="#fff" fill-rule="evenodd" d="M17.502 9.087c-.266.24-6.502 5.94-6.502 11.159A6.76 6.76 0 0 0 17.753 27a6.76 6.76 0 0 0 6.754-6.754c0-5.22-6.236-10.92-6.502-11.16a.41.41 0 0 0-.503 0" clip-rule="evenodd"/></g></svg>