<svg xmlns="http://www.w3.org/2000/svg" width="36" height="36" fill="none"><path fill="#36B2E6" stroke="#36B2E6" stroke-width="2" d="M31.856 8.845 19 1.423a2 2 0 0 0-2 0L4.144 8.845a2 2 0 0 0-1 1.732v14.846a2 2 0 0 0 1 1.732L17 34.577a2 2 0 0 0 2 0l12.856-7.422a2 2 0 0 0 1-1.732V10.577a2 2 0 0 0-1-1.732Z"/><path fill="#000" fill-rule="evenodd" d="M18 20a2 2 0 1 0 0-4 2 2 0 0 0 0 4" clip-rule="evenodd"/><path fill="#000" d="M22.243 22.243a1 1 0 1 1-1.415-1.415 4 4 0 1 0-5.656 0 1 1 0 0 1-1.415 1.415 6 6 0 1 1 8.486 0"/><path fill="#000" d="M25.071 25.071a1 1 0 0 1-1.414-1.414 8 8 0 1 0-11.314 0 1 1 0 1 1-1.414 1.414c-3.905-3.905-3.905-10.237 0-14.142s10.237-3.905 14.142 0 3.905 10.237 0 14.142"/></svg>