<svg xmlns="http://www.w3.org/2000/svg" width="36" height="36" fill="none"><path stroke="#000" stroke-width="2" d="M31.856 8.845 19 1.423a2 2 0 0 0-2 0L4.144 8.845a2 2 0 0 0-1 1.732v14.846a2 2 0 0 0 1 1.732L17 34.577a2 2 0 0 0 2 0l12.856-7.422a2 2 0 0 0 1-1.732V10.577a2 2 0 0 0-1-1.732Z"/><path stroke="#000" stroke-width="2" d="M22.456 15.368A2 2 0 0 0 20.558 14h-5.116a2 2 0 0 0-1.898 1.367l-2.667 8A2 2 0 0 0 12.776 26h10.45a2 2 0 0 0 1.897-2.633zM18 13a2 2 0 1 0 0-4 2 2 0 0 0 0 4Z" clip-rule="evenodd"/></svg>