<svg xmlns="http://www.w3.org/2000/svg" width="36" height="36" fill="none"><path fill="#000" fill-rule="evenodd" d="M18 10.889a7.092 7.092 0 0 0-5.028 2.083A7.1 7.1 0 0 0 10.889 18a7.07 7.07 0 0 0 2.083 5.029A7.1 7.1 0 0 0 18 25.112a7.092 7.092 0 0 0 5.028-2.083A7.074 7.074 0 0 0 25.111 18a7.07 7.07 0 0 0-2.083-5.028A7.1 7.1 0 0 0 18 10.889m0 16c-1.2 0-2.364-.235-3.46-.7a8.8 8.8 0 0 1-2.825-1.904A8.8 8.8 0 0 1 9.81 21.46 8.8 8.8 0 0 1 9.111 18c0-1.2.235-2.363.699-3.46a8.8 8.8 0 0 1 1.905-2.825A8.86 8.86 0 0 1 18 9.112a8.85 8.85 0 0 1 6.285 2.603A8.85 8.85 0 0 1 26.889 18a8.85 8.85 0 0 1-2.604 6.285 8.8 8.8 0 0 1-2.825 1.905 8.8 8.8 0 0 1-3.46.699" clip-rule="evenodd"/><path fill="#000" fill-rule="evenodd" d="M20.667 21.556a.9.9 0 0 1-.629-.26l-2.927-2.928v-4.812a.889.889 0 1 1 1.778 0v4.076l2.406 2.406a.888.888 0 0 1-.628 1.518" clip-rule="evenodd"/><rect width="30" height="30" x="3" y="3" stroke="#000" stroke-width="2" rx="3"/></svg>