<svg xmlns="http://www.w3.org/2000/svg" width="36" height="36" fill="none"><rect width="32" height="32" x="2" y="2" stroke="#000" stroke-width="2" rx="16"/><path fill="#000" d="M22.14 18.5q0 1.5-.3 2.55c-.2.7-.48 1.27-.83 1.7-.36.44-.79.75-1.3.95s-1.07.3-1.7.3c-.62 0-1.18-.1-1.69-.3s-.95-.51-1.31-.95-.65-1.01-.85-1.7q-.3-1.05-.3-2.55v-2.04q0-1.5.3-2.55c.2-.7.48-1.26.84-1.69s.8-.74 1.31-.93c.5-.19 1.07-.29 1.69-.29.63 0 1.19.1 1.7.29s.95.5 1.31.93.64.99.84 1.69.3 1.54.3 2.55v2.04zm-2.11-2.36c0-.64-.05-1.18-.13-1.62-.09-.44-.22-.79-.4-1.06-.17-.27-.39-.46-.64-.58-.25-.13-.54-.19-.86-.19s-.61.06-.86.18-.47.31-.64.58-.31.62-.4 1.06-.13.98-.13 1.62v2.67c0 .64.05 1.18.14 1.62.09.45.23.81.4 1.09s.39.48.64.61.54.19.87.19.62-.06.87-.19.46-.33.63-.61.3-.64.39-1.09.13-.99.13-1.62v-2.66z"/><path fill="#000" fill-rule="evenodd" d="M20.479 27.067h-1.59v-.956a.889.889 0 1 0-1.777 0v.956h-1.593a.44.44 0 0 0-.312.755l2.48 2.489a.44.44 0 0 0 .631 0l2.48-2.48a.45.45 0 0 0-.32-.764M18 9.389a.89.89 0 0 0 .889-.889V6.444a.889.889 0 0 0-1.778 0V8.5c0 .491.398.889.889.889" clip-rule="evenodd"/></svg>