<svg viewBox="0 0 36 36" fill="none" xmlns="http://www.w3.org/2000/svg">
<path d="M24.1191 1.41309L24.3174 1.42285C24.7751 1.46907 25.2056 1.6733 25.5332 2.00195L34.0898 10.585C34.4172 10.9135 34.6183 11.3442 34.6631 11.8018L34.6729 11.999L34.6533 24.1191C34.6526 24.5833 34.4914 25.0313 34.1992 25.3867L34.0654 25.5332L25.4824 34.0898C25.1538 34.4173 24.7224 34.6183 24.2646 34.6631L24.0674 34.6729L11.9473 34.6533C11.4171 34.6524 10.9085 34.4409 10.5342 34.0654L1.97754 25.4824C1.60327 25.1069 1.39281 24.5976 1.39355 24.0674L1.41309 11.9482C1.41392 11.4178 1.62629 10.9087 2.00195 10.5342L10.585 1.97754L10.7314 1.84473C11.0876 1.55395 11.5352 1.39299 11.999 1.39355L24.1191 1.41309Z" fill="none" stroke="black" stroke-width="2"/>
</svg>
