<svg viewBox="0 0 36 36" fill="none" xmlns="http://www.w3.org/2000/svg">
<mask id="mask0" mask-type="alpha" maskUnits="userSpaceOnUse" x="23" y="8" width="5" height="5">
<path fill-rule="evenodd" clip-rule="evenodd" d="M23.0414 8H27.9999V12.9583H23.0414V8Z" fill="white"/>
</mask>
<g mask="url(#mask0)">
<path fill-rule="evenodd" clip-rule="evenodd" d="M27.6204 9.29529L26.7044 8.37929C26.1984 7.87329 25.3794 7.87329 24.8734 8.37929L23.0414 10.2113L25.7894 12.9583L27.6204 11.1273C28.1264 10.6213 28.1264 9.80129 27.6204 9.29529Z" fill="currentColor"/>
</g>
<mask id="mask1" mask-type="alpha" maskUnits="userSpaceOnUse" x="8" y="11" width="17" height="17">
<path fill-rule="evenodd" clip-rule="evenodd" d="M8 11.1274H24.8729V28H8V11.1274Z" fill="white"/>
</mask>
<g mask="url(#mask1)">
<path fill-rule="evenodd" clip-rule="evenodd" d="M9.5149 23.7374C9.3719 23.8794 9.2659 24.0524 9.2029 24.2434L8.0069 27.8294C7.9729 27.9304 8.0699 28.0274 8.1709 27.9934L11.7559 26.7984C11.9479 26.7344 12.1199 26.6274 12.2629 26.4854L24.8729 13.8744L22.1249 11.1274L9.5149 23.7374Z" fill="currentColor"/>
</g>
</svg>
