<svg viewBox="0 0 36 36" fill="none" xmlns="http://www.w3.org/2000/svg">
<path d="M17.1,24.5L12.7,22c-0.3-0.2-0.5-0.4-0.6-0.6c-0.2-0.3-0.2-0.6-0.2-0.9v-5c0-0.3,0.1-0.6,0.2-0.9c0.2-0.3,0.4-0.5,0.6-0.6
	l4.4-2.5c0.3-0.2,0.6-0.2,0.9-0.2c0.3,0,0.6,0.1,0.9,0.2l4.4,2.5c0.3,0.2,0.5,0.4,0.6,0.6c0.2,0.3,0.2,0.6,0.2,0.9v5
	c0,0.3-0.1,0.6-0.2,0.9s-0.4,0.5-0.6,0.6l-4.4,2.5c-0.3,0.2-0.6,0.2-0.9,0.2C17.7,24.8,17.4,24.7,17.1,24.5z M17.1,22.5v-4l-3.5-2v4
	L17.1,22.5z M18.9,22.5l3.5-2v-4l-3.5,2V22.5z M9.2,13.6V11c0-0.5,0.2-0.9,0.5-1.2c0.3-0.3,0.8-0.5,1.2-0.5h2.6V11H11v2.6H9.2z
	 M13.6,26.8H11c-0.5,0-0.9-0.2-1.2-0.5c-0.3-0.3-0.5-0.8-0.5-1.2v-2.6H11V25h2.6V26.8z M22.4,26.8V25H25v-2.6h1.8V25
	c0,0.5-0.2,0.9-0.5,1.2c-0.3,0.3-0.8,0.5-1.2,0.5H22.4z M25,13.6V11h-2.6V9.2H25c0.5,0,0.9,0.2,1.2,0.5s0.5,0.8,0.5,1.2v2.6H25z
	 M18,17l3.5-2L18,13l-3.5,2L18,17z"/>
</svg>
