<svg viewBox="0 0 36 36" fill="none" xmlns="http://www.w3.org/2000/svg">
<path fill="currentColor" d="M13.6,24.2l2-3.2h-1.2v-2.4l-2,3.2h1.2V24.2z M10.8,16.2h6.3V11h-6.3V16.2z M10.8,25h6.3v-7.1h-6.3V25z M9.1,26.7V11
	c0-0.4,0.2-0.8,0.5-1.2c0.3-0.3,0.7-0.5,1.2-0.5h6.3c0.4,0,0.8,0.2,1.2,0.5c0.3,0.3,0.5,0.7,0.5,1.2v6.8h1.6c0.3,0,0.6,0.1,0.9,0.4
	c0.2,0.2,0.4,0.5,0.4,0.9v5.2c0,0.3,0.1,0.6,0.4,0.8c0.3,0.2,0.6,0.3,0.9,0.3c0.3,0,0.7-0.1,0.9-0.3c0.3-0.2,0.4-0.4,0.4-0.8v-8.8
	h-0.4c-0.2,0-0.4-0.1-0.6-0.2c-0.2-0.2-0.2-0.4-0.2-0.6v-2.5h0.6v-1.4h0.9v1.4h0.9v-1.4h0.9v1.4h0.6v2.5c0,0.2-0.1,0.4-0.2,0.6
	c-0.2,0.2-0.4,0.2-0.6,0.2h-0.5v8.8c0,0.7-0.3,1.3-0.8,1.8c-0.6,0.5-1.2,0.7-1.9,0.7c-0.7,0-1.3-0.2-1.8-0.7
	c-0.5-0.5-0.8-1.1-0.8-1.7v-5.2c0,0,0,0.1,0,0.1c0,0,0,0,0.1,0h-1.6v7.5H9.1z M17.1,25h-6.3H17.1z"/>
</svg>
