<svg viewBox="0 0 36 36" fill="none" xmlns="http://www.w3.org/2000/svg">
<mask id="mask0" mask-type="alpha" maskUnits="userSpaceOnUse" x="9" y="9" width="18" height="18">
<path fill-rule="evenodd" clip-rule="evenodd" d="M9 9H26.8419V27H9V9Z" fill="currentColor"/>
</mask>
<g mask="url(#mask0)">
<path fill-rule="evenodd" clip-rule="evenodd" d="M17.8419 9C13.4479 9 9.7899 12.148 8.9999 16.312H17.8419V14.676C17.8419 14.139 18.4859 13.877 18.8669 14.246L22.1939 17.572C22.4319 17.812 22.4319 18.181 22.1939 18.419L18.8549 21.745C18.4859 22.127 17.8419 21.864 17.8419 21.328V19.688H8.9999C9.7899 23.852 13.4479 27 17.8419 27C22.8129 27 26.8419 22.971 26.8419 18C26.8419 13.029 22.8129 9 17.8419 9Z" fill="currentColor"/>
</g>
</svg>
