<svg viewBox="0 0 36 36" fill="none" xmlns="http://www.w3.org/2000/svg">
<path fill-rule="evenodd" clip-rule="evenodd" d="M22.83 10H26C27.1 10 28 10.9 28 12V24C28 25.1 27.1 26 26 26H10C8.9 26 8 25.1 8 24V12C8 10.9 8.9 10 10 10H13.17L15 8H21L22.83 10ZM10 24H26V12H21.95L20.12 10H15.88L14.05 12H10V24ZM18 13C15.24 13 13 15.24 13 18C13 20.76 15.24 23 18 23C20.76 23 23 20.76 23 18C23 15.24 20.76 13 18 13ZM15 18C15 19.65 16.35 21 18 21C19.65 21 21 19.65 21 18C21 16.35 19.65 15 18 15C16.35 15 15 16.35 15 18Z" fill="var(--symbol-bg, white)"/>
</svg>
