<svg viewBox="0 0 36 36" fill="none" xmlns="http://www.w3.org/2000/svg">
<path fill-rule="evenodd" clip-rule="evenodd" d="M18 13.8333H26.3334V25.5H9.66669V10.5H18V13.8333ZM11.3334 23.8333H13V22.1667H11.3334V23.8333ZM13 20.5H11.3334V18.8333H13V20.5ZM11.3334 17.1667H13V15.5H11.3334V17.1667ZM13 13.8333H11.3334V12.1667H13V13.8333ZM14.6667 23.8333H16.3334V22.1667H14.6667V23.8333ZM16.3334 20.5H14.6667V18.8333H16.3334V20.5ZM14.6667 17.1667H16.3334V15.5H14.6667V17.1667ZM16.3334 13.8333H14.6667V12.1667H16.3334V13.8333ZM18 23.8333H24.6667V15.5H18V17.1667H19.6667V18.8333H18V20.5H19.6667V22.1667H18V23.8333ZM23 17.1667H21.3334V18.8333H23V17.1667ZM21.3334 20.5H23V22.1667H21.3334V20.5Z" fill="var(--symbol-bg, white)"/>
</svg>
