<svg viewBox="0 0 36 36" fill="none" xmlns="http://www.w3.org/2000/svg">
<path fill="currentColor" d="M9,13.5v-2.9c0-0.4,0.2-0.8,0.5-1.1C9.8,9.2,10.2,9,10.6,9h2.9v1.6h-2.9v2.9H9z M13.5,27h-2.9c-0.4,0-0.8-0.2-1.1-0.5
	C9.2,26.2,9,25.8,9,25.4v-2.9h1.6v2.9h2.9V27z M22.5,27v-1.6h2.9v-2.9H27v2.9c0,0.4-0.2,0.8-0.5,1.1c-0.3,0.3-0.7,0.5-1.1,0.5H22.5z
	 M25.4,13.5v-2.9h-2.9V9h2.9c0.4,0,0.8,0.2,1.1,0.5c0.3,0.3,0.5,0.7,0.5,1.1v2.9H25.4z M19.3,15.4c-0.5,0-0.9-0.2-1.2-0.5
	c-0.3-0.3-0.5-0.7-0.5-1.2c0-0.5,0.2-0.9,0.5-1.2c0.3-0.3,0.7-0.5,1.2-0.5c0.5,0,0.9,0.2,1.2,0.5c0.3,0.3,0.5,0.7,0.5,1.2
	c0,0.5-0.2,0.9-0.5,1.2C20.2,15.2,19.8,15.4,19.3,15.4z M18.5,23.2h-3.4l1-4.9l-1.9,0.9v2.9h-1.6v-3.9l3.6-1.5
	c0.5-0.2,0.9-0.4,1.1-0.4c0.2-0.1,0.4-0.1,0.7-0.1c0.3,0,0.6,0.1,0.8,0.2c0.2,0.1,0.5,0.3,0.6,0.6l0.9,1.5c0.4,0.6,0.9,1.2,1.5,1.6
	c0.6,0.4,1.4,0.6,2.2,0.6v1.6c-1.1,0-1.9-0.2-2.7-0.6c-0.7-0.4-1.4-1.1-2-1.9L18.5,23.2z"/>
</svg>
