<svg viewBox="0 0 36 36" fill="none" xmlns="http://www.w3.org/2000/svg">
<g transform="scale(1.0285714285714285)">
<path d="M16.3232 10.6309V11.3301C15.8729 11.4752 15.4801 11.7594 15.2012 12.1416C14.9222 12.5239 14.7713 12.9849 14.7705 13.458V14.9316H16.3232V16.0957L15.2197 17.374L16.6982 18.5664L15.6807 20.0703L16.8848 20.8057L16.3584 21.5039V23.4736H12.6777C12.498 23.4736 12.3253 23.4025 12.1982 23.2754C12.0714 23.1485 12.0001 22.9763 12 22.7969V15.6162C12 15.4365 12.0712 15.2637 12.1982 15.1367C12.3253 15.0096 12.498 14.9385 12.6777 14.9385H13.6084V13.458C13.6087 12.7054 13.859 11.9736 14.3193 11.3779C14.7797 10.7823 15.4249 10.3562 16.1533 10.166L16.3232 10.6309ZM17.376 9.7207C18.2074 9.81134 18.9766 10.2056 19.5352 10.8281C20.0937 11.4508 20.4021 12.2583 20.4023 13.0947V14.5752H21.3223C21.5019 14.5752 21.6747 14.6464 21.8018 14.7734C21.9288 14.9005 22 15.0733 22 15.2529V22.4336C21.9999 22.613 21.9286 22.7852 21.8018 22.9121C21.6748 23.0392 21.502 23.1104 21.3223 23.1104H17.625V21.9326L18.7451 20.4521L17.4785 19.6787L18.4102 18.3076L17.043 17.209L17.5947 16.5703V14.5752H19.2246V13.0947C19.2243 12.6073 19.0646 12.1329 18.7705 11.7441C18.4764 11.3557 18.0636 11.0732 17.5947 10.9404V10.4404L17.376 9.7207ZM15.2129 7.50195C15.3156 7.457 15.4353 7.50391 15.4805 7.60645L15.9463 8.66113C15.9689 8.71017 15.9705 8.76698 15.9512 8.81738C15.9319 8.86762 15.8932 8.90839 15.8438 8.92969C15.8182 8.94101 15.7906 8.94732 15.7627 8.94824C15.6814 8.94817 15.6079 8.89895 15.5762 8.82422L15.1084 7.76953C15.0636 7.66673 15.1101 7.5469 15.2129 7.50195ZM18.5234 7.60645C18.5684 7.50371 18.6892 7.45696 18.792 7.50195C18.8946 7.54698 18.9413 7.66684 18.8965 7.76953L18.4307 8.82422C18.3989 8.89895 18.3254 8.94817 18.2441 8.94824C18.2162 8.9473 18.1886 8.94102 18.1631 8.92969C18.1131 8.90877 18.0735 8.86786 18.0537 8.81738C18.0341 8.76696 18.0361 8.7104 18.0586 8.66113L18.5234 7.60645ZM17.0137 7C17.1183 7 17.2066 7.07946 17.2178 7.18359V8.34766C17.2065 8.4516 17.1182 8.53027 17.0137 8.53027C16.9092 8.53013 16.8219 8.45148 16.8105 8.34766V7.18359C16.8217 7.07955 16.9091 7.00014 17.0137 7Z" fill="currentColor"/>
</g>
</svg>
