<svg viewBox="0 0 36 36" fill="none" xmlns="http://www.w3.org/2000/svg">
<g transform="scale(1.0285714285714285)">
<path d="M17.25 13C22.9103 13 27.4969 18.1216 27.5 18.125C27.4991 18.126 22.9117 23.25 17.25 23.25C11.5878 23.25 7 18.125 7 18.125C7 18.125 11.5878 13 17.25 13ZM20.1484 14.5762C21.2299 15.4019 21.9297 16.6851 21.9297 18.125C21.9297 19.5649 21.2295 20.855 20.1338 21.6807C22.7352 20.8481 24.8636 19.1077 25.9238 18.125C25.429 17.661 24.7007 17.0399 23.7959 16.4189C22.8487 15.7707 21.5834 15.0402 20.1484 14.5762ZM14.3662 14.5693C11.7648 15.4019 9.63652 17.1423 8.57617 18.125C9.07103 18.589 9.7993 19.2101 10.7041 19.8311C11.6513 20.4793 12.9166 21.2098 14.3516 21.6738C13.27 20.8481 12.5702 19.5649 12.5703 18.125C12.5703 16.6851 13.2705 15.395 14.3662 14.5693ZM17.25 20.1855C16.9885 20.1855 16.7832 20.3842 16.7832 20.6367C16.7834 20.889 16.9957 21.0869 17.25 21.0869C17.5043 21.0869 17.7166 20.889 17.7168 20.6367C17.7168 20.3843 17.5116 20.1855 17.25 20.1855ZM16.9316 14.9932C16.7974 15.3683 16.6983 15.744 16.5781 16.1191C16.5005 16.4943 16.5568 16.8699 16.6133 17.2451C16.6698 17.6203 16.727 17.9959 16.8047 18.3711L16.9102 18.9375C16.9455 19.1285 16.9884 19.3129 17.0449 19.5039H17.4688C17.5253 19.313 17.5682 19.1284 17.6035 18.9375L17.71 18.3711C17.7806 17.9959 17.8439 17.6203 17.9004 17.2451C17.9569 16.8632 18.0135 16.4875 17.957 16.1191C17.8369 15.744 17.7378 15.3683 17.6035 14.9932H16.9316Z" fill="currentColor"/>
</g>
</svg>
