<svg viewBox="0 0 36 36" fill="none" xmlns="http://www.w3.org/2000/svg">
<g transform="scale(1.0285714285714285)">
<path d="M2.76385 11.4506L2.74432 23.5707L11.301 32.1537L23.4211 32.1732L32.0041 23.6166L32.0236 11.4965L23.467 2.91345L11.3469 2.89392L2.76385 11.4506ZM18.1486 19.8812C18.3689 19.8813 18.5891 19.9903 18.715 20.2084L20.9377 24.058C21.1894 24.4941 20.8749 25.0393 20.3713 25.0394H15.925C15.4215 25.0391 15.107 24.494 15.3586 24.058L17.5812 20.2084C17.7073 19.9904 17.9282 19.8813 18.1486 19.8812ZM16.2189 24.2162H20.0773L18.1486 20.8744L16.2189 24.2162ZM27.4787 15.0131C27.7305 14.9256 28.0052 15.0587 28.093 15.3099C28.1808 15.5619 28.048 15.8375 27.7961 15.9252L8.81757 22.5355C8.56559 22.6234 8.28994 22.4904 8.20233 22.2386C8.11463 21.9867 8.24828 21.711 8.50018 21.6234L10.3683 20.973L25.6096 15.6644L27.4787 15.0131ZM9.00018 14.0004C10.6569 14.0005 12.0002 15.3436 12.0002 17.0004C12 18.657 10.6568 20 9.00018 20.0004C7.34346 20.0004 6.00038 18.657 6.00018 17.0004C6.00018 15.3435 7.34339 14.0004 9.00018 14.0004ZM25.4308 10.0004C26.7728 10.0006 27.8603 11.0881 27.8605 12.4301C27.8605 13.7723 26.773 14.8605 25.4308 14.8607C24.0886 14.8607 23.0002 13.7723 23.0002 12.4301C23.0004 11.088 24.0887 10.0004 25.4308 10.0004ZM25.4308 10.8236C24.5452 10.8236 23.8237 11.5444 23.8234 12.4301C23.8234 13.3159 24.545 14.0375 25.4308 14.0375C26.3165 14.0372 27.0373 13.316 27.0373 12.4301C27.037 11.5446 26.3163 10.8238 25.4308 10.8236Z" fill="currentColor"/>
</g>
</svg>
