<svg viewBox="0 0 36 36" fill="none" xmlns="http://www.w3.org/2000/svg">
<path fill-rule="evenodd" clip-rule="evenodd" d="M18.7071 8.9771L23.66 13.93C26.78 17.05 26.78 22.12 23.66 25.24C22.1 26.8 20.05 27.58 18 27.58C15.95 27.58 13.9 26.8 12.34 25.24C9.22 22.12 9.22 17.05 12.34 13.93L17.2929 8.9771C17.6834 8.58657 18.3166 8.58657 18.7071 8.9771ZM18.7079 11.8096C18.3172 11.418 17.6828 11.418 17.2921 11.8096L13.76 15.35C12.62 16.48 12 17.99 12 19.59C12 21.19 12.62 22.69 13.76 23.83C14.89 24.97 16.4 25.59 18 25.59C19.6 25.59 21.11 24.97 22.24 23.83C23.38 22.69 24 21.19 24 19.59C24 17.99 23.38 16.48 22.24 15.35L18.7079 11.8096Z" fill="currentColor"/>
</svg>
